SplineFontDB: 3.2
FontName: KoreeneSans-Thin
FullName: Koreene Sans Thin
FamilyName: Koreene Sans Thin
Weight: Thin
Copyright: (C) Copyright HanYang I&C Co.,Ltd. All rights reserved.
Version: 2.50; ttfautohint (v1.8.4.7-5d5b-dirty)
ItalicAngle: 0
UnderlinePosition: -244
UnderlineWidth: 90
Ascent: 1638
Descent: 410
InvalidEm: 0
sfntRevision: 0x00020147
LayerCount: 2
Layer: 0 1 "Back" 1
Layer: 1 1 "Fore" 0
XUID: [1021 531 -1996577725 7693]
StyleMap: 0x0040
FSType: 0
OS2Version: 4
OS2_WeightWidthSlopeOnly: 0
OS2_UseTypoMetrics: 1
CreationTime: 1068260456
ModificationTime: 1706986107
PfmFamily: 81
TTFWeight: 100
TTFWidth: 5
LineGap: 512
VLineGap: 0
Panose: 0 0 0 0 0 0 0 0 0 0
OS2TypoAscent: 1940
OS2TypoAOffset: 0
OS2TypoDescent: -470
OS2TypoDOffset: 0
OS2TypoLinegap: 512
OS2WinAscent: 2196
OS2WinAOffset: 0
OS2WinDescent: 726
OS2WinDOffset: 0
HheadAscent: 1940
HheadAOffset: 0
HheadDescent: -470
HheadDOffset: 0
OS2SubXSize: 410
OS2SubYSize: 410
OS2SubXOff: 0
OS2SubYOff: 574
OS2SupXSize: 410
OS2SupYSize: 410
OS2SupXOff: 0
OS2SupYOff: 1926
OS2StrikeYSize: 204
OS2StrikeYPos: 1024
OS2CapHeight: 1470
OS2XHeight: 1040
OS2Vendor: 'HY  '
OS2CodePages: 2000019f.00000000
OS2UnicodeRanges: e10002ff.4000001b.00000000.00000000
Lookup: 1 0 0 "'aalt' Access All Alternates lookup 0" { "'aalt' Access All Alternates lookup 0 subtable"  } ['aalt' ('DFLT' <'dflt' > 'cyrl' <'dflt' > 'grek' <'dflt' > 'hang' <'dflt' > 'jamo' <'dflt' > 'latn' <'dflt' > ) ]
Lookup: 3 0 0 "'aalt' Access All Alternates lookup 1" { "'aalt' Access All Alternates lookup 1 subtable"  } ['aalt' ('DFLT' <'dflt' > 'cyrl' <'dflt' > 'grek' <'dflt' > 'hang' <'dflt' > 'jamo' <'dflt' > 'latn' <'dflt' > ) ]
Lookup: 1 0 0 "'locl' Localized Forms in Latin lookup 2" { "'locl' Localized Forms in Latin lookup 2 subtable"  } ['locl' ('latn' <'MOL ' > ) ]
Lookup: 1 0 0 "'locl' Localized Forms in Latin lookup 3" { "'locl' Localized Forms in Latin lookup 3 subtable"  } ['locl' ('latn' <'ROM ' > ) ]

StartChar: exclam
Encoding: 33 33 4
Width: 634
GlyphClass: 2
Flags: W
LayerCount: 2
Fore
SplineSet
232 -16 m 1,0,-1
 232 152 l 1,1,-1
 406 152 l 1,2,-1
 406 -16 l 1,3,-1
 232 -16 l 1,0,-1
346 422 m 1,4,-1
 292 422 l 1,5,-1
 278 1472 l 1,6,-1
 360 1472 l 1,7,-1
 346 422 l 1,4,-1
EndSplineSet
EndChar

StartChar: quotedbl
Encoding: 34 34 5
Width: 914
GlyphClass: 2
Flags: W
LayerCount: 2
Fore
SplineSet
520 1120 m 1,0,-1
 700 1672 l 1,1,-1
 816 1672 l 1,2,-1
 578 1120 l 1,3,-1
 520 1120 l 1,0,-1
146 1120 m 1,4,-1
 326 1672 l 1,5,-1
 440 1672 l 1,6,-1
 204 1120 l 1,7,-1
 146 1120 l 1,4,-1
EndSplineSet
EndChar

StartChar: numbersign
Encoding: 35 35 6
Width: 1384
GlyphClass: 2
Flags: W
LayerCount: 2
Fore
SplineSet
98 434 m 1,0,-1
 98 482 l 1,1,-1
 370 482 l 1,2,-1
 436 948 l 1,3,-1
 166 948 l 1,4,-1
 166 996 l 1,5,-1
 442 996 l 1,6,-1
 504 1420 l 1,7,-1
 558 1420 l 1,8,-1
 500 996 l 1,9,-1
 968 996 l 1,10,-1
 1030 1420 l 1,11,-1
 1084 1420 l 1,12,-1
 1026 996 l 1,13,-1
 1290 996 l 1,14,-1
 1290 948 l 1,15,-1
 1018 948 l 1,16,-1
 952 482 l 1,17,-1
 1222 482 l 1,18,-1
 1222 434 l 1,19,-1
 946 434 l 1,20,-1
 886 8 l 1,21,-1
 828 8 l 1,22,-1
 890 434 l 1,23,-1
 420 434 l 1,24,-1
 360 8 l 1,25,-1
 304 8 l 1,26,-1
 364 434 l 1,27,-1
 98 434 l 1,0,-1
426 482 m 1,28,-1
 896 482 l 1,29,-1
 962 948 l 1,30,-1
 492 948 l 1,31,-1
 426 482 l 1,28,-1
EndSplineSet
EndChar

StartChar: dollar
Encoding: 36 36 7
Width: 1198
GlyphClass: 2
Flags: W
LayerCount: 2
Fore
SplineSet
170 228 m 1,0,-1
 220 260 l 1,1,2
 280 170 280 170 392 112 c 128,-1,3
 504 54 504 54 598 54 c 0,4,5
 758 54 758 54 861 125 c 128,-1,6
 964 196 964 196 964 352 c 0,7,8
 964 402 964 402 950 445 c 128,-1,9
 936 488 936 488 918 519 c 128,-1,10
 900 550 900 550 860 583 c 128,-1,11
 820 616 820 616 794 634 c 128,-1,12
 768 652 768 652 710 677 c 128,-1,13
 652 702 652 702 625 713 c 128,-1,14
 598 724 598 724 534 748 c 0,15,16
 376 806 376 806 287 893 c 128,-1,17
 198 980 198 980 198 1130 c 0,18,19
 198 1268 198 1268 300 1367 c 128,-1,20
 402 1466 402 1466 568 1468 c 1,21,-1
 568 1636 l 1,22,-1
 630 1636 l 1,23,-1
 630 1468 l 1,24,25
 734 1466 734 1466 831 1406 c 128,-1,26
 928 1346 928 1346 966 1274 c 1,27,-1
 916 1250 l 1,28,29
 798 1414 798 1414 596 1414 c 0,30,31
 438 1414 438 1414 349 1333 c 128,-1,32
 260 1252 260 1252 260 1126 c 0,33,34
 260 994 260 994 344 918 c 128,-1,35
 428 842 428 842 584 784 c 0,36,37
 670 750 670 750 712 733 c 128,-1,38
 754 716 754 716 826 675 c 128,-1,39
 898 634 898 634 933 596 c 128,-1,40
 968 558 968 558 998 495 c 128,-1,41
 1028 432 1028 432 1028 358 c 0,42,43
 1028 180 1028 180 912 92 c 128,-1,44
 796 4 796 4 630 0 c 1,45,-1
 630 -162 l 1,46,-1
 568 -162 l 1,47,-1
 568 0 l 1,48,49
 472 2 472 2 357 62 c 128,-1,50
 242 122 242 122 170 228 c 1,0,-1
EndSplineSet
EndChar

StartChar: percent
Encoding: 37 37 8
Width: 1956
GlyphClass: 2
Flags: W
LayerCount: 2
Fore
SplineSet
1090 306 m 0,0,1
 1090 456 1090 456 1191 551 c 128,-1,2
 1292 646 1292 646 1438 646 c 0,3,4
 1588 646 1588 646 1689 551 c 128,-1,5
 1790 456 1790 456 1790 306 c 0,6,7
 1790 154 1790 154 1687 58 c 128,-1,8
 1584 -38 1584 -38 1438 -38 c 0,9,10
 1296 -38 1296 -38 1193 57 c 128,-1,11
 1090 152 1090 152 1090 306 c 0,0,1
1150 306 m 0,12,13
 1150 174 1150 174 1237 94 c 128,-1,14
 1324 14 1324 14 1438 14 c 0,15,16
 1556 14 1556 14 1644 96 c 128,-1,17
 1732 178 1732 178 1732 306 c 0,18,19
 1732 432 1732 432 1647 512 c 128,-1,20
 1562 592 1562 592 1438 592 c 0,21,22
 1318 592 1318 592 1234 512 c 128,-1,23
 1150 432 1150 432 1150 306 c 0,12,13
168 1166 m 0,24,25
 168 1316 168 1316 270 1413 c 128,-1,26
 372 1510 372 1510 520 1510 c 0,27,28
 670 1510 670 1510 770 1414 c 128,-1,29
 870 1318 870 1318 870 1166 c 256,30,31
 870 1014 870 1014 768 921 c 128,-1,32
 666 828 666 828 520 828 c 0,33,34
 376 828 376 828 272 920 c 128,-1,35
 168 1012 168 1012 168 1166 c 0,24,25
226 1166 m 0,36,37
 226 1040 226 1040 315 960 c 128,-1,38
 404 880 404 880 520 880 c 256,39,40
 636 880 636 880 722 960 c 128,-1,41
 808 1040 808 1040 808 1166 c 0,42,43
 808 1294 808 1294 724 1376 c 128,-1,44
 640 1458 640 1458 520 1458 c 256,45,46
 400 1458 400 1458 313 1376 c 128,-1,47
 226 1294 226 1294 226 1166 c 0,36,37
408 -10 m 1,48,-1
 1484 1480 l 1,49,-1
 1554 1480 l 1,50,-1
 476 -10 l 1,51,-1
 408 -10 l 1,48,-1
EndSplineSet
EndChar

StartChar: ampersand
Encoding: 38 38 9
Width: 1296
GlyphClass: 2
Flags: W
LayerCount: 2
Fore
SplineSet
226 362 m 0,0,1
 226 212 226 212 329 112 c 128,-1,2
 432 12 432 12 588 12 c 0,3,4
 724 12 724 12 834 84 c 128,-1,5
 944 156 944 156 1010 262 c 1,6,-1
 572 822 l 1,7,8
 226 638 226 638 226 362 c 0,0,1
162 360 m 0,9,10
 162 540 162 540 266 660 c 128,-1,11
 370 780 370 780 536 872 c 1,12,13
 480 950 480 950 454 991 c 128,-1,14
 428 1032 428 1032 398 1097 c 128,-1,15
 368 1162 368 1162 368 1210 c 0,16,17
 368 1328 368 1328 456 1409 c 128,-1,18
 544 1490 544 1490 698 1490 c 0,19,20
 826 1490 826 1490 919 1424 c 128,-1,21
 1012 1358 1012 1358 1056 1264 c 1,22,-1
 1002 1244 l 1,23,24
 964 1320 964 1320 883 1378 c 128,-1,25
 802 1436 802 1436 700 1436 c 0,26,27
 578 1436 578 1436 505 1369 c 128,-1,28
 432 1302 432 1302 432 1212 c 0,29,30
 432 1168 432 1168 467 1098 c 128,-1,31
 502 1028 502 1028 574 926 c 128,-1,32
 646 824 646 824 710 742 c 128,-1,33
 774 660 774 660 882 524 c 128,-1,34
 990 388 990 388 1044 318 c 1,35,36
 1126 468 1126 468 1148 668 c 1,37,-1
 1208 660 l 1,38,39
 1184 440 1184 440 1088 264 c 1,40,-1
 1294 0 l 1,41,-1
 1218 0 l 1,42,-1
 1050 212 l 1,43,44
 986 110 986 110 867 35 c 128,-1,45
 748 -40 748 -40 586 -40 c 0,46,47
 392 -40 392 -40 277 75 c 128,-1,48
 162 190 162 190 162 360 c 0,9,10
EndSplineSet
EndChar

StartChar: quotesingle
Encoding: 39 39 10
Width: 526
GlyphClass: 2
Flags: W
LayerCount: 2
Fore
SplineSet
144 1120 m 1,0,-1
 322 1672 l 1,1,-1
 436 1672 l 1,2,-1
 202 1120 l 1,3,-1
 144 1120 l 1,0,-1
EndSplineSet
EndChar

StartChar: parenleft
Encoding: 40 40 11
Width: 944
GlyphClass: 2
Flags: W
LayerCount: 2
Fore
SplineSet
368 698 m 0,0,1
 368 1304 368 1304 716 1724 c 1,2,-1
 760 1698 l 1,3,4
 694 1610 694 1610 646 1529 c 128,-1,5
 598 1448 598 1448 544 1323 c 128,-1,6
 490 1198 490 1198 461 1039 c 128,-1,7
 432 880 432 880 432 698 c 0,8,9
 432 506 432 506 464 340 c 128,-1,10
 496 174 496 174 562 39 c 128,-1,11
 628 -96 628 -96 660 -149 c 128,-1,12
 692 -202 692 -202 760 -298 c 1,13,-1
 716 -322 l 1,14,15
 368 102 368 102 368 698 c 0,0,1
EndSplineSet
Substitution2: "'sups' Superscript lookup 5 subtable" uni207D
Substitution2: "'aalt' Access All Alternates lookup 0 subtable" uni207D
EndChar

StartChar: parenright
Encoding: 41 41 12
Width: 944
GlyphClass: 2
Flags: W
LayerCount: 2
Fore
SplineSet
182 -298 m 1,0,1
 238 -220 238 -220 264 -182 c 128,-1,2
 290 -144 290 -144 347 -37 c 128,-1,3
 404 70 404 70 433 163 c 128,-1,4
 462 256 462 256 488 400 c 128,-1,5
 514 544 514 544 514 698 c 0,6,7
 514 880 514 880 485 1037 c 128,-1,8
 456 1194 456 1194 402 1318 c 128,-1,9
 348 1442 348 1442 299 1525 c 128,-1,10
 250 1608 250 1608 182 1698 c 1,11,-1
 228 1724 l 1,12,13
 576 1304 576 1304 576 698 c 0,14,15
 576 106 576 106 228 -322 c 1,16,-1
 182 -298 l 1,0,1
EndSplineSet
Substitution2: "'sups' Superscript lookup 5 subtable" uni207E
Substitution2: "'aalt' Access All Alternates lookup 0 subtable" uni207E
EndChar

StartChar: asterisk
Encoding: 42 42 13
Width: 1126
GlyphClass: 2
Flags: W
LayerCount: 2
Fore
SplineSet
86 868 m 1,0,-1
 108 928 l 1,1,-1
 540 766 l 1,2,-1
 528 1192 l 1,3,-1
 602 1192 l 1,4,-1
 590 766 l 1,5,-1
 1022 928 l 1,6,-1
 1046 868 l 1,7,-1
 606 714 l 1,8,-1
 938 338 l 1,9,-1
 884 296 l 1,10,-1
 564 678 l 1,11,-1
 248 298 l 1,12,-1
 194 338 l 1,13,-1
 524 714 l 1,14,-1
 86 868 l 1,0,-1
EndSplineSet
EndChar

StartChar: plus
Encoding: 43 43 14
Width: 1126
GlyphClass: 2
Flags: W
LayerCount: 2
Fore
SplineSet
76 696 m 1,0,-1
 76 750 l 1,1,-1
 536 750 l 1,2,-1
 536 1192 l 1,3,-1
 594 1192 l 1,4,-1
 594 750 l 1,5,-1
 1050 750 l 1,6,-1
 1050 696 l 1,7,-1
 594 696 l 1,8,-1
 594 238 l 1,9,-1
 536 238 l 1,10,-1
 536 696 l 1,11,-1
 76 696 l 1,0,-1
EndSplineSet
Substitution2: "'sups' Superscript lookup 5 subtable" uni207A
Substitution2: "'aalt' Access All Alternates lookup 0 subtable" uni207A
EndChar

StartChar: comma
Encoding: 44 44 15
Width: 550
GlyphClass: 2
Flags: W
LayerCount: 2
Fore
SplineSet
68 -380 m 1,0,-1
 248 168 l 1,1,-1
 360 168 l 1,2,-1
 124 -380 l 1,3,-1
 68 -380 l 1,0,-1
EndSplineSet
EndChar

StartChar: hyphen
Encoding: 45 45 16
Width: 788
GlyphClass: 2
Flags: W
LayerCount: 2
Fore
SplineSet
82 696 m 1,0,-1
 82 750 l 1,1,-1
 710 750 l 1,2,-1
 710 696 l 1,3,-1
 82 696 l 1,0,-1
EndSplineSet
EndChar

StartChar: period
Encoding: 46 46 17
Width: 550
GlyphClass: 2
Flags: W
LayerCount: 2
Fore
SplineSet
192 0 m 1,0,-1
 192 168 l 1,1,-1
 362 168 l 1,2,-1
 362 0 l 1,3,-1
 192 0 l 1,0,-1
EndSplineSet
EndChar

StartChar: slash
Encoding: 47 47 18
Width: 628
GlyphClass: 2
Flags: W
LayerCount: 2
Fore
SplineSet
-14 -136 m 1,0,-1
 580 1590 l 1,1,-1
 644 1590 l 1,2,-1
 50 -136 l 1,3,-1
 -14 -136 l 1,0,-1
EndSplineSet
EndChar

StartChar: zero
Encoding: 48 48 19
Width: 1100
GlyphClass: 2
Flags: W
LayerCount: 2
Fore
SplineSet
180 736 m 0,0,1
 180 398 180 398 275 206 c 128,-1,2
 370 14 370 14 554 14 c 0,3,4
 654 14 654 14 728 72 c 128,-1,5
 802 130 802 130 843 233 c 128,-1,6
 884 336 884 336 904 461 c 128,-1,7
 924 586 924 586 924 736 c 0,8,9
 924 1080 924 1080 828 1268 c 128,-1,10
 732 1456 732 1456 550 1456 c 0,11,12
 372 1456 372 1456 276 1272 c 128,-1,13
 180 1088 180 1088 180 736 c 0,0,1
114 736 m 0,14,15
 114 1122 114 1122 233 1316 c 128,-1,16
 352 1510 352 1510 550 1510 c 0,17,18
 750 1510 750 1510 869 1315 c 128,-1,19
 988 1120 988 1120 988 736 c 0,20,21
 988 578 988 578 964 444 c 128,-1,22
 940 310 940 310 891 199 c 128,-1,23
 842 88 842 88 756 25 c 128,-1,24
 670 -38 670 -38 554 -38 c 0,25,26
 346 -38 346 -38 230 166 c 128,-1,27
 114 370 114 370 114 736 c 0,14,15
EndSplineSet
EndChar

StartChar: one
Encoding: 49 49 20
Width: 1100
GlyphClass: 2
Flags: W
LayerCount: 2
Fore
SplineSet
236 1224 m 1,0,-1
 236 1272 l 1,1,-1
 314 1272 l 2,2,3
 462 1272 462 1272 510 1302 c 128,-1,4
 558 1332 558 1332 558 1428 c 2,5,-1
 558 1470 l 1,6,-1
 612 1470 l 1,7,-1
 612 0 l 1,8,-1
 548 0 l 1,9,-1
 548 1224 l 1,10,-1
 236 1224 l 1,0,-1
EndSplineSet
Substitution2: "'subs' Subscript lookup 6 subtable" uni2081
Substitution2: "'sups' Superscript lookup 5 subtable" onesuperior
Substitution2: "'sinf' Scientific Inferiors lookup 4 subtable" uni2081
AlternateSubs2: "'aalt' Access All Alternates lookup 1 subtable" uni2081 onesuperior
EndChar

StartChar: two
Encoding: 50 50 21
Width: 1100
GlyphClass: 2
Flags: W
LayerCount: 2
Fore
SplineSet
112 1172 m 1,0,1
 214 1510 214 1510 550 1510 c 0,2,3
 726 1510 726 1510 840 1407 c 128,-1,4
 954 1304 954 1304 954 1116 c 0,5,6
 954 896 954 896 724 680 c 0,7,8
 438 416 438 416 327 289 c 128,-1,9
 216 162 216 162 190 52 c 1,10,-1
 954 52 l 1,11,-1
 954 0 l 1,12,-1
 114 0 l 1,13,14
 114 48 114 48 130 98 c 128,-1,15
 146 148 146 148 193 212 c 128,-1,16
 240 276 240 276 272 318 c 128,-1,17
 304 360 304 360 390 445 c 128,-1,18
 476 530 476 530 515 565 c 128,-1,19
 554 600 554 600 666 706 c 0,20,21
 890 922 890 922 890 1118 c 0,22,23
 890 1282 890 1282 797 1369 c 128,-1,24
 704 1456 704 1456 544 1456 c 0,25,26
 398 1456 398 1456 302 1375 c 128,-1,27
 206 1294 206 1294 172 1158 c 1,28,-1
 112 1172 l 1,0,1
EndSplineSet
Substitution2: "'subs' Subscript lookup 6 subtable" uni2082
Substitution2: "'sups' Superscript lookup 5 subtable" twosuperior
Substitution2: "'sinf' Scientific Inferiors lookup 4 subtable" uni2082
AlternateSubs2: "'aalt' Access All Alternates lookup 1 subtable" uni2082 twosuperior
EndChar

StartChar: three
Encoding: 51 51 22
Width: 1100
GlyphClass: 2
Flags: W
LayerCount: 2
Fore
SplineSet
86 206 m 1,0,-1
 142 234 l 1,1,2
 200 138 200 138 297 76 c 128,-1,3
 394 14 394 14 516 14 c 0,4,5
 688 14 688 14 804 111 c 128,-1,6
 920 208 920 208 920 398 c 0,7,8
 920 576 920 576 798 666 c 128,-1,9
 676 756 676 756 504 756 c 0,10,11
 422 756 422 756 402 754 c 1,12,-1
 402 810 l 1,13,14
 418 808 418 808 496 808 c 0,15,16
 658 808 658 808 759 899 c 128,-1,17
 860 990 860 990 860 1144 c 0,18,19
 860 1280 860 1280 766 1368 c 128,-1,20
 672 1456 672 1456 520 1456 c 0,21,22
 300 1456 300 1456 186 1222 c 1,23,-1
 128 1244 l 1,24,25
 252 1510 252 1510 522 1510 c 0,26,27
 708 1510 708 1510 815 1405 c 128,-1,28
 922 1300 922 1300 922 1146 c 0,29,30
 922 1004 922 1004 842 911 c 128,-1,31
 762 818 762 818 654 788 c 1,32,33
 786 764 786 764 885 666 c 128,-1,34
 984 568 984 568 984 398 c 0,35,36
 984 186 984 186 854 74 c 128,-1,37
 724 -38 724 -38 518 -38 c 0,38,39
 240 -38 240 -38 86 206 c 1,0,-1
EndSplineSet
Substitution2: "'subs' Subscript lookup 6 subtable" uni2083
Substitution2: "'sups' Superscript lookup 5 subtable" threesuperior
Substitution2: "'sinf' Scientific Inferiors lookup 4 subtable" uni2083
AlternateSubs2: "'aalt' Access All Alternates lookup 1 subtable" uni2083 threesuperior
EndChar

StartChar: four
Encoding: 52 52 23
Width: 1100
GlyphClass: 2
Flags: W
LayerCount: 2
Fore
SplineSet
46 422 m 1,0,-1
 752 1470 l 5,1,-1
 822 1470 l 5,2,-1
 822 424 l 1,3,-1
 1070 424 l 1,4,-1
 1070 372 l 1,5,-1
 822 372 l 1,6,-1
 822 0 l 1,7,-1
 762 0 l 1,8,-1
 762 372 l 1,9,-1
 46 372 l 1,10,-1
 46 422 l 1,0,-1
110 424 m 1,11,-1
 762 424 l 1,12,-1
 762 1140 l 6,13,14
 762 1314 762 1314 764 1386 c 5,15,-1
 760 1386 l 5,16,-1
 632 1186 l 5,17,-1
 110 424 l 1,11,-1
EndSplineSet
Substitution2: "'subs' Subscript lookup 6 subtable" uni2084
Substitution2: "'sups' Superscript lookup 5 subtable" uni2074
Substitution2: "'sinf' Scientific Inferiors lookup 4 subtable" uni2084
AlternateSubs2: "'aalt' Access All Alternates lookup 1 subtable" uni2084 uni2074
EndChar

StartChar: five
Encoding: 53 53 24
Width: 1100
GlyphClass: 2
Flags: W
LayerCount: 2
Fore
SplineSet
104 198 m 1,0,-1
 156 224 l 1,1,2
 212 128 212 128 305 71 c 128,-1,3
 398 14 398 14 504 14 c 0,4,5
 684 14 684 14 788 132 c 128,-1,6
 892 250 892 250 892 422 c 0,7,8
 892 608 892 608 787 719 c 128,-1,9
 682 830 682 830 508 830 c 0,10,11
 426 830 426 830 335 798 c 128,-1,12
 244 766 244 766 180 702 c 1,13,-1
 144 716 l 1,14,-1
 220 1470 l 1,15,-1
 864 1470 l 1,16,-1
 864 1418 l 1,17,-1
 278 1418 l 1,18,-1
 208 788 l 1,19,20
 348 884 348 884 528 884 c 0,21,22
 716 884 716 884 836 757 c 128,-1,23
 956 630 956 630 956 422 c 0,24,25
 956 228 956 228 836 95 c 128,-1,26
 716 -38 716 -38 504 -38 c 0,27,28
 374 -38 374 -38 270 24 c 128,-1,29
 166 86 166 86 104 198 c 1,0,-1
EndSplineSet
EndChar

StartChar: six
Encoding: 54 54 25
Width: 1100
GlyphClass: 2
Flags: W
LayerCount: 2
Fore
SplineSet
192 444 m 0,0,1
 192 264 192 264 295 139 c 128,-1,2
 398 14 398 14 568 14 c 0,3,4
 730 14 730 14 837 138 c 128,-1,5
 944 262 944 262 944 444 c 0,6,7
 944 632 944 632 836 757 c 128,-1,8
 728 882 728 882 564 882 c 0,9,10
 402 882 402 882 297 755 c 128,-1,11
 192 628 192 628 192 444 c 0,0,1
112 642 m 0,12,13
 112 798 112 798 137 942 c 128,-1,14
 162 1086 162 1086 217 1218 c 128,-1,15
 272 1350 272 1350 377 1430 c 128,-1,16
 482 1510 482 1510 624 1510 c 0,17,18
 850 1510 850 1510 980 1288 c 1,19,-1
 928 1262 l 1,20,21
 812 1456 812 1456 624 1456 c 0,22,23
 510 1456 510 1456 424 1393 c 128,-1,24
 338 1330 338 1330 291 1225 c 128,-1,25
 244 1120 244 1120 220 1021 c 128,-1,26
 196 922 196 922 186 808 c 0,27,28
 180 744 180 744 176 614 c 1,29,30
 210 756 210 756 314 845 c 128,-1,31
 418 934 418 934 574 934 c 0,32,33
 766 934 766 934 886 793 c 128,-1,34
 1006 652 1006 652 1006 448 c 0,35,36
 1006 246 1006 246 888 104 c 128,-1,37
 770 -38 770 -38 574 -38 c 0,38,39
 392 -38 392 -38 278 72 c 0,40,41
 188 158 188 158 150 295 c 128,-1,42
 112 432 112 432 112 642 c 0,12,13
EndSplineSet
EndChar

StartChar: seven
Encoding: 55 55 26
Width: 1100
GlyphClass: 2
Flags: W
LayerCount: 2
Fore
SplineSet
70 1416 m 1,0,-1
 70 1470 l 1,1,-1
 952 1470 l 1,2,-1
 952 1424 l 1,3,4
 722 1036 722 1036 588 732 c 128,-1,5
 454 428 454 428 358 0 c 1,6,-1
 296 0 l 1,7,8
 396 448 396 448 530 746 c 128,-1,9
 664 1044 664 1044 878 1416 c 1,10,-1
 70 1416 l 1,0,-1
EndSplineSet
EndChar

StartChar: eight
Encoding: 56 56 27
Width: 1100
GlyphClass: 2
Flags: W
LayerCount: 2
Fore
SplineSet
206 1140 m 0,0,1
 206 998 206 998 311 909 c 128,-1,2
 416 820 416 820 550 820 c 0,3,4
 686 820 686 820 790 913 c 128,-1,5
 894 1006 894 1006 894 1140 c 0,6,7
 894 1282 894 1282 793 1369 c 128,-1,8
 692 1456 692 1456 550 1456 c 0,9,10
 398 1456 398 1456 302 1364 c 128,-1,11
 206 1272 206 1272 206 1140 c 0,0,1
92 380 m 0,12,13
 92 546 92 546 185 651 c 128,-1,14
 278 756 278 756 416 794 c 1,15,16
 298 832 298 832 221 918 c 128,-1,17
 144 1004 144 1004 144 1144 c 0,18,19
 144 1294 144 1294 257 1402 c 128,-1,20
 370 1510 370 1510 550 1510 c 0,21,22
 724 1510 724 1510 840 1404 c 128,-1,23
 956 1298 956 1298 956 1144 c 0,24,25
 956 1006 956 1006 876 917 c 128,-1,26
 796 828 796 828 688 794 c 1,27,28
 828 756 828 756 920 650 c 128,-1,29
 1012 544 1012 544 1012 376 c 0,30,31
 1012 200 1012 200 879 81 c 128,-1,32
 746 -38 746 -38 550 -38 c 0,33,34
 356 -38 356 -38 224 79 c 128,-1,35
 92 196 92 196 92 380 c 0,12,13
154 384 m 0,36,37
 154 224 154 224 269 119 c 128,-1,38
 384 14 384 14 550 14 c 0,39,40
 720 14 720 14 834 119 c 128,-1,41
 948 224 948 224 948 384 c 0,42,43
 948 550 948 550 831 659 c 128,-1,44
 714 768 714 768 550 768 c 0,45,46
 390 768 390 768 272 661 c 128,-1,47
 154 554 154 554 154 384 c 0,36,37
EndSplineSet
EndChar

StartChar: nine
Encoding: 57 57 28
Width: 1100
GlyphClass: 2
Flags: W
LayerCount: 2
Fore
SplineSet
150 1028 m 0,0,1
 150 834 150 834 262 714 c 128,-1,2
 374 594 374 594 528 594 c 0,3,4
 680 594 680 594 791 718 c 128,-1,5
 902 842 902 842 902 1026 c 0,6,7
 902 1208 902 1208 796 1332 c 128,-1,8
 690 1456 690 1456 528 1456 c 256,9,10
 366 1456 366 1456 258 1334 c 128,-1,11
 150 1212 150 1212 150 1028 c 0,0,1
114 196 m 1,12,-1
 172 222 l 1,13,14
 216 128 216 128 302 71 c 128,-1,15
 388 14 388 14 494 14 c 0,16,17
 902 14 902 14 912 826 c 1,18,19
 874 714 874 714 770 627 c 128,-1,20
 666 540 666 540 522 540 c 0,21,22
 342 540 342 540 215 673 c 128,-1,23
 88 806 88 806 88 1026 c 0,24,25
 88 1236 88 1236 210 1373 c 128,-1,26
 332 1510 332 1510 528 1510 c 0,27,28
 700 1510 700 1510 808 1408 c 128,-1,29
 916 1306 916 1306 950 1150 c 0,30,31
 972 1056 972 1056 972 812 c 0,32,33
 972 -38 972 -38 492 -38 c 0,34,35
 356 -38 356 -38 261 30 c 128,-1,36
 166 98 166 98 114 196 c 1,12,-1
EndSplineSet
EndChar

StartChar: colon
Encoding: 58 58 29
Width: 550
GlyphClass: 2
Flags: W
LayerCount: 2
Fore
SplineSet
192 0 m 1,0,-1
 192 170 l 1,1,-1
 362 170 l 1,2,-1
 362 0 l 1,3,-1
 192 0 l 1,0,-1
192 774 m 1,4,-1
 192 944 l 1,5,-1
 362 944 l 1,6,-1
 362 774 l 1,7,-1
 192 774 l 1,4,-1
EndSplineSet
EndChar

StartChar: semicolon
Encoding: 59 59 30
Width: 550
GlyphClass: 2
Flags: W
LayerCount: 2
Fore
SplineSet
68 -380 m 1,0,-1
 248 170 l 1,1,-1
 360 170 l 1,2,-1
 124 -380 l 1,3,-1
 68 -380 l 1,0,-1
184 774 m 1,4,-1
 184 944 l 1,5,-1
 354 944 l 1,6,-1
 354 774 l 1,7,-1
 184 774 l 1,4,-1
EndSplineSet
EndChar

StartChar: less
Encoding: 60 60 31
Width: 1126
GlyphClass: 2
Flags: W
LayerCount: 2
Fore
SplineSet
158 680 m 1,0,-1
 158 736 l 1,1,-1
 976 1378 l 1,2,-1
 1010 1332 l 1,3,-1
 216 706 l 1,4,-1
 1010 84 l 1,5,-1
 976 40 l 1,6,-1
 158 680 l 1,0,-1
EndSplineSet
EndChar

StartChar: equal
Encoding: 61 61 32
Width: 1126
GlyphClass: 2
Flags: W
LayerCount: 2
Fore
SplineSet
116 514 m 1,0,-1
 116 566 l 1,1,-1
 1014 566 l 1,2,-1
 1014 514 l 1,3,-1
 116 514 l 1,0,-1
116 884 m 1,4,-1
 116 938 l 1,5,-1
 1014 938 l 1,6,-1
 1014 884 l 1,7,-1
 116 884 l 1,4,-1
EndSplineSet
Substitution2: "'sups' Superscript lookup 5 subtable" uni207C
Substitution2: "'aalt' Access All Alternates lookup 0 subtable" uni207C
EndChar

StartChar: greater
Encoding: 62 62 33
Width: 1126
GlyphClass: 2
Flags: W
LayerCount: 2
Fore
SplineSet
154 40 m 1,0,-1
 120 84 l 1,1,-1
 910 706 l 1,2,-1
 120 1332 l 1,3,-1
 154 1378 l 1,4,-1
 970 736 l 1,5,-1
 970 680 l 1,6,-1
 154 40 l 1,0,-1
EndSplineSet
EndChar

StartChar: question
Encoding: 63 63 34
Width: 1086
GlyphClass: 2
Flags: W
LayerCount: 2
Fore
SplineSet
148 1228 m 1,0,1
 206 1364 206 1364 312 1437 c 128,-1,2
 418 1510 418 1510 540 1510 c 0,3,4
 718 1510 718 1510 817 1406 c 128,-1,5
 916 1302 916 1302 916 1130 c 0,6,7
 916 1038 916 1038 878 964 c 128,-1,8
 840 890 840 890 786 838 c 128,-1,9
 732 786 732 786 677 733 c 128,-1,10
 622 680 622 680 583 604 c 128,-1,11
 544 528 544 528 544 434 c 2,12,-1
 544 402 l 1,13,-1
 482 402 l 1,14,-1
 482 436 l 2,15,16
 482 538 482 538 521 619 c 128,-1,17
 560 700 560 700 614 752 c 128,-1,18
 668 804 668 804 722 855 c 128,-1,19
 776 906 776 906 814 974 c 128,-1,20
 852 1042 852 1042 852 1126 c 0,21,22
 852 1274 852 1274 770 1365 c 128,-1,23
 688 1456 688 1456 540 1456 c 0,24,25
 320 1456 320 1456 202 1206 c 1,26,-1
 148 1228 l 1,0,1
426 -16 m 1,27,-1
 426 152 l 1,28,-1
 598 152 l 1,29,-1
 598 -16 l 1,30,-1
 426 -16 l 1,27,-1
EndSplineSet
EndChar

StartChar: at
Encoding: 64 64 35
Width: 1942
GlyphClass: 2
Flags: W
LayerCount: 2
Fore
SplineSet
144 686 m 256,0,1
 144 1050 144 1050 386 1282 c 128,-1,2
 628 1514 628 1514 1020 1514 c 0,3,4
 1374 1514 1374 1514 1589 1313 c 128,-1,5
 1804 1112 1804 1112 1804 790 c 0,6,7
 1804 518 1804 518 1705 383 c 128,-1,8
 1606 248 1606 248 1460 248 c 0,9,10
 1366 248 1366 248 1301 319 c 128,-1,11
 1236 390 1236 390 1236 506 c 1,12,-1
 1232 506 l 1,13,14
 1198 410 1198 410 1106 330 c 128,-1,15
 1014 250 1014 250 888 250 c 0,16,17
 752 250 752 250 664 353 c 128,-1,18
 576 456 576 456 576 622 c 0,19,20
 576 844 576 844 698 976 c 128,-1,21
 820 1108 820 1108 984 1108 c 0,22,23
 1094 1108 1094 1108 1157 1058 c 128,-1,24
 1220 1008 1220 1008 1246 952 c 1,25,-1
 1254 1090 l 1,26,-1
 1306 1090 l 1,27,-1
 1282 562 l 2,28,29
 1282 552 1282 552 1282 544 c 0,30,31
 1282 432 1282 432 1330 367 c 128,-1,32
 1378 302 1378 302 1464 302 c 0,33,34
 1592 302 1592 302 1669 430 c 128,-1,35
 1746 558 1746 558 1746 784 c 0,36,37
 1746 1082 1746 1082 1552 1272 c 128,-1,38
 1358 1462 1358 1462 1016 1462 c 0,39,40
 666 1462 666 1462 434 1249 c 128,-1,41
 202 1036 202 1036 202 686 c 256,42,43
 202 336 202 336 421 127 c 128,-1,44
 640 -82 640 -82 990 -82 c 0,45,46
 1232 -82 1232 -82 1438 -18 c 1,47,-1
 1452 -66 l 1,48,49
 1236 -130 1236 -130 990 -130 c 0,50,51
 610 -130 610 -130 377 96 c 128,-1,52
 144 322 144 322 144 686 c 256,0,1
634 620 m 0,53,54
 634 478 634 478 707 391 c 128,-1,55
 780 304 780 304 890 304 c 0,56,57
 942 304 942 304 995 326 c 128,-1,58
 1048 348 1048 348 1105 398 c 128,-1,59
 1162 448 1162 448 1197 548 c 128,-1,60
 1232 648 1232 648 1232 788 c 0,61,62
 1232 890 1232 890 1171 973 c 128,-1,63
 1110 1056 1110 1056 980 1056 c 0,64,65
 848 1056 848 1056 741 941 c 128,-1,66
 634 826 634 826 634 620 c 0,53,54
EndSplineSet
EndChar

StartChar: A
Encoding: 65 65 36
Width: 1242
GlyphClass: 2
Flags: W
LayerCount: 2
Fore
SplineSet
284 538 m 1,0,-1
 958 538 l 1,1,-1
 704 1200 l 2,2,3
 690 1240 690 1240 662 1311 c 128,-1,4
 634 1382 634 1382 624 1412 c 1,5,-1
 620 1412 l 1,6,7
 558 1246 558 1246 540 1200 c 2,8,-1
 284 538 l 1,0,-1
6 0 m 1,9,-1
 580 1470 l 1,10,-1
 664 1470 l 1,11,-1
 1238 0 l 1,12,-1
 1164 0 l 1,13,-1
 980 486 l 1,14,-1
 264 486 l 1,15,-1
 76 0 l 1,16,-1
 6 0 l 1,9,-1
EndSplineSet
Substitution2: "Single Substitution lookup 12 subtable" ordfeminine
EndChar

StartChar: B
Encoding: 66 66 37
Width: 1366
GlyphClass: 2
Flags: W
LayerCount: 2
Fore
SplineSet
256 0 m 1,0,-1
 256 1470 l 1,1,-1
 772 1470 l 2,2,3
 970 1470 970 1470 1078 1368 c 128,-1,4
 1186 1266 1186 1266 1186 1106 c 0,5,6
 1186 968 1186 968 1112 882 c 128,-1,7
 1038 796 1038 796 930 768 c 1,8,9
 1064 736 1064 736 1155 634 c 128,-1,10
 1246 532 1246 532 1246 396 c 0,11,12
 1246 220 1246 220 1129 110 c 128,-1,13
 1012 0 1012 0 830 0 c 2,14,-1
 256 0 l 1,0,-1
316 54 m 1,15,-1
 816 54 l 2,16,17
 978 54 978 54 1081 151 c 128,-1,18
 1184 248 1184 248 1184 390 c 0,19,20
 1184 536 1184 536 1074 635 c 128,-1,21
 964 734 964 734 802 734 c 2,22,-1
 316 734 l 1,23,-1
 316 54 l 1,15,-1
316 786 m 1,24,-1
 750 786 l 2,25,26
 908 786 908 786 1016 867 c 128,-1,27
 1124 948 1124 948 1124 1104 c 0,28,29
 1124 1236 1124 1236 1034 1326 c 128,-1,30
 944 1416 944 1416 766 1416 c 2,31,-1
 316 1416 l 1,32,-1
 316 786 l 1,24,-1
EndSplineSet
EndChar

StartChar: C
Encoding: 67 67 38
Width: 1266
GlyphClass: 2
Flags: W
LayerCount: 2
Fore
SplineSet
128 736 m 0,0,1
 128 1100 128 1100 293 1305 c 128,-1,2
 458 1510 458 1510 724 1510 c 0,3,4
 888 1510 888 1510 996 1421 c 128,-1,5
 1104 1332 1104 1332 1150 1222 c 1,6,-1
 1096 1198 l 1,7,8
 1048 1304 1048 1304 954 1379 c 128,-1,9
 860 1454 860 1454 724 1454 c 0,10,11
 482 1454 482 1454 338 1258 c 128,-1,12
 194 1062 194 1062 194 736 c 0,13,14
 194 404 194 404 341 210 c 128,-1,15
 488 16 488 16 724 16 c 0,16,17
 872 16 872 16 975 92 c 128,-1,18
 1078 168 1078 168 1134 286 c 1,19,-1
 1190 266 l 1,20,21
 1046 -38 1046 -38 724 -38 c 0,22,23
 456 -38 456 -38 292 169 c 128,-1,24
 128 376 128 376 128 736 c 0,0,1
EndSplineSet
EndChar

StartChar: D
Encoding: 68 68 39
Width: 1380
GlyphClass: 2
Flags: W
LayerCount: 2
Fore
SplineSet
256 0 m 1,0,-1
 256 1470 l 1,1,-1
 618 1470 l 2,2,3
 922 1470 922 1470 1099 1288 c 128,-1,4
 1276 1106 1276 1106 1276 736 c 0,5,6
 1276 370 1276 370 1101 185 c 128,-1,7
 926 0 926 0 620 0 c 2,8,-1
 256 0 l 1,0,-1
316 54 m 1,9,-1
 590 54 l 2,10,11
 880 54 880 54 1046 217 c 128,-1,12
 1212 380 1212 380 1212 736 c 0,13,14
 1212 1416 1212 1416 594 1416 c 2,15,-1
 316 1416 l 1,16,-1
 316 54 l 1,9,-1
EndSplineSet
EndChar

StartChar: E
Encoding: 69 69 40
Width: 1244
GlyphClass: 2
Flags: W
LayerCount: 2
Fore
SplineSet
256 0 m 1,0,-1
 256 1470 l 1,1,-1
 1130 1470 l 1,2,-1
 1130 1416 l 1,3,-1
 316 1416 l 1,4,-1
 316 790 l 1,5,-1
 1052 790 l 1,6,-1
 1052 738 l 1,7,-1
 316 738 l 1,8,-1
 316 54 l 1,9,-1
 1158 54 l 1,10,-1
 1158 0 l 1,11,-1
 256 0 l 1,0,-1
EndSplineSet
EndChar

StartChar: F
Encoding: 70 70 41
Width: 1188
GlyphClass: 2
Flags: W
LayerCount: 2
Fore
SplineSet
256 0 m 1,0,-1
 256 1470 l 1,1,-1
 1094 1470 l 1,2,-1
 1094 1416 l 1,3,-1
 316 1416 l 1,4,-1
 316 770 l 1,5,-1
 1016 770 l 1,6,-1
 1016 718 l 1,7,-1
 316 718 l 1,8,-1
 316 0 l 1,9,-1
 256 0 l 1,0,-1
EndSplineSet
EndChar

StartChar: G
Encoding: 71 71 42
Width: 1436
GlyphClass: 2
Flags: W
LayerCount: 2
Fore
SplineSet
128 736 m 0,0,1
 128 1086 128 1086 289 1298 c 128,-1,2
 450 1510 450 1510 742 1510 c 0,3,4
 906 1510 906 1510 1020 1428 c 128,-1,5
 1134 1346 1134 1346 1188 1236 c 1,6,-1
 1136 1214 l 1,7,8
 1006 1454 1006 1454 742 1454 c 0,9,10
 480 1454 480 1454 337 1255 c 128,-1,11
 194 1056 194 1056 194 736 c 0,12,13
 194 408 194 408 339 212 c 128,-1,14
 484 16 484 16 740 16 c 0,15,16
 896 16 896 16 1003 98 c 128,-1,17
 1110 180 1110 180 1154 297 c 128,-1,18
 1198 414 1198 414 1198 550 c 2,19,-1
 1198 702 l 1,20,-1
 720 702 l 1,21,-1
 720 756 l 1,22,-1
 1258 756 l 1,23,-1
 1258 0 l 1,24,-1
 1204 0 l 1,25,-1
 1202 304 l 1,26,27
 1160 158 1160 158 1047 60 c 128,-1,28
 934 -38 934 -38 738 -38 c 0,29,30
 450 -38 450 -38 289 172 c 128,-1,31
 128 382 128 382 128 736 c 0,0,1
EndSplineSet
EndChar

StartChar: H
Encoding: 72 72 43
Width: 1506
GlyphClass: 2
Flags: W
LayerCount: 2
Fore
SplineSet
256 0 m 1,0,-1
 256 1470 l 1,1,-1
 316 1470 l 1,2,-1
 316 786 l 1,3,-1
 1190 786 l 1,4,-1
 1190 1470 l 1,5,-1
 1252 1470 l 1,6,-1
 1252 0 l 1,7,-1
 1190 0 l 1,8,-1
 1190 734 l 1,9,-1
 316 734 l 1,10,-1
 316 0 l 1,11,-1
 256 0 l 1,0,-1
EndSplineSet
EndChar

StartChar: I
Encoding: 73 73 44
Width: 572
GlyphClass: 2
Flags: W
LayerCount: 2
Fore
SplineSet
256 0 m 1,0,-1
 256 1470 l 1,1,-1
 316 1470 l 1,2,-1
 316 0 l 1,3,-1
 256 0 l 1,0,-1
EndSplineSet
EndChar

StartChar: J
Encoding: 74 74 45
Width: 980
GlyphClass: 2
Flags: W
LayerCount: 2
Fore
SplineSet
48 188 m 1,0,-1
 106 210 l 1,1,2
 146 116 146 116 216 66 c 128,-1,3
 286 16 286 16 360 16 c 0,4,5
 366 16 366 16 372 16 c 0,6,7
 664 24 664 24 664 414 c 2,8,-1
 664 1470 l 1,9,-1
 726 1470 l 1,10,-1
 726 392 l 2,11,12
 726 -38 726 -38 376 -38 c 0,13,14
 146 -38 146 -38 48 188 c 1,0,-1
EndSplineSet
EndChar

StartChar: K
Encoding: 75 75 46
Width: 1266
GlyphClass: 2
Flags: W
LayerCount: 2
Fore
SplineSet
256 0 m 1,0,-1
 256 1470 l 1,1,-1
 316 1470 l 1,2,-1
 316 562 l 1,3,-1
 320 562 l 1,4,-1
 1114 1470 l 1,5,-1
 1200 1470 l 1,6,-1
 648 842 l 1,7,-1
 1248 0 l 1,8,-1
 1166 0 l 1,9,-1
 606 794 l 1,10,-1
 316 466 l 1,11,-1
 316 0 l 1,12,-1
 256 0 l 1,0,-1
EndSplineSet
EndChar

StartChar: L
Encoding: 76 76 47
Width: 1078
GlyphClass: 2
Flags: W
LayerCount: 2
Fore
SplineSet
256 0 m 1,0,-1
 256 1470 l 1,1,-1
 316 1470 l 1,2,-1
 316 54 l 1,3,-1
 1054 54 l 1,4,-1
 1054 0 l 1,5,-1
 256 0 l 1,0,-1
EndSplineSet
EndChar

StartChar: M
Encoding: 77 77 48
Width: 1804
GlyphClass: 2
Flags: W
LayerCount: 2
Fore
SplineSet
256 0 m 1,0,-1
 256 1470 l 1,1,-1
 338 1470 l 1,2,-1
 764 528 l 2,3,4
 792 466 792 466 837 358 c 128,-1,5
 882 250 882 250 900 210 c 1,6,-1
 904 210 l 1,7,8
 924 252 924 252 969 361 c 128,-1,9
 1014 470 1014 470 1042 528 c 2,10,-1
 1466 1470 l 1,11,-1
 1552 1470 l 1,12,-1
 1552 0 l 1,13,-1
 1488 0 l 1,14,-1
 1488 1022 l 2,15,16
 1488 1142 1488 1142 1498 1386 c 1,17,-1
 1492 1386 l 1,18,-1
 936 136 l 1,19,-1
 872 136 l 1,20,-1
 314 1388 l 1,21,-1
 310 1388 l 1,22,23
 316 1290 316 1290 316 1022 c 2,24,-1
 316 0 l 1,25,-1
 256 0 l 1,0,-1
EndSplineSet
EndChar

StartChar: N
Encoding: 78 78 49
Width: 1524
GlyphClass: 2
Flags: W
LayerCount: 2
Fore
SplineSet
256 0 m 1,0,-1
 256 1470 l 1,1,-1
 332 1470 l 1,2,-1
 1212 86 l 1,3,-1
 1218 86 l 1,4,5
 1208 234 1208 234 1208 434 c 2,6,-1
 1208 1470 l 1,7,-1
 1272 1470 l 1,8,-1
 1272 0 l 1,9,-1
 1194 0 l 1,10,-1
 314 1384 l 1,11,-1
 310 1384 l 1,12,13
 316 1256 316 1256 316 996 c 2,14,-1
 316 0 l 1,15,-1
 256 0 l 1,0,-1
EndSplineSet
EndChar

StartChar: O
Encoding: 79 79 50
Width: 1404
GlyphClass: 2
Flags: W
LayerCount: 2
Fore
SplineSet
128 736 m 0,0,1
 128 1086 128 1086 282 1298 c 128,-1,2
 436 1510 436 1510 702 1510 c 256,3,4
 968 1510 968 1510 1121 1297 c 128,-1,5
 1274 1084 1274 1084 1274 734 c 0,6,7
 1274 386 1274 386 1121 174 c 128,-1,8
 968 -38 968 -38 702 -38 c 0,9,10
 434 -38 434 -38 281 175 c 128,-1,11
 128 388 128 388 128 736 c 0,0,1
194 736 m 0,12,13
 194 416 194 416 328 216 c 128,-1,14
 462 16 462 16 702 16 c 0,15,16
 940 16 940 16 1076 214 c 128,-1,17
 1212 412 1212 412 1212 734 c 0,18,19
 1212 1062 1212 1062 1074 1258 c 128,-1,20
 936 1454 936 1454 702 1454 c 0,21,22
 470 1454 470 1454 332 1259 c 128,-1,23
 194 1064 194 1064 194 736 c 0,12,13
EndSplineSet
Substitution2: "Single Substitution lookup 12 subtable" ordmasculine
EndChar

StartChar: P
Encoding: 80 80 51
Width: 1334
GlyphClass: 2
Flags: W
LayerCount: 2
Fore
SplineSet
256 0 m 1,0,-1
 256 1470 l 1,1,-1
 796 1470 l 2,2,3
 990 1470 990 1470 1110 1359 c 128,-1,4
 1230 1248 1230 1248 1230 1060 c 256,5,6
 1230 872 1230 872 1107 761 c 128,-1,7
 984 650 984 650 794 650 c 2,8,-1
 316 650 l 1,9,-1
 316 0 l 1,10,-1
 256 0 l 1,0,-1
316 700 m 1,11,-1
 774 700 l 2,12,13
 954 700 954 700 1060 793 c 128,-1,14
 1166 886 1166 886 1166 1060 c 0,15,16
 1166 1228 1166 1228 1060 1322 c 128,-1,17
 954 1416 954 1416 770 1416 c 2,18,-1
 316 1416 l 1,19,-1
 316 700 l 1,11,-1
EndSplineSet
EndChar

StartChar: Q
Encoding: 81 81 52
Width: 1402
GlyphClass: 2
Flags: W
LayerCount: 2
Fore
SplineSet
128 734 m 0,0,1
 128 1086 128 1086 282 1298 c 128,-1,2
 436 1510 436 1510 702 1510 c 0,3,4
 966 1510 966 1510 1120 1297 c 128,-1,5
 1274 1084 1274 1084 1274 734 c 256,6,7
 1274 384 1274 384 1120 174 c 0,8,9
 1104 150 1104 150 1086 130 c 1,10,-1
 1272 -66 l 1,11,-1
 1226 -104 l 1,12,-1
 1044 88 l 1,13,14
 906 -38 906 -38 702 -38 c 0,15,16
 436 -38 436 -38 282 173 c 128,-1,17
 128 384 128 384 128 734 c 0,0,1
704 442 m 1,18,-1
 750 484 l 1,19,-1
 1046 174 l 1,20,21
 1060 192 1060 192 1076 212 c 0,22,23
 1212 408 1212 408 1212 734 c 0,24,25
 1212 1064 1212 1064 1073 1259 c 128,-1,26
 934 1454 934 1454 702 1454 c 256,27,28
 470 1454 470 1454 332 1259 c 128,-1,29
 194 1064 194 1064 194 734 c 0,30,31
 194 410 194 410 330 213 c 128,-1,32
 466 16 466 16 702 16 c 0,33,34
 882 16 882 16 1004 128 c 1,35,-1
 704 442 l 1,18,-1
EndSplineSet
EndChar

StartChar: R
Encoding: 82 82 53
Width: 1342
GlyphClass: 2
Flags: W
LayerCount: 2
Fore
SplineSet
316 736 m 1,0,-1
 800 736 l 2,1,2
 978 736 978 736 1074 829 c 128,-1,3
 1170 922 1170 922 1170 1078 c 0,4,5
 1170 1222 1170 1222 1073 1319 c 128,-1,6
 976 1416 976 1416 782 1416 c 2,7,-1
 316 1416 l 1,8,-1
 316 736 l 1,0,-1
256 0 m 1,9,-1
 256 1470 l 1,10,-1
 802 1470 l 2,11,12
 1008 1470 1008 1470 1120 1359 c 128,-1,13
 1232 1248 1232 1248 1232 1080 c 0,14,15
 1232 904 1232 904 1138 812 c 128,-1,16
 1044 720 1044 720 936 700 c 1,17,18
 1102 638 1102 638 1160 396 c 0,19,20
 1166 370 1166 370 1180 317 c 128,-1,21
 1194 264 1194 264 1198 247 c 128,-1,22
 1202 230 1202 230 1212 193 c 128,-1,23
 1222 156 1222 156 1229 140 c 128,-1,24
 1236 124 1236 124 1246 96 c 128,-1,25
 1256 68 1256 68 1266 46 c 128,-1,26
 1276 24 1276 24 1292 0 c 1,27,-1
 1220 0 l 1,28,29
 1164 108 1164 108 1096 392 c 0,30,31
 1022 680 1022 680 786 680 c 2,32,-1
 316 680 l 1,33,-1
 316 0 l 1,34,-1
 256 0 l 1,9,-1
EndSplineSet
EndChar

StartChar: S
Encoding: 83 83 54
Width: 1230
GlyphClass: 2
Flags: W
LayerCount: 2
Fore
SplineSet
118 226 m 1,0,-1
 178 254 l 1,1,2
 246 148 246 148 364 82 c 128,-1,3
 482 16 482 16 626 16 c 0,4,5
 810 16 810 16 930 109 c 128,-1,6
 1050 202 1050 202 1050 366 c 0,7,8
 1050 430 1050 430 1024 482 c 128,-1,9
 998 534 998 534 964 568 c 128,-1,10
 930 602 930 602 865 636 c 128,-1,11
 800 670 800 670 752 687 c 128,-1,12
 704 704 704 704 624 732 c 0,13,14
 534 760 534 760 482 779 c 128,-1,15
 430 798 430 798 358 836 c 128,-1,16
 286 874 286 874 248 912 c 128,-1,17
 210 950 210 950 181 1010 c 128,-1,18
 152 1070 152 1070 152 1146 c 0,19,20
 152 1314 152 1314 277 1412 c 128,-1,21
 402 1510 402 1510 620 1510 c 0,22,23
 772 1510 772 1510 888 1441 c 128,-1,24
 1004 1372 1004 1372 1062 1274 c 1,25,-1
 1008 1252 l 1,26,27
 948 1344 948 1344 845 1399 c 128,-1,28
 742 1454 742 1454 614 1454 c 0,29,30
 426 1454 426 1454 320 1371 c 128,-1,31
 214 1288 214 1288 214 1146 c 0,32,33
 214 1084 214 1084 240 1032 c 128,-1,34
 266 980 266 980 302 945 c 128,-1,35
 338 910 338 910 404 877 c 128,-1,36
 470 844 470 844 519 826 c 128,-1,37
 568 808 568 808 650 782 c 0,38,39
 726 756 726 756 767 741 c 128,-1,40
 808 726 808 726 872 698 c 128,-1,41
 936 670 936 670 971 642 c 128,-1,42
 1006 614 1006 614 1044 573 c 128,-1,43
 1082 532 1082 532 1098 481 c 128,-1,44
 1114 430 1114 430 1114 368 c 0,45,46
 1114 176 1114 176 985 69 c 128,-1,47
 856 -38 856 -38 622 -38 c 0,48,49
 454 -38 454 -38 326 35 c 128,-1,50
 198 108 198 108 118 226 c 1,0,-1
EndSplineSet
EndChar

StartChar: T
Encoding: 84 84 55
Width: 1094
GlyphClass: 2
Flags: W
LayerCount: 2
Fore
SplineSet
44 1416 m 1,0,-1
 44 1470 l 1,1,-1
 1052 1470 l 1,2,-1
 1052 1416 l 1,3,-1
 580 1416 l 1,4,-1
 580 0 l 1,5,-1
 518 0 l 1,6,-1
 518 1416 l 1,7,-1
 44 1416 l 1,0,-1
EndSplineSet
EndChar

StartChar: U
Encoding: 85 85 56
Width: 1506
GlyphClass: 2
Flags: W
LayerCount: 2
Fore
SplineSet
256 502 m 2,0,-1
 256 1470 l 1,1,-1
 316 1470 l 1,2,-1
 316 512 l 2,3,4
 316 272 316 272 431 144 c 128,-1,5
 546 16 546 16 752 16 c 0,6,7
 960 16 960 16 1076 145 c 128,-1,8
 1192 274 1192 274 1192 512 c 2,9,-1
 1192 1470 l 1,10,-1
 1254 1470 l 1,11,-1
 1254 502 l 2,12,13
 1254 244 1254 244 1126 103 c 128,-1,14
 998 -38 998 -38 752 -38 c 0,15,16
 516 -38 516 -38 386 101 c 128,-1,17
 256 240 256 240 256 502 c 2,0,-1
EndSplineSet
EndChar

StartChar: V
Encoding: 86 86 57
Width: 1116
GlyphClass: 2
Flags: W
LayerCount: 2
Fore
SplineSet
-6 1470 m 1,0,-1
 66 1470 l 1,1,-1
 450 368 l 2,2,3
 456 350 456 350 494 239 c 128,-1,4
 532 128 532 128 550 70 c 1,5,-1
 558 70 l 1,6,7
 572 114 572 114 590 165 c 128,-1,8
 608 216 608 216 628 275 c 128,-1,9
 648 334 648 334 662 368 c 2,10,-1
 1054 1470 l 1,11,-1
 1126 1470 l 1,12,-1
 590 0 l 1,13,-1
 518 0 l 1,14,-1
 -6 1470 l 1,0,-1
EndSplineSet
EndChar

StartChar: W
Encoding: 87 87 58
Width: 1682
GlyphClass: 2
Flags: W
LayerCount: 2
Fore
SplineSet
22 1470 m 1,0,-1
 94 1470 l 1,1,-1
 364 362 l 2,2,3
 400 212 400 212 430 70 c 1,4,-1
 434 70 l 1,5,6
 448 118 448 118 472 215 c 128,-1,7
 496 312 496 312 510 362 c 2,8,-1
 800 1470 l 1,9,-1
 882 1470 l 1,10,-1
 1172 362 l 2,11,12
 1186 314 1186 314 1211 216 c 128,-1,13
 1236 118 1236 118 1248 70 c 1,14,-1
 1254 70 l 1,15,16
 1296 270 1296 270 1318 362 c 2,17,-1
 1588 1470 l 1,18,-1
 1660 1470 l 1,19,-1
 1292 0 l 1,20,-1
 1212 0 l 1,21,-1
 924 1088 l 2,22,23
 880 1244 880 1244 844 1400 c 1,24,-1
 840 1400 l 1,25,26
 812 1288 812 1288 760 1088 c 2,27,-1
 472 0 l 1,28,-1
 392 0 l 1,29,-1
 22 1470 l 1,0,-1
EndSplineSet
EndChar

StartChar: X
Encoding: 88 88 59
Width: 1042
GlyphClass: 2
Flags: W
LayerCount: 2
Fore
SplineSet
-8 0 m 1,0,-1
 476 756 l 1,1,-1
 16 1470 l 1,2,-1
 94 1470 l 1,3,-1
 388 1006 l 2,4,5
 434 936 434 936 518 802 c 1,6,-1
 524 802 l 1,7,8
 534 820 534 820 582 893 c 128,-1,9
 630 966 630 966 654 1006 c 2,10,-1
 948 1470 l 1,11,-1
 1028 1470 l 1,12,-1
 566 756 l 1,13,-1
 1054 0 l 1,14,-1
 978 0 l 1,15,-1
 658 500 l 2,16,17
 654 502 654 502 524 710 c 1,18,-1
 518 710 l 1,19,20
 504 686 504 686 458 612 c 128,-1,21
 412 538 412 538 386 500 c 2,22,-1
 68 0 l 1,23,-1
 -8 0 l 1,0,-1
EndSplineSet
EndChar

StartChar: Y
Encoding: 89 89 60
Width: 1110
GlyphClass: 2
Flags: W
LayerCount: 2
Fore
SplineSet
-4 1470 m 1,0,-1
 70 1470 l 1,1,-1
 432 878 l 2,2,3
 442 858 442 858 487 782 c 128,-1,4
 532 706 532 706 556 670 c 1,5,-1
 560 670 l 1,6,7
 586 712 586 712 684 878 c 2,8,-1
 1042 1470 l 1,9,-1
 1118 1470 l 1,10,-1
 590 608 l 1,11,-1
 590 0 l 1,12,-1
 528 0 l 1,13,-1
 528 608 l 1,14,-1
 -4 1470 l 1,0,-1
EndSplineSet
EndChar

StartChar: Z
Encoding: 90 90 61
Width: 1252
GlyphClass: 2
Flags: W
LayerCount: 2
Fore
SplineSet
130 52 m 1,0,-1
 1032 1416 l 1,1,-1
 198 1416 l 1,2,-1
 198 1470 l 1,3,-1
 1104 1470 l 1,4,-1
 1104 1420 l 1,5,-1
 202 54 l 1,6,-1
 1126 54 l 1,7,-1
 1126 0 l 1,8,-1
 130 0 l 1,9,-1
 130 52 l 1,0,-1
EndSplineSet
EndChar

StartChar: bracketleft
Encoding: 91 91 62
Width: 946
GlyphClass: 2
Flags: W
LayerCount: 2
Fore
SplineSet
378 -274 m 1,0,-1
 378 1678 l 1,1,-1
 716 1678 l 1,2,-1
 716 1626 l 1,3,-1
 438 1626 l 1,4,-1
 438 -224 l 1,5,-1
 716 -224 l 1,6,-1
 716 -274 l 1,7,-1
 378 -274 l 1,0,-1
EndSplineSet
EndChar

StartChar: backslash
Encoding: 92 92 63
Width: 590
GlyphClass: 2
Flags: W
LayerCount: 2
Fore
SplineSet
-14 1590 m 1,0,-1
 46 1590 l 1,1,-1
 608 -136 l 1,2,-1
 546 -136 l 1,3,-1
 -14 1590 l 1,0,-1
EndSplineSet
EndChar

StartChar: bracketright
Encoding: 93 93 64
Width: 946
GlyphClass: 2
Flags: W
LayerCount: 2
Fore
SplineSet
230 -224 m 1,0,-1
 508 -224 l 1,1,-1
 508 1626 l 1,2,-1
 230 1626 l 1,3,-1
 230 1678 l 1,4,-1
 570 1678 l 1,5,-1
 570 -274 l 1,6,-1
 230 -274 l 1,7,-1
 230 -224 l 1,0,-1
EndSplineSet
EndChar

StartChar: asciicircum
Encoding: 94 94 65
Width: 978
GlyphClass: 2
Flags: W
LayerCount: 2
Fore
SplineSet
72 1010 m 1,0,-1
 458 1640 l 1,1,-1
 522 1640 l 1,2,-1
 906 1010 l 1,3,-1
 836 1010 l 1,4,-1
 490 1582 l 1,5,-1
 488 1582 l 1,6,-1
 418 1470 l 1,7,-1
 144 1010 l 1,8,-1
 72 1010 l 1,0,-1
EndSplineSet
EndChar

StartChar: underscore
Encoding: 95 95 66
Width: 838
GlyphClass: 2
Flags: W
LayerCount: 2
Fore
SplineSet
18 -106 m 1,0,-1
 826 -106 l 1,1,-1
 826 -160 l 1,2,-1
 18 -160 l 1,3,-1
 18 -106 l 1,0,-1
EndSplineSet
EndChar

StartChar: grave
Encoding: 96 96 67
Width: 516
GlyphClass: 2
Flags: W
LayerCount: 2
Fore
SplineSet
318 1120 m 1,0,-1
 90 1672 l 1,1,-1
 204 1672 l 1,2,-1
 374 1120 l 1,3,-1
 318 1120 l 1,0,-1
EndSplineSet
EndChar

StartChar: a
Encoding: 97 97 68
Width: 1126
GlyphClass: 2
Flags: W
LayerCount: 2
Fore
SplineSet
168 240 m 0,0,1
 168 148 168 148 246 80 c 128,-1,2
 324 12 324 12 466 12 c 0,3,4
 636 12 636 12 761 122 c 128,-1,5
 886 232 886 232 886 406 c 2,6,-1
 886 614 l 1,7,8
 770 570 770 570 536 534 c 0,9,10
 340 504 340 504 254 431 c 128,-1,11
 168 358 168 358 168 240 c 0,0,1
106 234 m 0,12,13
 106 518 106 518 534 582 c 0,14,15
 796 624 796 624 886 666 c 1,16,-1
 886 720 l 2,17,18
 886 854 886 854 796 940 c 128,-1,19
 706 1026 706 1026 546 1026 c 0,20,21
 448 1026 448 1026 357 980 c 128,-1,22
 266 934 266 934 204 850 c 1,23,-1
 160 878 l 1,24,25
 218 962 218 962 322 1020 c 128,-1,26
 426 1078 426 1078 546 1078 c 0,27,28
 742 1078 742 1078 844 976 c 128,-1,29
 946 874 946 874 946 714 c 2,30,-1
 946 0 l 1,31,-1
 888 0 l 1,32,-1
 888 226 l 1,33,34
 850 120 850 120 732 41 c 128,-1,35
 614 -38 614 -38 462 -38 c 0,36,37
 298 -38 298 -38 202 38 c 128,-1,38
 106 114 106 114 106 234 c 0,12,13
EndSplineSet
Substitution2: "Single Substitution lookup 12 subtable" ordfeminine
EndChar

StartChar: b
Encoding: 98 98 69
Width: 1174
GlyphClass: 2
Flags: W
LayerCount: 2
Fore
SplineSet
208 0 m 1,0,-1
 208 1534 l 1,1,-1
 270 1534 l 1,2,-1
 270 768 l 1,3,4
 296 884 296 884 393 981 c 128,-1,5
 490 1078 490 1078 634 1078 c 0,6,7
 828 1078 828 1078 943 929 c 128,-1,8
 1058 780 1058 780 1058 522 c 0,9,10
 1058 244 1058 244 933 103 c 128,-1,11
 808 -38 808 -38 632 -38 c 0,12,13
 502 -38 502 -38 407 45 c 128,-1,14
 312 128 312 128 270 250 c 1,15,-1
 270 0 l 1,16,-1
 208 0 l 1,0,-1
266 522 m 0,17,18
 266 282 266 282 372 147 c 128,-1,19
 478 12 478 12 628 12 c 0,20,21
 794 12 794 12 898 151 c 128,-1,22
 1002 290 1002 290 1002 522 c 0,23,24
 1002 752 1002 752 898 889 c 128,-1,25
 794 1026 794 1026 630 1026 c 0,26,27
 482 1026 482 1026 374 891 c 128,-1,28
 266 756 266 756 266 522 c 0,17,18
EndSplineSet
EndChar

StartChar: c
Encoding: 99 99 70
Width: 1004
GlyphClass: 2
Flags: W
LayerCount: 2
Fore
SplineSet
118 520 m 0,0,1
 118 760 118 760 236 919 c 128,-1,2
 354 1078 354 1078 562 1078 c 0,3,4
 684 1078 684 1078 777 1013 c 128,-1,5
 870 948 870 948 908 848 c 1,6,-1
 852 830 l 1,7,8
 816 916 816 916 738 971 c 128,-1,9
 660 1026 660 1026 562 1026 c 0,10,11
 390 1026 390 1026 284 884 c 128,-1,12
 178 742 178 742 178 520 c 0,13,14
 178 294 178 294 287 153 c 128,-1,15
 396 12 396 12 562 12 c 0,16,17
 666 12 666 12 754 74 c 128,-1,18
 842 136 842 136 886 220 c 1,19,-1
 938 200 l 1,20,21
 890 100 890 100 789 31 c 128,-1,22
 688 -38 688 -38 562 -38 c 0,23,24
 366 -38 366 -38 242 113 c 128,-1,25
 118 264 118 264 118 520 c 0,0,1
EndSplineSet
EndChar

StartChar: d
Encoding: 100 100 71
Width: 1174
GlyphClass: 2
Flags: W
LayerCount: 2
Fore
SplineSet
118 522 m 0,0,1
 118 782 118 782 236 930 c 128,-1,2
 354 1078 354 1078 544 1078 c 0,3,4
 680 1078 680 1078 777 987 c 128,-1,5
 874 896 874 896 908 770 c 1,6,-1
 908 1534 l 1,7,-1
 968 1534 l 1,8,-1
 968 0 l 1,9,-1
 910 0 l 1,10,-1
 910 252 l 1,11,12
 870 126 870 126 775 44 c 128,-1,13
 680 -38 680 -38 542 -38 c 0,14,15
 370 -38 370 -38 244 103 c 128,-1,16
 118 244 118 244 118 522 c 0,0,1
178 522 m 0,17,18
 178 294 178 294 278 153 c 128,-1,19
 378 12 378 12 548 12 c 0,20,21
 700 12 700 12 805 147 c 128,-1,22
 910 282 910 282 910 522 c 0,23,24
 910 756 910 756 801 891 c 128,-1,25
 692 1026 692 1026 546 1026 c 0,26,27
 382 1026 382 1026 280 889 c 128,-1,28
 178 752 178 752 178 522 c 0,17,18
EndSplineSet
EndChar

StartChar: e
Encoding: 101 101 72
Width: 1116
GlyphClass: 2
Flags: W
LayerCount: 2
Fore
SplineSet
118 526 m 0,0,1
 118 766 118 766 239 922 c 128,-1,2
 360 1078 360 1078 566 1078 c 256,3,4
 772 1078 772 1078 890 923 c 128,-1,5
 1008 768 1008 768 1008 558 c 0,6,7
 1008 548 1008 548 1007 531 c 128,-1,8
 1006 514 1006 514 1006 504 c 1,9,-1
 178 504 l 1,10,11
 178 302 178 302 284 157 c 128,-1,12
 390 12 390 12 572 12 c 0,13,14
 688 12 688 12 783 74 c 128,-1,15
 878 136 878 136 928 222 c 1,16,-1
 980 200 l 1,17,18
 922 94 922 94 819 28 c 128,-1,19
 716 -38 716 -38 572 -38 c 0,20,21
 362 -38 362 -38 240 121 c 128,-1,22
 118 280 118 280 118 526 c 0,0,1
178 550 m 1,23,-1
 946 550 l 1,24,25
 946 744 946 744 842 885 c 128,-1,26
 738 1026 738 1026 566 1026 c 0,27,28
 442 1026 442 1026 353 952 c 128,-1,29
 264 878 264 878 223 774 c 128,-1,30
 182 670 182 670 178 550 c 1,23,-1
EndSplineSet
EndChar

StartChar: f
Encoding: 102 102 73
Width: 652
GlyphClass: 2
Flags: W
LayerCount: 2
Fore
SplineSet
56 988 m 1,0,-1
 56 1040 l 1,1,-1
 260 1040 l 1,2,-1
 260 1252 l 2,3,4
 260 1398 260 1398 333 1466 c 128,-1,5
 406 1534 406 1534 530 1534 c 2,6,-1
 620 1534 l 1,7,-1
 620 1482 l 1,8,-1
 534 1482 l 2,9,10
 322 1482 322 1482 322 1238 c 2,11,-1
 322 1040 l 1,12,-1
 590 1040 l 1,13,-1
 590 988 l 1,14,-1
 322 988 l 1,15,-1
 322 0 l 1,16,-1
 260 0 l 1,17,-1
 260 988 l 1,18,-1
 56 988 l 1,0,-1
EndSplineSet
EndChar

StartChar: g
Encoding: 103 103 74
Width: 1160
GlyphClass: 2
Flags: W
LayerCount: 2
Fore
SplineSet
178 538 m 0,0,1
 178 320 178 320 278 185 c 128,-1,2
 378 50 378 50 536 50 c 0,3,4
 702 50 702 50 798 181 c 128,-1,5
 894 312 894 312 894 542 c 0,6,7
 894 758 894 758 795 892 c 128,-1,8
 696 1026 696 1026 540 1026 c 0,9,10
 370 1026 370 1026 274 889 c 128,-1,11
 178 752 178 752 178 538 c 0,0,1
118 538 m 0,12,13
 118 778 118 778 231 928 c 128,-1,14
 344 1078 344 1078 536 1078 c 0,15,16
 678 1078 678 1078 766 992 c 128,-1,17
 854 906 854 906 894 794 c 1,18,-1
 894 1040 l 1,19,-1
 954 1040 l 1,20,-1
 954 76 l 2,21,22
 954 -216 954 -216 860 -356 c 128,-1,23
 766 -496 766 -496 546 -496 c 0,24,25
 438 -496 438 -496 346 -450 c 128,-1,26
 254 -404 254 -404 196 -328 c 1,27,-1
 244 -298 l 1,28,29
 370 -444 370 -444 546 -444 c 0,30,31
 736 -444 736 -444 815 -317 c 128,-1,32
 894 -190 894 -190 894 66 c 2,33,-1
 894 272 l 1,34,35
 798 -4 798 -4 538 -4 c 0,36,37
 348 -4 348 -4 233 148 c 128,-1,38
 118 300 118 300 118 538 c 0,12,13
EndSplineSet
EndChar

StartChar: h
Encoding: 104 104 75
Width: 1170
GlyphClass: 2
Flags: W
LayerCount: 2
Fore
SplineSet
208 0 m 1,0,-1
 208 1534 l 1,1,-1
 270 1534 l 1,2,-1
 270 820 l 1,3,-1
 272 820 l 1,4,5
 306 914 306 914 411 996 c 128,-1,6
 516 1078 516 1078 652 1078 c 0,7,8
 816 1078 816 1078 899 974 c 128,-1,9
 982 870 982 870 982 676 c 2,10,-1
 982 0 l 1,11,-1
 924 0 l 1,12,-1
 924 658 l 2,13,14
 924 1026 924 1026 640 1026 c 0,15,16
 496 1026 496 1026 383 910 c 128,-1,17
 270 794 270 794 270 640 c 2,18,-1
 270 0 l 1,19,-1
 208 0 l 1,0,-1
EndSplineSet
Substitution2: "'sups' Superscript lookup 5 subtable" uni02B0
Substitution2: "'aalt' Access All Alternates lookup 0 subtable" uni02B0
EndChar

StartChar: i
Encoding: 105 105 76
Width: 564
GlyphClass: 2
Flags: W
LayerCount: 2
Fore
SplineSet
212 1340 m 1,0,-1
 212 1492 l 1,1,-1
 352 1492 l 1,2,-1
 352 1340 l 1,3,-1
 212 1340 l 1,0,-1
254 0 m 1,4,-1
 254 1040 l 1,5,-1
 314 1040 l 1,6,-1
 314 0 l 1,7,-1
 254 0 l 1,4,-1
EndSplineSet
EndChar

StartChar: j
Encoding: 106 106 77
Width: 570
GlyphClass: 2
Flags: W
LayerCount: 2
Fore
SplineSet
218 1340 m 1,0,-1
 218 1492 l 1,1,-1
 356 1492 l 1,2,-1
 356 1340 l 1,3,-1
 218 1340 l 1,0,-1
-8 -424 m 1,4,-1
 48 -424 l 2,5,6
 260 -424 260 -424 260 -146 c 2,7,-1
 260 1040 l 1,8,-1
 318 1040 l 1,9,-1
 318 -154 l 2,10,11
 318 -312 318 -312 252 -394 c 128,-1,12
 186 -476 186 -476 60 -476 c 2,13,-1
 -8 -476 l 1,14,-1
 -8 -424 l 1,4,-1
EndSplineSet
Substitution2: "'sups' Superscript lookup 5 subtable" uni02B2
Substitution2: "'aalt' Access All Alternates lookup 0 subtable" uni02B2
EndChar

StartChar: k
Encoding: 107 107 78
Width: 988
GlyphClass: 2
Flags: W
LayerCount: 2
Fore
SplineSet
210 0 m 1,0,-1
 210 1534 l 1,1,-1
 272 1534 l 1,2,-1
 272 402 l 1,3,-1
 844 1040 l 1,4,-1
 926 1040 l 1,5,-1
 564 632 l 1,6,-1
 982 0 l 1,7,-1
 906 0 l 1,8,-1
 518 584 l 1,9,-1
 272 314 l 1,10,-1
 272 0 l 1,11,-1
 210 0 l 1,0,-1
EndSplineSet
EndChar

StartChar: l
Encoding: 108 108 79
Width: 490
GlyphClass: 2
Flags: W
LayerCount: 2
Fore
SplineSet
214 0 m 1,0,-1
 214 1534 l 1,1,-1
 276 1534 l 1,2,-1
 276 0 l 1,3,-1
 214 0 l 1,0,-1
EndSplineSet
Substitution2: "'sups' Superscript lookup 5 subtable" uni02E1
Substitution2: "'aalt' Access All Alternates lookup 0 subtable" uni02E1
EndChar

StartChar: m
Encoding: 109 109 80
Width: 1722
GlyphClass: 2
Flags: W
LayerCount: 2
Fore
SplineSet
200 0 m 1,0,-1
 200 1040 l 1,1,-1
 258 1040 l 1,2,-1
 258 840 l 1,3,-1
 262 840 l 1,4,5
 294 932 294 932 378 1005 c 128,-1,6
 462 1078 462 1078 596 1078 c 0,7,8
 732 1078 732 1078 798 994 c 128,-1,9
 864 910 864 910 882 794 c 1,10,11
 884 820 884 820 905 861 c 128,-1,12
 926 902 926 902 966 953 c 128,-1,13
 1006 1004 1006 1004 1082 1041 c 128,-1,14
 1158 1078 1158 1078 1250 1078 c 0,15,16
 1398 1078 1398 1078 1466 979 c 128,-1,17
 1534 880 1534 880 1534 676 c 2,18,-1
 1534 0 l 1,19,-1
 1474 0 l 1,20,-1
 1474 662 l 2,21,22
 1474 840 1474 840 1424 933 c 128,-1,23
 1374 1026 1374 1026 1232 1026 c 0,24,25
 1096 1026 1096 1026 998 915 c 128,-1,26
 900 804 900 804 900 626 c 2,27,-1
 900 0 l 1,28,-1
 838 0 l 1,29,-1
 838 660 l 2,30,31
 838 1026 838 1026 588 1026 c 0,32,33
 444 1026 444 1026 352 917 c 128,-1,34
 260 808 260 808 260 640 c 2,35,-1
 260 0 l 1,36,-1
 200 0 l 1,0,-1
EndSplineSet
EndChar

StartChar: n
Encoding: 110 110 81
Width: 1160
GlyphClass: 2
Flags: W
LayerCount: 2
Fore
SplineSet
200 0 m 1,0,-1
 200 1040 l 1,1,-1
 258 1040 l 1,2,-1
 258 804 l 1,3,-1
 262 804 l 1,4,5
 278 890 278 890 384 984 c 128,-1,6
 490 1078 490 1078 642 1078 c 0,7,8
 702 1078 702 1078 753 1062 c 128,-1,9
 804 1046 804 1046 857 1005 c 128,-1,10
 910 964 910 964 942 880 c 128,-1,11
 974 796 974 796 974 676 c 2,12,-1
 974 0 l 1,13,-1
 910 0 l 1,14,-1
 910 658 l 2,15,16
 910 1026 910 1026 632 1026 c 0,17,18
 488 1026 488 1026 374 910 c 128,-1,19
 260 794 260 794 260 640 c 2,20,-1
 260 0 l 1,21,-1
 200 0 l 1,0,-1
EndSplineSet
Substitution2: "'sups' Superscript lookup 5 subtable" uni207F
Substitution2: "'aalt' Access All Alternates lookup 0 subtable" uni207F
EndChar

StartChar: o
Encoding: 111 111 82
Width: 1132
GlyphClass: 2
Flags: W
LayerCount: 2
Fore
SplineSet
178 520 m 0,0,1
 178 300 178 300 283 156 c 128,-1,2
 388 12 388 12 566 12 c 0,3,4
 740 12 740 12 847 157 c 128,-1,5
 954 302 954 302 954 520 c 0,6,7
 954 742 954 742 845 884 c 128,-1,8
 736 1026 736 1026 566 1026 c 256,9,10
 396 1026 396 1026 287 885 c 128,-1,11
 178 744 178 744 178 520 c 0,0,1
118 520 m 0,12,13
 118 764 118 764 238 921 c 128,-1,14
 358 1078 358 1078 566 1078 c 0,15,16
 770 1078 770 1078 893 921 c 128,-1,17
 1016 764 1016 764 1016 520 c 0,18,19
 1016 286 1016 286 897 124 c 128,-1,20
 778 -38 778 -38 566 -38 c 0,21,22
 352 -38 352 -38 235 124 c 128,-1,23
 118 286 118 286 118 520 c 0,12,13
EndSplineSet
Substitution2: "Single Substitution lookup 12 subtable" ordmasculine
EndChar

StartChar: p
Encoding: 112 112 83
Width: 1174
GlyphClass: 2
Flags: W
LayerCount: 2
Fore
SplineSet
268 524 m 0,0,1
 268 296 268 296 369 154 c 128,-1,2
 470 12 470 12 630 12 c 256,3,4
 790 12 790 12 896 149 c 128,-1,5
 1002 286 1002 286 1002 522 c 0,6,7
 1002 742 1002 742 904 884 c 128,-1,8
 806 1026 806 1026 630 1026 c 0,9,10
 476 1026 476 1026 372 884 c 128,-1,11
 268 742 268 742 268 524 c 0,0,1
208 -488 m 1,12,-1
 208 1040 l 1,13,-1
 270 1040 l 1,14,-1
 270 776 l 1,15,16
 314 914 314 914 411 996 c 128,-1,17
 508 1078 508 1078 634 1078 c 0,18,19
 828 1078 828 1078 943 927 c 128,-1,20
 1058 776 1058 776 1058 522 c 0,21,22
 1058 256 1058 256 938 109 c 128,-1,23
 818 -38 818 -38 632 -38 c 0,24,25
 500 -38 500 -38 407 44 c 128,-1,26
 314 126 314 126 270 258 c 1,27,-1
 270 -488 l 1,28,-1
 208 -488 l 1,12,-1
EndSplineSet
EndChar

StartChar: q
Encoding: 113 113 84
Width: 1174
GlyphClass: 2
Flags: W
LayerCount: 2
Fore
SplineSet
178 522 m 0,0,1
 178 290 178 290 281 151 c 128,-1,2
 384 12 384 12 546 12 c 0,3,4
 710 12 710 12 809 156 c 128,-1,5
 908 300 908 300 908 524 c 0,6,7
 908 744 908 744 804 885 c 128,-1,8
 700 1026 700 1026 546 1026 c 0,9,10
 372 1026 372 1026 275 883 c 128,-1,11
 178 740 178 740 178 522 c 0,0,1
118 522 m 0,12,13
 118 776 118 776 234 927 c 128,-1,14
 350 1078 350 1078 542 1078 c 0,15,16
 666 1078 666 1078 765 999 c 128,-1,17
 864 920 864 920 910 780 c 1,18,-1
 910 1040 l 1,19,-1
 968 1040 l 1,20,-1
 968 -488 l 1,21,-1
 908 -488 l 1,22,-1
 908 260 l 1,23,24
 862 128 862 128 770 45 c 128,-1,25
 678 -38 678 -38 544 -38 c 0,26,27
 358 -38 358 -38 238 109 c 128,-1,28
 118 256 118 256 118 522 c 0,12,13
EndSplineSet
EndChar

StartChar: r
Encoding: 114 114 85
Width: 742
GlyphClass: 2
Flags: W
LayerCount: 2
Fore
SplineSet
200 0 m 1,0,-1
 200 1040 l 1,1,-1
 258 1040 l 1,2,-1
 258 844 l 1,3,4
 284 930 284 930 364 1004 c 128,-1,5
 444 1078 444 1078 582 1078 c 0,6,7
 668 1078 668 1078 742 1044 c 1,8,-1
 742 988 l 1,9,10
 664 1022 664 1022 582 1022 c 0,11,12
 436 1022 436 1022 348 911 c 128,-1,13
 260 800 260 800 260 632 c 2,14,-1
 260 0 l 1,15,-1
 200 0 l 1,0,-1
EndSplineSet
Substitution2: "'sups' Superscript lookup 5 subtable" uni02B3
Substitution2: "'aalt' Access All Alternates lookup 0 subtable" uni02B3
EndChar

StartChar: s
Encoding: 115 115 86
Width: 976
GlyphClass: 2
Flags: W
LayerCount: 2
Fore
SplineSet
102 170 m 1,0,-1
 150 198 l 1,1,2
 204 112 204 112 293 62 c 128,-1,3
 382 12 382 12 492 12 c 0,4,5
 636 12 636 12 724 76 c 128,-1,6
 812 140 812 140 812 240 c 0,7,8
 812 286 812 286 790 325 c 128,-1,9
 768 364 768 364 743 386 c 128,-1,10
 718 408 718 408 656 434 c 128,-1,11
 594 460 594 460 565 469 c 128,-1,12
 536 478 536 478 458 504 c 0,13,14
 382 526 382 526 334 545 c 128,-1,15
 286 564 286 564 232 598 c 128,-1,16
 178 632 178 632 151 684 c 128,-1,17
 124 736 124 736 124 802 c 0,18,19
 124 932 124 932 229 1005 c 128,-1,20
 334 1078 334 1078 492 1078 c 0,21,22
 612 1078 612 1078 706 1019 c 128,-1,23
 800 960 800 960 846 876 c 1,24,-1
 800 848 l 1,25,26
 754 928 754 928 674 977 c 128,-1,27
 594 1026 594 1026 492 1026 c 0,28,29
 356 1026 356 1026 271 963 c 128,-1,30
 186 900 186 900 186 802 c 0,31,32
 186 698 186 698 266 641 c 128,-1,33
 346 584 346 584 482 546 c 0,34,35
 546 528 546 528 591 515 c 128,-1,36
 636 502 636 502 694 473 c 128,-1,37
 752 444 752 444 788 415 c 128,-1,38
 824 386 824 386 849 340 c 128,-1,39
 874 294 874 294 874 240 c 0,40,41
 874 122 874 122 776 42 c 128,-1,42
 678 -38 678 -38 492 -38 c 0,43,44
 228 -38 228 -38 102 170 c 1,0,-1
EndSplineSet
Substitution2: "'hist' Historical Forms lookup 11 subtable" longs
Substitution2: "'sups' Superscript lookup 5 subtable" uni02E2
AlternateSubs2: "'aalt' Access All Alternates lookup 1 subtable" uni02E2 longs
EndChar

StartChar: t
Encoding: 116 116 87
Width: 712
GlyphClass: 2
Flags: W
LayerCount: 2
Fore
SplineSet
60 988 m 1,0,-1
 60 1040 l 1,1,-1
 266 1040 l 1,2,-1
 266 1402 l 1,3,-1
 330 1402 l 1,4,-1
 330 1040 l 1,5,-1
 614 1040 l 1,6,-1
 614 988 l 1,7,-1
 330 988 l 1,8,-1
 330 274 l 2,9,10
 330 156 330 156 375 104 c 128,-1,11
 420 52 420 52 518 52 c 0,12,13
 522 52 522 52 526 52 c 2,14,-1
 614 54 l 1,15,-1
 614 0 l 1,16,-1
 518 0 l 2,17,18
 510 0 510 0 504 0 c 0,19,20
 392 0 392 0 329 63 c 128,-1,21
 266 126 266 126 266 262 c 2,22,-1
 266 988 l 1,23,-1
 60 988 l 1,0,-1
EndSplineSet
EndChar

StartChar: u
Encoding: 117 117 88
Width: 1154
GlyphClass: 2
Flags: W
LayerCount: 2
Fore
SplineSet
190 354 m 2,0,-1
 190 1040 l 1,1,-1
 250 1040 l 1,2,-1
 250 382 l 2,3,4
 250 222 250 222 315 117 c 128,-1,5
 380 12 380 12 536 12 c 0,6,7
 712 12 712 12 804 138 c 128,-1,8
 896 264 896 264 896 438 c 2,9,-1
 896 1040 l 1,10,-1
 954 1040 l 1,11,-1
 954 0 l 1,12,-1
 896 0 l 1,13,-1
 896 226 l 1,14,15
 878 130 878 130 782 46 c 128,-1,16
 686 -38 686 -38 522 -38 c 256,17,18
 358 -38 358 -38 274 70 c 128,-1,19
 190 178 190 178 190 354 c 2,0,-1
EndSplineSet
EndChar

StartChar: v
Encoding: 118 118 89
Width: 952
GlyphClass: 2
Flags: W
LayerCount: 2
Fore
SplineSet
34 1040 m 1,0,-1
 100 1040 l 1,1,-1
 392 280 l 2,2,3
 410 234 410 234 440 155 c 128,-1,4
 470 76 470 76 478 52 c 1,5,-1
 482 52 l 1,6,7
 502 100 502 100 568 280 c 2,8,-1
 852 1040 l 1,9,-1
 924 1040 l 1,10,-1
 518 0 l 1,11,-1
 438 0 l 1,12,-1
 34 1040 l 1,0,-1
EndSplineSet
EndChar

StartChar: w
Encoding: 119 119 90
Width: 1386
GlyphClass: 2
Flags: W
LayerCount: 2
Fore
SplineSet
28 1040 m 1,0,-1
 98 1040 l 1,1,-1
 318 260 l 2,2,3
 328 224 328 224 370 54 c 1,4,-1
 376 54 l 1,5,6
 384 92 384 92 404 162 c 128,-1,7
 424 232 424 232 432 260 c 2,8,-1
 654 1040 l 1,9,-1
 734 1040 l 1,10,-1
 958 260 l 2,11,12
 1012 72 1012 72 1016 56 c 1,13,-1
 1018 56 l 1,14,15
 1026 84 1026 84 1046 152 c 128,-1,16
 1066 220 1066 220 1074 260 c 2,17,-1
 1294 1040 l 1,18,-1
 1364 1040 l 1,19,-1
 1058 0 l 1,20,-1
 978 0 l 1,21,-1
 756 754 l 2,22,23
 734 830 734 830 696 976 c 1,24,-1
 690 976 l 1,25,26
 646 802 646 802 632 754 c 2,27,-1
 414 0 l 1,28,-1
 330 0 l 1,29,-1
 28 1040 l 1,0,-1
EndSplineSet
Substitution2: "'sups' Superscript lookup 5 subtable" uni02B7
Substitution2: "'aalt' Access All Alternates lookup 0 subtable" uni02B7
EndChar

StartChar: x
Encoding: 120 120 91
Width: 856
GlyphClass: 2
Flags: W
LayerCount: 2
Fore
SplineSet
12 0 m 1,0,-1
 388 542 l 1,1,-1
 36 1040 l 1,2,-1
 108 1040 l 1,3,-1
 334 722 l 2,4,5
 384 650 384 650 428 588 c 1,6,-1
 430 588 l 1,7,8
 442 608 442 608 475 652 c 128,-1,9
 508 696 508 696 522 722 c 2,10,-1
 744 1040 l 1,11,-1
 822 1040 l 1,12,-1
 468 540 l 1,13,-1
 846 0 l 1,14,-1
 770 0 l 1,15,-1
 520 364 l 2,16,17
 516 370 516 370 480 421 c 128,-1,18
 444 472 444 472 430 496 c 1,19,-1
 428 496 l 1,20,21
 414 476 414 476 383 432 c 128,-1,22
 352 388 352 388 334 364 c 2,23,-1
 88 0 l 1,24,-1
 12 0 l 1,0,-1
EndSplineSet
Substitution2: "'sups' Superscript lookup 5 subtable" uni02E3
Substitution2: "'aalt' Access All Alternates lookup 0 subtable" uni02E3
EndChar

StartChar: y
Encoding: 121 121 92
Width: 932
GlyphClass: 2
Flags: W
LayerCount: 2
Fore
SplineSet
28 1040 m 1,0,-1
 98 1040 l 1,1,-1
 374 280 l 2,2,3
 390 238 390 238 420 152 c 128,-1,4
 450 66 450 66 466 22 c 1,5,-1
 470 22 l 1,6,7
 542 214 542 214 566 286 c 2,8,-1
 832 1040 l 1,9,-1
 902 1040 l 1,10,-1
 442 -216 l 2,11,12
 388 -364 388 -364 324 -426 c 128,-1,13
 260 -488 260 -488 176 -488 c 2,14,-1
 130 -488 l 1,15,-1
 130 -434 l 1,16,-1
 168 -434 l 2,17,18
 310 -434 310 -434 388 -198 c 2,19,-1
 436 -56 l 1,20,-1
 28 1040 l 1,0,-1
EndSplineSet
Substitution2: "'sups' Superscript lookup 5 subtable" uni02B8
Substitution2: "'aalt' Access All Alternates lookup 0 subtable" uni02B8
EndChar

StartChar: z
Encoding: 122 122 93
Width: 948
GlyphClass: 2
Flags: W
LayerCount: 2
Fore
SplineSet
90 0 m 1,0,-1
 90 46 l 1,1,-1
 766 988 l 1,2,-1
 142 988 l 1,3,-1
 142 1040 l 1,4,-1
 838 1040 l 1,5,-1
 838 994 l 1,6,-1
 164 52 l 1,7,-1
 862 52 l 1,8,-1
 862 0 l 1,9,-1
 90 0 l 1,0,-1
EndSplineSet
EndChar

StartChar: braceleft
Encoding: 123 123 94
Width: 946
GlyphClass: 2
Flags: W
LayerCount: 2
Fore
SplineSet
182 664 m 1,0,-1
 182 714 l 1,1,-1
 230 714 l 2,2,3
 420 714 420 714 420 1042 c 2,4,-1
 420 1450 l 2,5,6
 420 1558 420 1558 477 1618 c 128,-1,7
 534 1678 534 1678 612 1678 c 2,8,-1
 752 1678 l 1,9,-1
 752 1626 l 1,10,-1
 626 1626 l 2,11,12
 566 1626 566 1626 524 1576 c 128,-1,13
 482 1526 482 1526 482 1432 c 2,14,-1
 482 1028 l 2,15,16
 482 770 482 770 330 686 c 1,17,18
 400 660 400 660 441 576 c 128,-1,19
 482 492 482 492 482 364 c 2,20,-1
 482 -10 l 2,21,22
 482 -116 482 -116 523 -169 c 128,-1,23
 564 -222 564 -222 630 -222 c 2,24,-1
 752 -222 l 1,25,-1
 752 -272 l 1,26,-1
 614 -272 l 2,27,28
 538 -272 538 -272 479 -215 c 128,-1,29
 420 -158 420 -158 420 -44 c 2,30,-1
 420 338 l 2,31,32
 420 500 420 500 370 582 c 128,-1,33
 320 664 320 664 230 664 c 2,34,-1
 182 664 l 1,0,-1
EndSplineSet
EndChar

StartChar: bar
Encoding: 124 124 95
Width: 472
GlyphClass: 2
Flags: W
LayerCount: 2
Fore
SplineSet
206 -336 m 1,0,-1
 206 1734 l 1,1,-1
 268 1734 l 1,2,-1
 268 -336 l 1,3,-1
 206 -336 l 1,0,-1
EndSplineSet
EndChar

StartChar: braceright
Encoding: 125 125 96
Width: 946
GlyphClass: 2
Flags: W
LayerCount: 2
Fore
SplineSet
194 -222 m 1,0,-1
 316 -222 l 2,1,2
 382 -222 382 -222 424 -169 c 128,-1,3
 466 -116 466 -116 466 -10 c 2,4,-1
 466 374 l 2,5,6
 466 494 466 494 507 578 c 128,-1,7
 548 662 548 662 616 686 c 1,8,9
 466 768 466 768 466 1018 c 2,10,-1
 466 1432 l 2,11,12
 466 1526 466 1526 424 1576 c 128,-1,13
 382 1626 382 1626 320 1626 c 2,14,-1
 194 1626 l 1,15,-1
 194 1678 l 1,16,-1
 334 1678 l 2,17,18
 414 1678 414 1678 470 1619 c 128,-1,19
 526 1560 526 1560 526 1450 c 2,20,-1
 526 1042 l 2,21,22
 526 884 526 884 574 799 c 128,-1,23
 622 714 622 714 716 714 c 2,24,-1
 764 714 l 1,25,-1
 764 664 l 1,26,-1
 716 664 l 2,27,28
 624 664 624 664 575 578 c 128,-1,29
 526 492 526 492 526 352 c 2,30,-1
 526 -44 l 2,31,32
 526 -158 526 -158 468 -215 c 128,-1,33
 410 -272 410 -272 330 -272 c 2,34,-1
 194 -272 l 1,35,-1
 194 -222 l 1,0,-1
EndSplineSet
EndChar

StartChar: asciitilde
Encoding: 126 126 97
Width: 1474
GlyphClass: 2
Flags: W
LayerCount: 2
Fore
SplineSet
162 634 m 1,0,1
 286 862 286 862 490 862 c 0,2,3
 562 862 562 862 619 834 c 128,-1,4
 676 806 676 806 715 767 c 128,-1,5
 754 728 754 728 792 688 c 128,-1,6
 830 648 830 648 880 620 c 128,-1,7
 930 592 930 592 990 592 c 0,8,9
 1042 592 1042 592 1086 611 c 128,-1,10
 1130 630 1130 630 1166 670 c 128,-1,11
 1202 710 1202 710 1221 734 c 128,-1,12
 1240 758 1240 758 1268 808 c 1,13,-1
 1316 782 l 1,14,15
 1254 676 1254 676 1178 608 c 128,-1,16
 1102 540 1102 540 990 540 c 0,17,18
 920 540 920 540 862 568 c 128,-1,19
 804 596 804 596 766 636 c 128,-1,20
 728 676 728 676 690 715 c 128,-1,21
 652 754 652 754 601 782 c 128,-1,22
 550 810 550 810 488 810 c 0,23,24
 330 810 330 810 210 608 c 1,25,-1
 162 634 l 1,0,1
EndSplineSet
EndChar

StartChar: exclamdown
Encoding: 161 161 99
Width: 634
GlyphClass: 2
Flags: W
LayerCount: 2
Fore
SplineSet
276 -438 m 1,0,-1
 292 612 l 1,1,-1
 346 612 l 1,2,-1
 358 -438 l 1,3,-1
 276 -438 l 1,0,-1
230 880 m 1,4,-1
 230 1048 l 1,5,-1
 402 1048 l 1,6,-1
 402 880 l 1,7,-1
 230 880 l 1,4,-1
EndSplineSet
EndChar

StartChar: cent
Encoding: 162 162 100
Width: 1002
GlyphClass: 2
Flags: W
LayerCount: 2
Fore
SplineSet
118 520 m 0,0,1
 118 754 118 754 231 912 c 128,-1,2
 344 1070 344 1070 544 1074 c 1,3,-1
 544 1236 l 1,4,-1
 608 1236 l 1,5,-1
 608 1072 l 1,6,7
 716 1060 716 1060 795 999 c 128,-1,8
 874 938 874 938 908 848 c 1,9,-1
 854 830 l 1,10,11
 818 914 818 914 739 970 c 128,-1,12
 660 1026 660 1026 562 1026 c 0,13,14
 388 1026 388 1026 283 884 c 128,-1,15
 178 742 178 742 178 520 c 0,16,17
 178 294 178 294 285 153 c 128,-1,18
 392 12 392 12 562 12 c 0,19,20
 666 12 666 12 753 74 c 128,-1,21
 840 136 840 136 884 220 c 1,22,-1
 936 200 l 1,23,24
 888 108 888 108 804 43 c 128,-1,25
 720 -22 720 -22 608 -36 c 1,26,-1
 608 -200 l 1,27,-1
 544 -200 l 1,28,-1
 544 -38 l 1,29,30
 356 -34 356 -34 237 117 c 128,-1,31
 118 268 118 268 118 520 c 0,0,1
EndSplineSet
EndChar

StartChar: sterling
Encoding: 163 163 101
Width: 1110
GlyphClass: 2
Flags: W
LayerCount: 2
Fore
SplineSet
76 702 m 1,0,-1
 76 756 l 1,1,-1
 312 756 l 1,2,-1
 312 1140 l 2,3,4
 312 1322 312 1322 409 1416 c 128,-1,5
 506 1510 506 1510 672 1510 c 0,6,7
 786 1510 786 1510 871 1455 c 128,-1,8
 956 1400 956 1400 998 1320 c 1,9,-1
 954 1296 l 1,10,11
 860 1456 860 1456 676 1456 c 0,12,13
 534 1456 534 1456 453 1376 c 128,-1,14
 372 1296 372 1296 372 1136 c 2,15,-1
 372 756 l 1,16,-1
 860 756 l 1,17,-1
 860 702 l 1,18,-1
 372 702 l 1,19,-1
 372 402 l 2,20,21
 372 160 372 160 220 44 c 1,22,23
 380 82 380 82 478 82 c 0,24,25
 548 82 548 82 644 49 c 128,-1,26
 740 16 740 16 800 16 c 0,27,28
 956 16 956 16 1064 76 c 1,29,-1
 1086 24 l 1,30,31
 966 -38 966 -38 798 -38 c 0,32,33
 740 -38 740 -38 637 -5 c 128,-1,34
 534 28 534 28 468 28 c 256,35,36
 402 28 402 28 312 14 c 128,-1,37
 222 0 222 0 166 -14 c 2,38,-1
 110 -30 l 1,39,-1
 88 22 l 1,40,41
 200 64 200 64 256 172 c 128,-1,42
 312 280 312 280 312 402 c 2,43,-1
 312 702 l 1,44,-1
 76 702 l 1,0,-1
EndSplineSet
EndChar

StartChar: currency
Encoding: 164 164 102
Width: 1250
GlyphClass: 2
Flags: W
LayerCount: 2
Fore
SplineSet
82 266 m 1,0,-1
 302 474 l 1,1,2
 204 578 204 578 204 734 c 256,3,4
 204 890 204 890 300 996 c 1,5,-1
 82 1198 l 1,6,-1
 122 1240 l 1,7,-1
 340 1040 l 1,8,9
 460 1140 460 1140 628 1140 c 256,10,11
 796 1140 796 1140 916 1036 c 1,12,-1
 1132 1238 l 1,13,-1
 1172 1196 l 1,14,-1
 954 996 l 1,15,16
 1054 884 1054 884 1054 734 c 0,17,18
 1054 588 1054 588 954 474 c 1,19,-1
 1172 266 l 1,20,-1
 1134 228 l 1,21,-1
 916 430 l 1,22,23
 804 328 804 328 628 328 c 0,24,25
 458 328 458 328 338 430 c 1,26,-1
 122 230 l 1,27,-1
 82 266 l 1,0,-1
264 734 m 0,28,29
 264 588 264 588 367 485 c 128,-1,30
 470 382 470 382 628 382 c 0,31,32
 784 382 784 382 889 485 c 128,-1,33
 994 588 994 588 994 734 c 0,34,35
 994 882 994 882 889 985 c 128,-1,36
 784 1088 784 1088 628 1088 c 0,37,38
 474 1088 474 1088 369 985 c 128,-1,39
 264 882 264 882 264 734 c 0,28,29
EndSplineSet
EndChar

StartChar: yen
Encoding: 165 165 103
Width: 1110
GlyphClass: 2
Flags: W
LayerCount: 2
Fore
SplineSet
-4 1470 m 1,0,-1
 70 1470 l 1,1,-1
 426 912 l 2,2,3
 440 888 440 888 489 813 c 128,-1,4
 538 738 538 738 556 710 c 1,5,-1
 560 710 l 1,6,7
 578 738 578 738 622 808 c 128,-1,8
 666 878 666 878 684 906 c 2,9,-1
 1042 1470 l 1,10,-1
 1118 1470 l 1,11,-1
 630 706 l 1,12,-1
 994 706 l 1,13,-1
 994 658 l 1,14,-1
 588 658 l 1,15,-1
 588 442 l 1,16,-1
 994 442 l 1,17,-1
 994 392 l 1,18,-1
 588 392 l 1,19,-1
 588 0 l 1,20,-1
 528 0 l 1,21,-1
 528 392 l 1,22,-1
 114 392 l 1,23,-1
 114 442 l 1,24,-1
 528 442 l 1,25,-1
 528 658 l 1,26,-1
 114 658 l 1,27,-1
 114 706 l 1,28,-1
 486 706 l 1,29,-1
 -4 1470 l 1,0,-1
EndSplineSet
EndChar

StartChar: brokenbar
Encoding: 166 166 104
Width: 472
GlyphClass: 2
Flags: W
LayerCount: 2
Fore
SplineSet
206 942 m 1,0,-1
 206 1734 l 1,1,-1
 268 1734 l 1,2,-1
 268 942 l 1,3,-1
 206 942 l 1,0,-1
206 -336 m 1,4,-1
 206 450 l 1,5,-1
 268 450 l 1,6,-1
 268 -336 l 1,7,-1
 206 -336 l 1,4,-1
EndSplineSet
EndChar

StartChar: section
Encoding: 167 167 105
Width: 1154
GlyphClass: 2
Flags: W
LayerCount: 2
Fore
SplineSet
246 722 m 0,0,1
 246 634 246 634 295 586 c 128,-1,2
 344 538 344 538 476 478 c 2,3,-1
 750 356 l 1,4,5
 922 488 922 488 922 632 c 0,6,7
 922 706 922 706 864 756 c 128,-1,8
 806 806 806 806 660 882 c 2,9,-1
 458 990 l 1,10,11
 380 938 380 938 347 913 c 128,-1,12
 314 888 314 888 280 835 c 128,-1,13
 246 782 246 782 246 722 c 0,0,1
166 64 m 1,14,-1
 214 98 l 1,15,16
 260 20 260 20 346 -22 c 128,-1,17
 432 -64 432 -64 538 -64 c 0,18,19
 682 -64 682 -64 760 -11 c 128,-1,20
 838 42 838 42 838 134 c 0,21,22
 838 212 838 212 792 258 c 128,-1,23
 746 304 746 304 634 352 c 2,24,-1
 416 448 l 2,25,26
 300 500 300 500 241 560 c 128,-1,27
 182 620 182 620 182 714 c 0,28,29
 182 772 182 772 201 818 c 128,-1,30
 220 864 220 864 260 904 c 128,-1,31
 300 944 300 944 330 965 c 128,-1,32
 360 986 360 986 412 1018 c 1,33,34
 250 1132 250 1132 250 1256 c 0,35,36
 250 1376 250 1376 341 1443 c 128,-1,37
 432 1510 432 1510 610 1510 c 0,38,39
 730 1510 730 1510 829 1460 c 128,-1,40
 928 1410 928 1410 984 1318 c 1,41,-1
 938 1296 l 1,42,43
 820 1456 820 1456 610 1456 c 0,44,45
 454 1456 454 1456 384 1401 c 128,-1,46
 314 1346 314 1346 314 1260 c 0,47,48
 314 1224 314 1224 325 1192 c 128,-1,49
 336 1160 336 1160 370 1128 c 128,-1,50
 404 1096 404 1096 423 1077 c 128,-1,51
 442 1058 442 1058 502 1025 c 128,-1,52
 562 992 562 992 579 984 c 128,-1,53
 596 976 596 976 668 940 c 2,54,-1
 692 928 l 2,55,56
 850 848 850 848 917 785 c 128,-1,57
 984 722 984 722 984 632 c 0,58,59
 984 462 984 462 802 322 c 1,60,61
 900 254 900 254 900 134 c 0,62,63
 900 24 900 24 811 -46 c 128,-1,64
 722 -116 722 -116 540 -116 c 0,65,66
 290 -116 290 -116 166 64 c 1,14,-1
EndSplineSet
EndChar

StartChar: dieresis
Encoding: 168 168 106
Width: 888
GlyphClass: 2
Flags: W
LayerCount: 2
Fore
SplineSet
214 1334 m 1,0,-1
 214 1470 l 1,1,-1
 356 1470 l 1,2,-1
 356 1334 l 1,3,-1
 214 1334 l 1,0,-1
538 1334 m 1,4,-1
 538 1470 l 1,5,-1
 676 1470 l 1,6,-1
 676 1334 l 1,7,-1
 538 1334 l 1,4,-1
EndSplineSet
EndChar

StartChar: copyright
Encoding: 169 169 107
Width: 1816
GlyphClass: 2
Flags: W
LayerCount: 2
Fore
SplineSet
558 744 m 0,0,1
 558 952 558 952 659 1089 c 128,-1,2
 760 1226 760 1226 940 1226 c 0,3,4
 1026 1226 1026 1226 1107 1179 c 128,-1,5
 1188 1132 1188 1132 1242 1022 c 1,6,-1
 1184 1002 l 1,7,8
 1150 1078 1150 1078 1085 1124 c 128,-1,9
 1020 1170 1020 1170 940 1170 c 0,10,11
 794 1170 794 1170 707 1052 c 128,-1,12
 620 934 620 934 620 744 c 0,13,14
 620 550 620 550 708 433 c 128,-1,15
 796 316 796 316 940 316 c 0,16,17
 1032 316 1032 316 1101 368 c 128,-1,18
 1170 420 1170 420 1208 496 c 1,19,-1
 1266 474 l 1,20,21
 1220 384 1220 384 1135 323 c 128,-1,22
 1050 262 1050 262 940 262 c 0,23,24
 772 262 772 262 665 393 c 128,-1,25
 558 524 558 524 558 744 c 0,0,1
126 750 m 0,26,27
 126 1082 126 1082 349 1304 c 128,-1,28
 572 1526 572 1526 908 1526 c 0,29,30
 1246 1526 1246 1526 1469 1306 c 128,-1,31
 1692 1086 1692 1086 1692 750 c 0,32,33
 1692 424 1692 424 1470 198 c 128,-1,34
 1248 -28 1248 -28 908 -28 c 0,35,36
 574 -28 574 -28 350 196 c 128,-1,37
 126 420 126 420 126 750 c 0,26,27
178 750 m 0,38,39
 178 452 178 452 383 236 c 128,-1,40
 588 20 588 20 908 20 c 0,41,42
 1230 20 1230 20 1435 236 c 128,-1,43
 1640 452 1640 452 1640 750 c 0,44,45
 1640 1052 1640 1052 1433 1265 c 128,-1,46
 1226 1478 1226 1478 908 1478 c 0,47,48
 596 1478 596 1478 387 1268 c 128,-1,49
 178 1058 178 1058 178 750 c 0,38,39
EndSplineSet
EndChar

StartChar: ordfeminine
Encoding: 170 170 108
Width: 780
GlyphClass: 2
Flags: W
LayerCount: 2
Fore
SplineSet
72 696 m 1,0,-1
 72 746 l 1,1,-1
 706 746 l 1,2,-1
 706 696 l 1,3,-1
 72 696 l 1,0,-1
126 1100 m 0,4,5
 126 1042 126 1042 178 997 c 128,-1,6
 230 952 230 952 324 952 c 0,7,8
 436 952 436 952 519 1026 c 128,-1,9
 602 1100 602 1100 602 1212 c 2,10,-1
 602 1346 l 1,11,12
 554 1326 554 1326 457 1310 c 128,-1,13
 360 1294 360 1294 295 1280 c 128,-1,14
 230 1266 230 1266 178 1221 c 128,-1,15
 126 1176 126 1176 126 1100 c 0,4,5
72 1098 m 0,16,17
 72 1192 72 1192 135 1249 c 128,-1,18
 198 1306 198 1306 274 1321 c 128,-1,19
 350 1336 350 1336 453 1355 c 128,-1,20
 556 1374 556 1374 602 1396 c 1,21,-1
 602 1426 l 2,22,23
 602 1516 602 1516 544 1572 c 128,-1,24
 486 1628 486 1628 380 1628 c 0,25,26
 294 1628 294 1628 231 1585 c 128,-1,27
 168 1542 168 1542 148 1508 c 1,28,-1
 106 1532 l 1,29,30
 148 1594 148 1594 223 1635 c 128,-1,31
 298 1676 298 1676 380 1676 c 0,32,33
 518 1676 518 1676 588 1605 c 128,-1,34
 658 1534 658 1534 658 1422 c 2,35,-1
 658 930 l 1,36,-1
 606 930 l 1,37,-1
 606 1060 l 1,38,39
 568 994 568 994 493 949 c 128,-1,40
 418 904 418 904 322 904 c 0,41,42
 208 904 208 904 140 958 c 128,-1,43
 72 1012 72 1012 72 1098 c 0,16,17
EndSplineSet
EndChar

StartChar: guillemotleft
Encoding: 171 171 109
Width: 822
GlyphClass: 2
Flags: W
LayerCount: 2
Fore
SplineSet
70 504 m 1,0,-1
 386 942 l 1,1,-1
 432 912 l 1,2,-1
 140 504 l 1,3,-1
 430 92 l 1,4,-1
 382 60 l 1,5,-1
 70 504 l 1,0,-1
384 504 m 1,6,-1
 700 940 l 1,7,-1
 746 908 l 1,8,-1
 454 504 l 1,9,-1
 744 94 l 1,10,-1
 698 62 l 1,11,-1
 384 504 l 1,6,-1
EndSplineSet
EndChar

StartChar: logicalnot
Encoding: 172 172 110
Width: 1086
GlyphClass: 2
Flags: W
LayerCount: 2
Fore
SplineSet
106 678 m 1,0,-1
 106 730 l 1,1,-1
 982 730 l 1,2,-1
 982 258 l 1,3,-1
 920 258 l 1,4,-1
 920 678 l 1,5,-1
 106 678 l 1,0,-1
EndSplineSet
EndChar

StartChar: uni00AD
Encoding: 173 173 111
Width: 1126
GlyphClass: 2
Flags: W
LayerCount: 2
Fore
SplineSet
138 696 m 1,0,-1
 138 750 l 1,1,-1
 994 750 l 1,2,-1
 994 696 l 1,3,-1
 138 696 l 1,0,-1
EndSplineSet
EndChar

StartChar: registered
Encoding: 174 174 112
Width: 1816
GlyphClass: 2
Flags: W
LayerCount: 2
Fore
SplineSet
662 296 m 1,0,-1
 662 1198 l 1,1,-1
 980 1198 l 2,2,3
 1102 1198 1102 1198 1173 1127 c 128,-1,4
 1244 1056 1244 1056 1244 954 c 0,5,6
 1244 786 1244 786 1084 728 c 1,7,8
 1154 686 1154 686 1188 562 c 0,9,10
 1192 546 1192 546 1203 495 c 128,-1,11
 1214 444 1214 444 1220 422 c 128,-1,12
 1226 400 1226 400 1241 362 c 128,-1,13
 1256 324 1256 324 1272 296 c 1,14,-1
 1198 296 l 1,15,16
 1184 322 1184 322 1172 356 c 128,-1,17
 1160 390 1160 390 1154 414 c 128,-1,18
 1148 438 1148 438 1139 480 c 128,-1,19
 1130 522 1130 522 1124 540 c 0,20,21
 1104 620 1104 620 1070 662 c 128,-1,22
 1036 704 1036 704 964 704 c 2,23,-1
 726 704 l 1,24,-1
 726 296 l 1,25,-1
 662 296 l 1,0,-1
726 760 m 1,26,-1
 968 760 l 2,27,28
 1062 760 1062 760 1119 812 c 128,-1,29
 1176 864 1176 864 1176 950 c 0,30,31
 1176 1034 1176 1034 1125 1089 c 128,-1,32
 1074 1144 1074 1144 968 1144 c 2,33,-1
 726 1144 l 1,34,-1
 726 760 l 1,26,-1
126 748 m 0,35,36
 126 1082 126 1082 350 1304 c 128,-1,37
 574 1526 574 1526 908 1526 c 0,38,39
 1246 1526 1246 1526 1469 1306 c 128,-1,40
 1692 1086 1692 1086 1692 748 c 0,41,42
 1692 422 1692 422 1472 197 c 128,-1,43
 1252 -28 1252 -28 908 -28 c 0,44,45
 574 -28 574 -28 350 195 c 128,-1,46
 126 418 126 418 126 748 c 0,35,36
178 748 m 0,47,48
 178 450 178 450 382 235 c 128,-1,49
 586 20 586 20 908 20 c 256,50,51
 1230 20 1230 20 1435 236 c 128,-1,52
 1640 452 1640 452 1640 748 c 0,53,54
 1640 1048 1640 1048 1434 1263 c 128,-1,55
 1228 1478 1228 1478 908 1478 c 0,56,57
 596 1478 596 1478 387 1267 c 128,-1,58
 178 1056 178 1056 178 748 c 0,47,48
EndSplineSet
EndChar

StartChar: macron
Encoding: 175 175 113
Width: 1052
GlyphClass: 2
Flags: W
LayerCount: 2
Fore
SplineSet
0 1594 m 1,0,-1
 0 1646 l 1,1,-1
 1054 1646 l 1,2,-1
 1054 1594 l 1,3,-1
 0 1594 l 1,0,-1
EndSplineSet
EndChar

StartChar: degree
Encoding: 176 176 114
Width: 828
GlyphClass: 2
Flags: W
LayerCount: 2
Fore
SplineSet
180 1266 m 0,0,1
 180 1354 180 1354 246 1420 c 128,-1,2
 312 1486 312 1486 416 1486 c 0,3,4
 514 1486 514 1486 581 1424 c 128,-1,5
 648 1362 648 1362 648 1266 c 0,6,7
 648 1168 648 1168 580 1104 c 128,-1,8
 512 1040 512 1040 416 1040 c 0,9,10
 318 1040 318 1040 249 1105 c 128,-1,11
 180 1170 180 1170 180 1266 c 0,0,1
230 1266 m 0,12,13
 230 1186 230 1186 283 1136 c 128,-1,14
 336 1086 336 1086 416 1086 c 0,15,16
 490 1086 490 1086 544 1138 c 128,-1,17
 598 1190 598 1190 598 1266 c 0,18,19
 598 1340 598 1340 549 1390 c 128,-1,20
 500 1440 500 1440 416 1440 c 0,21,22
 330 1440 330 1440 280 1390 c 128,-1,23
 230 1340 230 1340 230 1266 c 0,12,13
EndSplineSet
EndChar

StartChar: plusminus
Encoding: 177 177 115
Width: 1126
GlyphClass: 2
Flags: W
LayerCount: 2
Fore
SplineSet
94 824 m 1,0,-1
 94 878 l 1,1,-1
 536 878 l 1,2,-1
 536 1292 l 1,3,-1
 594 1292 l 1,4,-1
 594 878 l 1,5,-1
 1036 878 l 1,6,-1
 1036 824 l 1,7,-1
 594 824 l 1,8,-1
 594 410 l 1,9,-1
 536 410 l 1,10,-1
 536 824 l 1,11,-1
 94 824 l 1,0,-1
100 172 m 1,12,-1
 100 224 l 1,13,-1
 1030 224 l 1,14,-1
 1030 172 l 1,15,-1
 100 172 l 1,12,-1
EndSplineSet
EndChar

StartChar: twosuperior
Encoding: 178 178 116
Width: 626
GlyphClass: 2
Flags: W
LayerCount: 2
Fore
SplineSet
68 1476 m 1,0,1
 88 1556 88 1556 147 1615 c 128,-1,2
 206 1674 206 1674 314 1674 c 0,3,4
 414 1674 414 1674 478 1616 c 128,-1,5
 542 1558 542 1558 542 1454 c 0,6,7
 542 1328 542 1328 412 1208 c 0,8,9
 266 1072 266 1072 208 1008 c 128,-1,10
 150 944 150 944 134 888 c 1,11,-1
 542 888 l 1,12,-1
 542 842 l 1,13,-1
 72 842 l 1,14,15
 72 846 72 846 72 850 c 0,16,17
 72 882 72 882 86 916 c 128,-1,18
 100 950 100 950 140 999 c 128,-1,19
 180 1048 180 1048 203 1073 c 128,-1,20
 226 1098 226 1098 293 1162 c 128,-1,21
 360 1226 360 1226 378 1244 c 0,22,23
 490 1356 490 1356 490 1454 c 0,24,25
 490 1536 490 1536 441 1581 c 128,-1,26
 392 1626 392 1626 312 1626 c 0,27,28
 166 1626 166 1626 116 1466 c 1,29,-1
 68 1476 l 1,0,1
EndSplineSet
EndChar

StartChar: threesuperior
Encoding: 179 179 117
Width: 626
GlyphClass: 2
Flags: W
LayerCount: 2
Fore
SplineSet
54 966 m 1,0,-1
 98 992 l 1,1,2
 170 870 170 870 298 870 c 0,3,4
 386 870 386 870 446 919 c 128,-1,5
 506 968 506 968 506 1066 c 0,6,7
 506 1144 506 1144 453 1198 c 128,-1,8
 400 1252 400 1252 272 1252 c 0,9,10
 262 1252 262 1252 228 1248 c 1,11,-1
 228 1300 l 1,12,13
 246 1298 246 1298 270 1298 c 0,14,15
 382 1298 382 1298 428 1349 c 128,-1,16
 474 1400 474 1400 474 1468 c 0,17,18
 474 1538 474 1538 426 1583 c 128,-1,19
 378 1628 378 1628 300 1628 c 0,20,21
 190 1628 190 1628 122 1502 c 1,22,-1
 76 1518 l 1,23,24
 148 1676 148 1676 300 1676 c 0,25,26
 404 1676 404 1676 464 1617 c 128,-1,27
 524 1558 524 1558 524 1470 c 0,28,29
 524 1334 524 1334 400 1278 c 1,30,31
 558 1226 558 1226 558 1066 c 0,32,33
 558 948 558 948 485 885 c 128,-1,34
 412 822 412 822 298 822 c 0,35,36
 138 822 138 822 54 966 c 1,0,-1
EndSplineSet
EndChar

StartChar: acute
Encoding: 180 180 118
Width: 652
GlyphClass: 2
Flags: W
LayerCount: 2
Fore
SplineSet
180 1324 m 1,0,-1
 414 1672 l 1,1,-1
 522 1672 l 1,2,-1
 246 1324 l 1,3,-1
 180 1324 l 1,0,-1
EndSplineSet
EndChar

StartChar: uni00B5
Encoding: 181 181 119
Width: 1192
GlyphClass: 2
Flags: W
LayerCount: 2
Fore
SplineSet
208 -488 m 1,0,-1
 208 1040 l 1,1,-1
 272 1040 l 1,2,-1
 272 370 l 2,3,4
 272 214 272 214 343 113 c 128,-1,5
 414 12 414 12 562 12 c 0,6,7
 738 12 738 12 836 139 c 128,-1,8
 934 266 934 266 934 438 c 2,9,-1
 934 1040 l 1,10,-1
 994 1040 l 1,11,-1
 994 0 l 1,12,-1
 936 0 l 1,13,-1
 936 226 l 1,14,-1
 932 226 l 1,15,16
 906 124 906 124 809 43 c 128,-1,17
 712 -38 712 -38 554 -38 c 0,18,19
 350 -38 350 -38 272 134 c 1,20,-1
 272 -488 l 1,21,-1
 208 -488 l 1,0,-1
EndSplineSet
EndChar

StartChar: paragraph
Encoding: 182 182 120
Width: 1288
GlyphClass: 2
Flags: W
LayerCount: 2
Fore
SplineSet
150 1106 m 0,0,1
 150 1308 150 1308 255 1432 c 128,-1,2
 360 1556 360 1556 546 1556 c 2,3,-1
 1080 1556 l 1,4,-1
 1080 -142 l 1,5,-1
 1026 -142 l 1,6,-1
 1026 1494 l 1,7,-1
 750 1494 l 1,8,-1
 750 -142 l 1,9,-1
 694 -142 l 1,10,-1
 694 688 l 1,11,12
 596 660 596 660 520 660 c 0,13,14
 362 660 362 660 256 777 c 128,-1,15
 150 894 150 894 150 1106 c 0,0,1
EndSplineSet
EndChar

StartChar: periodcentered
Encoding: 183 183 121
Width: 688
GlyphClass: 2
Flags: W
LayerCount: 2
Fore
SplineSet
260 618 m 1,0,-1
 260 788 l 1,1,-1
 430 788 l 1,2,-1
 430 618 l 1,3,-1
 260 618 l 1,0,-1
EndSplineSet
EndChar

StartChar: cedilla
Encoding: 184 184 122
Width: 580
GlyphClass: 2
Flags: W
LayerCount: 2
Fore
SplineSet
98 -396 m 1,0,1
 202 -416 202 -416 230 -416 c 0,2,3
 404 -416 404 -416 404 -300 c 0,4,5
 404 -204 404 -204 198 -174 c 1,6,-1
 270 -30 l 1,7,-1
 328 -30 l 1,8,-1
 274 -140 l 1,9,10
 462 -172 462 -172 462 -302 c 0,11,12
 462 -382 462 -382 403 -425 c 128,-1,13
 344 -468 344 -468 232 -468 c 0,14,15
 172 -468 172 -468 98 -442 c 1,16,-1
 98 -396 l 1,0,1
EndSplineSet
EndChar

StartChar: onesuperior
Encoding: 185 185 123
Width: 626
GlyphClass: 2
Flags: W
LayerCount: 2
Fore
SplineSet
134 1504 m 1,0,-1
 134 1546 l 1,1,-1
 186 1546 l 2,2,3
 262 1546 262 1546 286 1559 c 128,-1,4
 310 1572 310 1572 310 1614 c 2,5,-1
 310 1668 l 1,6,-1
 356 1668 l 1,7,-1
 356 830 l 1,8,-1
 302 830 l 1,9,-1
 302 1504 l 1,10,-1
 134 1504 l 1,0,-1
EndSplineSet
EndChar

StartChar: ordmasculine
Encoding: 186 186 124
Width: 780
GlyphClass: 2
Flags: W
LayerCount: 2
Fore
SplineSet
134 1292 m 256,0,1
 134 1144 134 1144 203 1048 c 128,-1,2
 272 952 272 952 388 952 c 256,3,4
 504 952 504 952 575 1049 c 128,-1,5
 646 1146 646 1146 646 1292 c 256,6,7
 646 1438 646 1438 575 1533 c 128,-1,8
 504 1628 504 1628 388 1628 c 0,9,10
 276 1628 276 1628 205 1534 c 128,-1,11
 134 1440 134 1440 134 1292 c 256,0,1
76 1292 m 0,12,13
 76 1460 76 1460 160 1568 c 128,-1,14
 244 1676 244 1676 388 1676 c 0,15,16
 530 1676 530 1676 615 1568 c 128,-1,17
 700 1460 700 1460 700 1292 c 0,18,19
 700 1132 700 1132 618 1018 c 128,-1,20
 536 904 536 904 388 904 c 256,21,22
 240 904 240 904 158 1018 c 128,-1,23
 76 1132 76 1132 76 1292 c 0,12,13
72 696 m 1,24,-1
 72 746 l 1,25,-1
 706 746 l 1,26,-1
 706 696 l 1,27,-1
 72 696 l 1,24,-1
EndSplineSet
EndChar

StartChar: guillemotright
Encoding: 187 187 125
Width: 822
GlyphClass: 2
Flags: W
LayerCount: 2
Fore
SplineSet
76 908 m 1,0,-1
 122 940 l 1,1,-1
 438 504 l 1,2,-1
 124 62 l 1,3,-1
 82 94 l 1,4,-1
 370 504 l 1,5,-1
 76 908 l 1,0,-1
392 92 m 1,6,-1
 684 504 l 1,7,-1
 390 912 l 1,8,-1
 436 942 l 1,9,-1
 752 504 l 1,10,-1
 440 60 l 1,11,-1
 392 92 l 1,6,-1
EndSplineSet
EndChar

StartChar: onequarter
Encoding: 188 188 126
Width: 1930
GlyphClass: 3
Flags: W
LayerCount: 2
Fore
SplineSet
1144 224 m 1,0,-1
 1532 224 l 1,1,-1
 1532 688 l 2,2,3
 1532 712 1532 712 1533 757 c 128,-1,4
 1534 802 1534 802 1534 820 c 1,5,-1
 1468 712 l 1,6,-1
 1144 224 l 1,0,-1
1078 216 m 1,7,-1
 1530 908 l 1,8,-1
 1590 908 l 1,9,-1
 1590 224 l 1,10,-1
 1748 224 l 1,11,-1
 1748 172 l 1,12,-1
 1590 172 l 1,13,-1
 1590 -84 l 1,14,-1
 1532 -84 l 1,15,-1
 1532 172 l 1,16,-1
 1078 172 l 1,17,-1
 1078 216 l 1,7,-1
188 1414 m 1,18,-1
 188 1462 l 1,19,-1
 248 1462 l 2,20,21
 340 1462 340 1462 368 1475 c 128,-1,22
 396 1488 396 1488 396 1542 c 2,23,-1
 396 1606 l 1,24,-1
 444 1606 l 1,25,-1
 444 616 l 1,26,-1
 386 616 l 1,27,-1
 386 1414 l 1,28,-1
 188 1414 l 1,18,-1
328 -104 m 1,29,-1
 1324 1574 l 1,30,-1
 1388 1574 l 1,31,-1
 392 -104 l 1,32,-1
 328 -104 l 1,29,-1
EndSplineSet
Ligature2: "'frac' Diagonal Fractions lookup 7 subtable" one fraction four
Ligature2: "'frac' Diagonal Fractions lookup 7 subtable" one slash four
EndChar

StartChar: onehalf
Encoding: 189 189 127
Width: 1930
GlyphClass: 3
Flags: W
LayerCount: 2
Fore
SplineSet
1146 682 m 1,0,1
 1218 914 1218 914 1434 914 c 0,2,3
 1552 914 1552 914 1627 846 c 128,-1,4
 1702 778 1702 778 1702 654 c 0,5,6
 1702 508 1702 508 1554 368 c 0,7,8
 1374 202 1374 202 1306 126 c 128,-1,9
 1238 50 1238 50 1218 -14 c 1,10,-1
 1702 -14 l 1,11,-1
 1702 -68 l 1,12,-1
 1150 -68 l 1,13,14
 1150 20 1150 20 1225 113 c 128,-1,15
 1300 206 1300 206 1504 400 c 0,16,17
 1644 532 1644 532 1644 654 c 0,18,19
 1644 754 1644 754 1586 807 c 128,-1,20
 1528 860 1528 860 1430 860 c 0,21,22
 1348 860 1348 860 1286 809 c 128,-1,23
 1224 758 1224 758 1200 670 c 1,24,-1
 1146 682 l 1,0,1
188 1414 m 1,25,-1
 188 1462 l 1,26,-1
 248 1462 l 2,27,28
 340 1462 340 1462 368 1475 c 128,-1,29
 396 1488 396 1488 396 1542 c 2,30,-1
 396 1606 l 1,31,-1
 444 1606 l 1,32,-1
 444 616 l 1,33,-1
 386 616 l 1,34,-1
 386 1414 l 1,35,-1
 188 1414 l 1,25,-1
280 -104 m 1,36,-1
 1312 1572 l 1,37,-1
 1376 1572 l 1,38,-1
 348 -104 l 1,39,-1
 280 -104 l 1,36,-1
EndSplineSet
Ligature2: "'frac' Diagonal Fractions lookup 7 subtable" one fraction two
Ligature2: "'frac' Diagonal Fractions lookup 7 subtable" one slash two
EndChar

StartChar: threequarters
Encoding: 190 190 128
Width: 1930
GlyphClass: 3
Flags: W
LayerCount: 2
Fore
SplineSet
130 780 m 1,0,-1
 182 806 l 1,1,2
 268 664 268 664 420 664 c 0,3,4
 526 664 526 664 597 722 c 128,-1,5
 668 780 668 780 668 896 c 0,6,7
 668 1006 668 1006 592 1061 c 128,-1,8
 516 1116 516 1116 410 1116 c 0,9,10
 354 1116 354 1116 336 1114 c 1,11,-1
 336 1170 l 1,12,13
 354 1168 354 1168 406 1168 c 0,14,15
 506 1168 506 1168 567 1222 c 128,-1,16
 628 1276 628 1276 628 1372 c 0,17,18
 628 1456 628 1456 571 1510 c 128,-1,19
 514 1564 514 1564 422 1564 c 0,20,21
 286 1564 286 1564 212 1412 c 1,22,-1
 158 1432 l 1,23,24
 242 1616 242 1616 422 1616 c 0,25,26
 544 1616 544 1616 615 1546 c 128,-1,27
 686 1476 686 1476 686 1374 c 0,28,29
 686 1290 686 1290 643 1231 c 128,-1,30
 600 1172 600 1172 536 1148 c 1,31,32
 616 1124 616 1124 671 1061 c 128,-1,33
 726 998 726 998 726 896 c 0,34,35
 726 756 726 756 641 683 c 128,-1,36
 556 610 556 610 420 610 c 0,37,38
 316 610 316 610 242 661 c 128,-1,39
 168 712 168 712 130 780 c 1,0,-1
1098 216 m 1,40,-1
 1552 908 l 1,41,-1
 1612 908 l 1,42,-1
 1612 224 l 1,43,-1
 1770 224 l 1,44,-1
 1770 172 l 1,45,-1
 1612 172 l 1,46,-1
 1612 -84 l 1,47,-1
 1554 -84 l 1,48,-1
 1554 172 l 1,49,-1
 1098 172 l 1,50,-1
 1098 216 l 1,40,-1
1164 224 m 1,51,-1
 1554 224 l 1,52,-1
 1554 688 l 2,53,54
 1554 712 1554 712 1555 755 c 128,-1,55
 1556 798 1556 798 1556 818 c 1,56,-1
 1164 224 l 1,51,-1
448 -104 m 1,57,-1
 1476 1572 l 1,58,-1
 1540 1572 l 1,59,-1
 514 -104 l 1,60,-1
 448 -104 l 1,57,-1
EndSplineSet
Ligature2: "'frac' Diagonal Fractions lookup 7 subtable" three fraction four
Ligature2: "'frac' Diagonal Fractions lookup 7 subtable" three slash four
EndChar

StartChar: questiondown
Encoding: 191 191 129
Width: 1078
GlyphClass: 2
Flags: W
LayerCount: 2
Fore
SplineSet
158 -94 m 0,0,1
 158 -2 158 -2 196 72 c 128,-1,2
 234 146 234 146 290 198 c 128,-1,3
 346 250 346 250 401 302 c 128,-1,4
 456 354 456 354 494 430 c 128,-1,5
 532 506 532 506 532 600 c 2,6,-1
 532 632 l 1,7,-1
 592 632 l 1,8,-1
 592 598 l 2,9,10
 592 496 592 496 554 415 c 128,-1,11
 516 334 516 334 462 282 c 128,-1,12
 408 230 408 230 353 180 c 128,-1,13
 298 130 298 130 259 62 c 128,-1,14
 220 -6 220 -6 220 -92 c 0,15,16
 220 -242 220 -242 303 -331 c 128,-1,17
 386 -420 386 -420 534 -420 c 0,18,19
 756 -420 756 -420 876 -170 c 1,20,-1
 928 -194 l 1,21,22
 870 -330 870 -330 766 -402 c 128,-1,23
 662 -474 662 -474 536 -474 c 0,24,25
 360 -474 360 -474 259 -370 c 128,-1,26
 158 -266 158 -266 158 -94 c 0,0,1
476 882 m 1,27,-1
 476 1048 l 1,28,-1
 646 1048 l 1,29,-1
 646 882 l 1,30,-1
 476 882 l 1,27,-1
EndSplineSet
EndChar

StartChar: AE
Encoding: 198 198 136
Width: 1828
GlyphClass: 2
Flags: W
LayerCount: 2
Fore
SplineSet
418 538 m 1,0,-1
 988 538 l 1,1,-1
 988 1416 l 1,2,-1
 968 1416 l 1,3,-1
 418 538 l 1,0,-1
6 0 m 1,4,-1
 936 1470 l 1,5,-1
 1736 1470 l 1,6,-1
 1736 1416 l 1,7,-1
 1050 1416 l 1,8,-1
 1050 790 l 1,9,-1
 1664 790 l 1,10,-1
 1664 738 l 1,11,-1
 1048 738 l 1,12,-1
 1048 54 l 1,13,-1
 1742 54 l 1,14,-1
 1742 0 l 1,15,-1
 988 0 l 1,16,-1
 988 486 l 1,17,-1
 386 486 l 1,18,-1
 76 0 l 1,19,-1
 6 0 l 1,4,-1
EndSplineSet
EndChar

StartChar: multiply
Encoding: 215 215 153
Width: 1126
GlyphClass: 2
Flags: W
LayerCount: 2
Fore
SplineSet
102 334 m 1,0,-1
 526 718 l 1,1,-1
 112 1102 l 1,2,-1
 152 1144 l 1,3,-1
 564 754 l 1,4,-1
 978 1144 l 1,5,-1
 1018 1102 l 1,6,-1
 606 718 l 1,7,-1
 1030 332 l 1,8,-1
 988 294 l 1,9,-1
 564 680 l 1,10,-1
 144 294 l 1,11,-1
 102 334 l 1,0,-1
EndSplineSet
EndChar

StartChar: Oslash
Encoding: 216 216 154
Width: 1402
GlyphClass: 2
Flags: W
LayerCount: 2
Fore
SplineSet
128 734 m 0,0,1
 128 1084 128 1084 282 1297 c 128,-1,2
 436 1510 436 1510 702 1510 c 0,3,4
 876 1510 876 1510 1008 1414 c 1,5,-1
 1098 1596 l 1,6,-1
 1160 1596 l 1,7,-1
 1052 1378 l 1,8,9
 1274 1174 1274 1174 1274 734 c 0,10,11
 1274 388 1274 388 1122 175 c 128,-1,12
 970 -38 970 -38 702 -38 c 0,13,14
 556 -38 556 -38 442 30 c 1,15,-1
 350 -164 l 1,16,-1
 286 -164 l 1,17,-1
 400 58 l 1,18,19
 268 154 268 154 198 329 c 128,-1,20
 128 504 128 504 128 734 c 0,0,1
1022 1318 m 1,21,-1
 470 82 l 1,22,23
 572 16 572 16 702 16 c 0,24,25
 942 16 942 16 1077 215 c 128,-1,26
 1212 414 1212 414 1212 734 c 0,27,28
 1212 1130 1212 1130 1022 1318 c 1,21,-1
982 1358 m 1,29,30
 860 1454 860 1454 702 1454 c 0,31,32
 468 1454 468 1454 331 1259 c 128,-1,33
 194 1064 194 1064 194 734 c 0,34,35
 194 526 194 526 253 364 c 128,-1,36
 312 202 312 202 424 112 c 1,37,-1
 982 1358 l 1,29,30
EndSplineSet
EndChar

StartChar: Thorn
Encoding: 222 222 160
Width: 1254
GlyphClass: 2
Flags: W
LayerCount: 2
Fore
SplineSet
256 0 m 1,0,-1
 256 1472 l 1,1,-1
 316 1472 l 1,2,-1
 316 1196 l 1,3,-1
 654 1196 l 2,4,5
 902 1196 902 1196 1026 1081 c 128,-1,6
 1150 966 1150 966 1150 754 c 0,7,8
 1150 524 1150 524 1006 416 c 128,-1,9
 862 308 862 308 614 308 c 2,10,-1
 316 308 l 1,11,-1
 316 0 l 1,12,-1
 256 0 l 1,0,-1
316 360 m 1,13,-1
 606 360 l 2,14,15
 1088 360 1088 360 1088 752 c 256,16,17
 1088 1144 1088 1144 642 1144 c 2,18,-1
 316 1144 l 1,19,-1
 316 360 l 1,13,-1
EndSplineSet
EndChar

StartChar: germandbls
Encoding: 223 223 161
Width: 1348
GlyphClass: 2
Flags: W
LayerCount: 2
Fore
SplineSet
256 0 m 1,0,-1
 256 1144 l 2,1,2
 256 1316 256 1316 374 1413 c 128,-1,3
 492 1510 492 1510 678 1510 c 0,4,5
 858 1510 858 1510 975 1403 c 128,-1,6
 1092 1296 1092 1296 1092 1122 c 0,7,8
 1092 986 1092 986 1038 895 c 128,-1,9
 984 804 984 804 906 766 c 1,10,-1
 906 760 l 1,11,12
 958 750 958 750 1008 724 c 128,-1,13
 1058 698 1058 698 1110 653 c 128,-1,14
 1162 608 1162 608 1194 529 c 128,-1,15
 1226 450 1226 450 1226 352 c 0,16,17
 1226 190 1226 190 1118 76 c 128,-1,18
 1010 -38 1010 -38 826 -38 c 0,19,20
 664 -38 664 -38 512 8 c 1,21,-1
 528 64 l 1,22,23
 662 16 662 16 824 16 c 0,24,25
 964 16 964 16 1063 109 c 128,-1,26
 1162 202 1162 202 1162 352 c 0,27,28
 1162 538 1162 538 1047 633 c 128,-1,29
 932 728 932 728 776 728 c 2,30,-1
 658 728 l 1,31,-1
 658 780 l 1,32,-1
 766 780 l 2,33,34
 884 780 884 780 956 878 c 128,-1,35
 1028 976 1028 976 1028 1116 c 0,36,37
 1028 1262 1028 1262 933 1358 c 128,-1,38
 838 1454 838 1454 676 1454 c 256,39,40
 514 1454 514 1454 415 1368 c 128,-1,41
 316 1282 316 1282 316 1138 c 2,42,-1
 316 0 l 1,43,-1
 256 0 l 1,0,-1
EndSplineSet
EndChar

StartChar: ae
Encoding: 230 230 168
Width: 1882
GlyphClass: 2
Flags: W
LayerCount: 2
Fore
SplineSet
106 238 m 0,0,1
 106 374 106 374 204 461 c 128,-1,2
 302 548 302 548 532 582 c 0,3,4
 796 624 796 624 884 666 c 1,5,-1
 884 720 l 2,6,7
 884 852 884 852 797 939 c 128,-1,8
 710 1026 710 1026 548 1026 c 0,9,10
 334 1026 334 1026 204 850 c 1,11,-1
 158 878 l 1,12,13
 216 962 216 962 320 1020 c 128,-1,14
 424 1078 424 1078 548 1078 c 0,15,16
 722 1078 722 1078 818 994 c 128,-1,17
 914 910 914 910 932 780 c 1,18,19
 980 914 980 914 1086 996 c 128,-1,20
 1192 1078 1192 1078 1332 1078 c 0,21,22
 1530 1078 1530 1078 1651 921 c 128,-1,23
 1772 764 1772 764 1772 556 c 2,24,-1
 1772 502 l 1,25,-1
 944 502 l 1,26,-1
 944 450 l 1,27,28
 958 266 958 266 1061 139 c 128,-1,29
 1164 12 1164 12 1336 12 c 0,30,31
 1458 12 1458 12 1548 71 c 128,-1,32
 1638 130 1638 130 1686 220 c 1,33,-1
 1740 198 l 1,34,35
 1608 -38 1608 -38 1334 -38 c 0,36,37
 1178 -38 1178 -38 1071 53 c 128,-1,38
 964 144 964 144 920 296 c 1,39,40
 880 148 880 148 753 55 c 128,-1,41
 626 -38 626 -38 462 -38 c 256,42,43
 298 -38 298 -38 202 39 c 128,-1,44
 106 116 106 116 106 238 c 0,0,1
168 240 m 0,45,46
 168 148 168 148 245 80 c 128,-1,47
 322 12 322 12 464 12 c 0,48,49
 634 12 634 12 759 122 c 128,-1,50
 884 232 884 232 884 406 c 2,51,-1
 884 614 l 1,52,53
 766 568 766 568 536 534 c 0,54,55
 340 506 340 506 254 433 c 128,-1,56
 168 360 168 360 168 240 c 0,45,46
944 550 m 1,57,-1
 1714 550 l 1,58,59
 1714 742 1714 742 1608 884 c 128,-1,60
 1502 1026 1502 1026 1332 1026 c 0,61,62
 1166 1026 1166 1026 1064 898 c 128,-1,63
 962 770 962 770 946 594 c 2,64,-1
 944 550 l 1,57,-1
EndSplineSet
EndChar

StartChar: eth
Encoding: 240 240 178
Width: 1136
GlyphClass: 2
Flags: W
LayerCount: 2
Fore
SplineSet
118 486 m 0,0,1
 118 726 118 726 242 863 c 128,-1,2
 366 1000 366 1000 570 1000 c 0,3,4
 714 1000 714 1000 807 930 c 128,-1,5
 900 860 900 860 940 754 c 1,6,7
 892 1148 892 1148 688 1332 c 1,8,-1
 386 1114 l 1,9,-1
 352 1154 l 1,10,-1
 644 1366 l 1,11,12
 522 1458 522 1458 350 1482 c 1,13,-1
 366 1532 l 1,14,15
 560 1502 560 1502 694 1402 c 1,16,-1
 898 1550 l 1,17,-1
 932 1508 l 1,18,-1
 738 1368 l 1,19,20
 806 1308 806 1308 856 1230 c 0,21,22
 1012 978 1012 978 1012 500 c 0,23,24
 1012 266 1012 266 899 114 c 128,-1,25
 786 -38 786 -38 570 -38 c 0,26,27
 350 -38 350 -38 234 113 c 128,-1,28
 118 264 118 264 118 486 c 0,0,1
178 486 m 0,29,30
 178 276 178 276 282 144 c 128,-1,31
 386 12 386 12 572 12 c 0,32,33
 746 12 746 12 847 142 c 128,-1,34
 948 272 948 272 948 492 c 0,35,36
 948 700 948 700 845 824 c 128,-1,37
 742 948 742 948 572 948 c 0,38,39
 400 948 400 948 289 829 c 128,-1,40
 178 710 178 710 178 486 c 0,29,30
EndSplineSet
EndChar

StartChar: divide
Encoding: 247 247 185
Width: 1126
GlyphClass: 2
Flags: W
LayerCount: 2
Fore
SplineSet
486 1010 m 1,0,-1
 486 1162 l 1,1,-1
 644 1162 l 1,2,-1
 644 1010 l 1,3,-1
 486 1010 l 1,0,-1
70 696 m 1,4,-1
 70 750 l 1,5,-1
 1058 750 l 1,6,-1
 1058 696 l 1,7,-1
 70 696 l 1,4,-1
486 290 m 1,8,-1
 486 438 l 1,9,-1
 644 438 l 1,10,-1
 644 290 l 1,11,-1
 486 290 l 1,8,-1
EndSplineSet
EndChar

StartChar: oslash
Encoding: 248 248 186
Width: 1132
GlyphClass: 2
Flags: W
LayerCount: 2
Fore
SplineSet
118 520 m 0,0,1
 118 764 118 764 239 921 c 128,-1,2
 360 1078 360 1078 568 1078 c 0,3,4
 696 1078 696 1078 798 1008 c 1,5,-1
 874 1156 l 1,6,-1
 930 1156 l 1,7,-1
 840 976 l 1,8,9
 1016 822 1016 822 1016 520 c 0,10,11
 1016 286 1016 286 898 124 c 128,-1,12
 780 -38 780 -38 568 -38 c 0,13,14
 452 -38 452 -38 360 14 c 1,15,-1
 286 -130 l 1,16,-1
 230 -130 l 1,17,-1
 316 44 l 1,18,19
 220 116 220 116 169 244 c 128,-1,20
 118 372 118 372 118 520 c 0,0,1
810 922 m 1,21,-1
 384 64 l 1,22,23
 470 12 470 12 568 12 c 0,24,25
 742 12 742 12 849 157 c 128,-1,26
 956 302 956 302 956 520 c 0,27,28
 956 776 956 776 810 922 c 1,21,-1
774 956 m 1,29,30
 682 1026 682 1026 568 1026 c 0,31,32
 398 1026 398 1026 288 885 c 128,-1,33
 178 744 178 744 178 520 c 0,34,35
 178 234 178 234 344 96 c 1,36,-1
 774 956 l 1,29,30
EndSplineSet
EndChar

StartChar: thorn
Encoding: 254 254 192
Width: 1176
GlyphClass: 2
Flags: W
LayerCount: 2
Fore
SplineSet
268 524 m 0,0,1
 270 296 270 296 372 154 c 128,-1,2
 474 12 474 12 630 12 c 0,3,4
 794 12 794 12 898 148 c 128,-1,5
 1002 284 1002 284 1002 520 c 0,6,7
 1002 742 1002 742 904 884 c 128,-1,8
 806 1026 806 1026 630 1026 c 0,9,10
 480 1026 480 1026 374 885 c 128,-1,11
 268 744 268 744 268 532 c 0,12,13
 268 528 268 528 268 524 c 0,0,1
210 -488 m 1,14,-1
 210 1534 l 1,15,-1
 270 1534 l 1,16,-1
 270 774 l 1,17,18
 312 910 312 910 412 994 c 128,-1,19
 512 1078 512 1078 634 1078 c 0,20,21
 830 1078 830 1078 945 926 c 128,-1,22
 1060 774 1060 774 1060 520 c 0,23,24
 1060 252 1060 252 940 107 c 128,-1,25
 820 -38 820 -38 632 -38 c 0,26,27
 502 -38 502 -38 408 46 c 128,-1,28
 314 130 314 130 270 260 c 1,29,-1
 270 -488 l 1,30,-1
 210 -488 l 1,14,-1
EndSplineSet
EndChar

StartChar: dcroat
Encoding: 273 273 211
Width: 1174
GlyphClass: 2
Flags: W
LayerCount: 2
Fore
SplineSet
118 520 m 0,0,1
 118 782 118 782 236 930 c 128,-1,2
 354 1078 354 1078 544 1078 c 0,3,4
 680 1078 680 1078 777 987 c 128,-1,5
 874 896 874 896 908 770 c 1,6,-1
 908 1288 l 1,7,-1
 440 1288 l 1,8,-1
 440 1336 l 1,9,-1
 908 1336 l 1,10,-1
 908 1534 l 1,11,-1
 968 1534 l 1,12,-1
 968 1336 l 1,13,-1
 1134 1336 l 1,14,-1
 1134 1288 l 1,15,-1
 968 1288 l 1,16,-1
 968 0 l 1,17,-1
 908 0 l 1,18,-1
 908 252 l 1,19,20
 868 126 868 126 774 44 c 128,-1,21
 680 -38 680 -38 542 -38 c 0,22,23
 370 -38 370 -38 244 102 c 128,-1,24
 118 242 118 242 118 520 c 0,0,1
178 520 m 0,25,26
 178 292 178 292 279 152 c 128,-1,27
 380 12 380 12 550 12 c 0,28,29
 702 12 702 12 805 146 c 128,-1,30
 908 280 908 280 910 520 c 0,31,32
 910 524 910 524 910 528 c 0,33,34
 910 754 910 754 802 890 c 128,-1,35
 694 1026 694 1026 546 1026 c 0,36,37
 384 1026 384 1026 281 888 c 128,-1,38
 178 750 178 750 178 520 c 0,25,26
EndSplineSet
EndChar

StartChar: uni0123
Encoding: 291 291 229
Width: 1160
GlyphClass: 2
Flags: W
LayerCount: 2
Fore
SplineSet
490 1268 m 1,0,-1
 644 1608 l 1,1,-1
 696 1608 l 1,2,-1
 582 1268 l 1,3,-1
 490 1268 l 1,0,-1
178 538 m 0,4,5
 178 320 178 320 278 185 c 128,-1,6
 378 50 378 50 536 50 c 0,7,8
 702 50 702 50 798 181 c 128,-1,9
 894 312 894 312 894 542 c 0,10,11
 894 758 894 758 795 892 c 128,-1,12
 696 1026 696 1026 540 1026 c 0,13,14
 372 1026 372 1026 275 889 c 128,-1,15
 178 752 178 752 178 538 c 0,4,5
118 538 m 0,16,17
 118 778 118 778 232 928 c 128,-1,18
 346 1078 346 1078 536 1078 c 0,19,20
 680 1078 680 1078 767 992 c 128,-1,21
 854 906 854 906 894 794 c 1,22,-1
 894 1040 l 1,23,-1
 954 1040 l 1,24,-1
 954 74 l 2,25,26
 954 -218 954 -218 860 -357 c 128,-1,27
 766 -496 766 -496 544 -496 c 0,28,29
 440 -496 440 -496 346 -450 c 128,-1,30
 252 -404 252 -404 196 -328 c 1,31,-1
 242 -298 l 1,32,33
 368 -444 368 -444 546 -444 c 0,34,35
 738 -444 738 -444 815 -318 c 128,-1,36
 892 -192 892 -192 894 64 c 2,37,-1
 894 272 l 1,38,39
 794 -4 794 -4 536 -4 c 0,40,41
 348 -4 348 -4 233 148 c 128,-1,42
 118 300 118 300 118 538 c 0,16,17
EndSplineSet
EndChar

StartChar: Hbar
Encoding: 294 294 232
Width: 1506
GlyphClass: 2
Flags: W
LayerCount: 2
Fore
SplineSet
62 1174 m 1,0,-1
 62 1224 l 1,1,-1
 256 1224 l 1,2,-1
 256 1470 l 1,3,-1
 316 1470 l 1,4,-1
 316 1224 l 1,5,-1
 1190 1224 l 1,6,-1
 1190 1470 l 1,7,-1
 1252 1470 l 1,8,-1
 1252 1224 l 1,9,-1
 1442 1224 l 1,10,-1
 1442 1174 l 1,11,-1
 1252 1174 l 1,12,-1
 1252 0 l 1,13,-1
 1190 0 l 1,14,-1
 1190 734 l 1,15,-1
 316 734 l 1,16,-1
 316 0 l 1,17,-1
 256 0 l 1,18,-1
 256 1174 l 1,19,-1
 62 1174 l 1,0,-1
1190 1174 m 1,20,-1
 316 1174 l 1,21,-1
 316 786 l 1,22,-1
 1190 786 l 1,23,-1
 1190 1174 l 1,20,-1
EndSplineSet
EndChar

StartChar: hbar
Encoding: 295 295 233
Width: 1170
GlyphClass: 2
Flags: W
LayerCount: 2
Fore
SplineSet
50 1308 m 1,0,-1
 50 1358 l 1,1,-1
 208 1358 l 1,2,-1
 208 1534 l 1,3,-1
 270 1534 l 1,4,-1
 270 1358 l 1,5,-1
 722 1358 l 1,6,-1
 722 1308 l 1,7,-1
 270 1308 l 1,8,-1
 270 818 l 1,9,-1
 272 818 l 1,10,11
 308 912 308 912 412 991 c 128,-1,12
 516 1070 516 1070 652 1070 c 0,13,14
 710 1070 710 1070 760 1055 c 128,-1,15
 810 1040 810 1040 863 1000 c 128,-1,16
 916 960 916 960 949 876 c 128,-1,17
 982 792 982 792 982 670 c 2,18,-1
 982 0 l 1,19,-1
 924 0 l 1,20,-1
 924 652 l 2,21,22
 924 1018 924 1018 640 1018 c 0,23,24
 500 1018 500 1018 385 902 c 128,-1,25
 270 786 270 786 270 634 c 2,26,-1
 270 0 l 1,27,-1
 208 0 l 1,28,-1
 208 1308 l 1,29,-1
 50 1308 l 1,0,-1
EndSplineSet
EndChar

StartChar: dotlessi
Encoding: 305 305 243
Width: 468
GlyphClass: 2
Flags: W
LayerCount: 2
Fore
SplineSet
202 0 m 1,0,-1
 202 1040 l 1,1,-1
 266 1040 l 1,2,-1
 266 0 l 1,3,-1
 202 0 l 1,0,-1
EndSplineSet
EndChar

StartChar: kgreenlandic
Encoding: 312 312 250
Width: 984
GlyphClass: 2
Flags: W
LayerCount: 2
Fore
SplineSet
208 0 m 1,0,-1
 208 1040 l 1,1,-1
 270 1040 l 1,2,-1
 270 504 l 1,3,-1
 274 504 l 1,4,-1
 864 1040 l 1,5,-1
 948 1040 l 1,6,-1
 386 526 l 1,7,-1
 980 0 l 1,8,-1
 898 0 l 1,9,-1
 346 484 l 1,10,-1
 270 416 l 1,11,-1
 270 0 l 1,12,-1
 208 0 l 1,0,-1
EndSplineSet
EndChar

StartChar: Lslash
Encoding: 321 321 259
Width: 1078
GlyphClass: 2
Flags: W
LayerCount: 2
Fore
SplineSet
316 714 m 1,0,-1
 316 54 l 1,1,-1
 1054 54 l 1,2,-1
 1054 0 l 1,3,-1
 256 0 l 1,4,-1
 256 672 l 1,5,-1
 14 504 l 1,6,-1
 -18 548 l 1,7,-1
 256 740 l 1,8,-1
 256 1470 l 1,9,-1
 316 1470 l 1,10,-1
 316 780 l 1,11,-1
 540 936 l 1,12,-1
 572 894 l 1,13,-1
 316 714 l 1,0,-1
EndSplineSet
EndChar

StartChar: lslash
Encoding: 322 322 260
Width: 492
GlyphClass: 2
Flags: W
LayerCount: 2
Fore
SplineSet
276 746 m 1,0,-1
 276 0 l 1,1,-1
 214 0 l 1,2,-1
 214 704 l 1,3,-1
 -14 542 l 1,4,-1
 -48 586 l 1,5,-1
 214 772 l 1,6,-1
 214 1534 l 1,7,-1
 276 1534 l 1,8,-1
 276 812 l 1,9,-1
 508 974 l 1,10,-1
 538 930 l 1,11,-1
 276 746 l 1,0,-1
EndSplineSet
EndChar

StartChar: Eng
Encoding: 330 330 268
Width: 1524
GlyphClass: 2
Flags: W
LayerCount: 2
Fore
SplineSet
256 0 m 1,0,-1
 256 1470 l 1,1,-1
 332 1470 l 1,2,-1
 1052 340 l 1,3,-1
 1208 100 l 1,4,-1
 1216 100 l 1,5,6
 1208 240 1208 240 1208 432 c 2,7,-1
 1208 1470 l 1,8,-1
 1272 1470 l 1,9,-1
 1272 -10 l 2,10,11
 1272 -256 1272 -256 1186 -376 c 128,-1,12
 1100 -496 1100 -496 898 -496 c 0,13,14
 798 -496 798 -496 698 -484 c 1,15,-1
 698 -430 l 1,16,17
 790 -442 790 -442 892 -442 c 0,18,19
 1060 -442 1060 -442 1132 -341 c 128,-1,20
 1204 -240 1204 -240 1204 0 c 1,21,-1
 314 1384 l 1,22,-1
 310 1384 l 1,23,24
 316 1256 316 1256 316 1008 c 2,25,-1
 316 0 l 1,26,-1
 256 0 l 1,0,-1
EndSplineSet
EndChar

StartChar: eng
Encoding: 331 331 269
Width: 1158
GlyphClass: 2
Flags: W
LayerCount: 2
Fore
SplineSet
200 0 m 1,0,-1
 200 1040 l 1,1,-1
 258 1040 l 1,2,-1
 258 804 l 1,3,-1
 262 804 l 1,4,5
 278 892 278 892 384 985 c 128,-1,6
 490 1078 490 1078 642 1078 c 0,7,8
 702 1078 702 1078 753 1062 c 128,-1,9
 804 1046 804 1046 857 1005 c 128,-1,10
 910 964 910 964 942 880 c 128,-1,11
 974 796 974 796 974 676 c 2,12,-1
 974 -10 l 2,13,14
 974 -272 974 -272 892 -384 c 128,-1,15
 810 -496 810 -496 636 -496 c 0,16,17
 596 -496 596 -496 448 -478 c 1,18,-1
 448 -426 l 1,19,20
 570 -442 570 -442 630 -442 c 0,21,22
 782 -442 782 -442 846 -340 c 128,-1,23
 910 -238 910 -238 910 -12 c 2,24,-1
 910 658 l 2,25,26
 910 1026 910 1026 632 1026 c 0,27,28
 488 1026 488 1026 374 910 c 128,-1,29
 260 794 260 794 260 640 c 2,30,-1
 260 0 l 1,31,-1
 200 0 l 1,0,-1
EndSplineSet
EndChar

StartChar: OE
Encoding: 338 338 276
Width: 1836
GlyphClass: 2
Flags: W
LayerCount: 2
Fore
SplineSet
128 736 m 0,0,1
 128 1098 128 1098 300 1304 c 128,-1,2
 472 1510 472 1510 744 1510 c 0,3,4
 862 1510 862 1510 954 1470 c 1,5,-1
 1744 1470 l 1,6,-1
 1744 1416 l 1,7,-1
 1010 1416 l 1,8,-1
 1010 790 l 1,9,-1
 1668 790 l 1,10,-1
 1668 738 l 1,11,-1
 1010 738 l 1,12,-1
 1010 54 l 1,13,-1
 1750 54 l 1,14,-1
 1750 0 l 1,15,-1
 960 0 l 1,16,17
 868 -38 868 -38 744 -38 c 0,18,19
 472 -38 472 -38 300 169 c 128,-1,20
 128 376 128 376 128 736 c 0,0,1
194 736 m 0,21,22
 194 406 194 406 350 211 c 128,-1,23
 506 16 506 16 744 16 c 0,24,25
 864 16 864 16 948 54 c 1,26,-1
 948 1410 l 1,27,28
 868 1454 868 1454 744 1454 c 0,29,30
 496 1454 496 1454 345 1257 c 128,-1,31
 194 1060 194 1060 194 736 c 0,21,22
EndSplineSet
EndChar

StartChar: uni0163
Encoding: 355 355 293
Width: 688
GlyphClass: 2
Flags: W
LayerCount: 2
Fore
SplineSet
60 988 m 1,0,-1
 60 1040 l 1,1,-1
 266 1040 l 1,2,-1
 266 1402 l 1,3,-1
 330 1402 l 1,4,-1
 330 1040 l 1,5,-1
 586 1040 l 1,6,-1
 586 988 l 1,7,-1
 330 988 l 1,8,-1
 330 274 l 2,9,10
 330 156 330 156 376 104 c 128,-1,11
 422 52 422 52 526 52 c 2,12,-1
 588 52 l 1,13,-1
 588 0 l 1,14,-1
 518 0 l 2,15,16
 496 0 496 0 476 2 c 1,17,-1
 452 -104 l 1,18,19
 550 -114 550 -114 604 -161 c 128,-1,20
 658 -208 658 -208 658 -278 c 0,21,22
 658 -352 658 -352 602 -397 c 128,-1,23
 546 -442 546 -442 444 -442 c 0,24,25
 360 -442 360 -442 282 -422 c 1,26,-1
 282 -374 l 1,27,28
 366 -398 366 -398 448 -398 c 0,29,30
 516 -398 516 -398 557 -364 c 128,-1,31
 598 -330 598 -330 598 -278 c 0,32,33
 598 -158 598 -158 380 -142 c 1,34,-1
 418 12 l 1,35,36
 266 58 266 58 266 262 c 2,37,-1
 266 988 l 1,38,-1
 60 988 l 1,0,-1
EndSplineSet
Substitution2: "'locl' Localized Forms in Latin lookup 3 subtable" uni021B
Substitution2: "'locl' Localized Forms in Latin lookup 2 subtable" uni021B
Substitution2: "'aalt' Access All Alternates lookup 0 subtable" uni021B
EndChar

StartChar: tbar
Encoding: 359 359 297
Width: 712
GlyphClass: 2
Flags: W
LayerCount: 2
Fore
SplineSet
60 988 m 1,0,-1
 60 1040 l 1,1,-1
 266 1040 l 1,2,-1
 266 1402 l 1,3,-1
 330 1402 l 1,4,-1
 330 1040 l 1,5,-1
 612 1040 l 1,6,-1
 612 988 l 1,7,-1
 330 988 l 1,8,-1
 330 684 l 1,9,-1
 618 684 l 1,10,-1
 618 634 l 1,11,-1
 330 634 l 1,12,-1
 330 274 l 2,13,14
 330 156 330 156 376 104 c 128,-1,15
 422 52 422 52 526 52 c 2,16,-1
 614 52 l 1,17,-1
 614 0 l 1,18,-1
 518 0 l 2,19,20
 266 0 266 0 266 262 c 2,21,-1
 266 634 l 1,22,-1
 48 634 l 1,23,-1
 48 684 l 1,24,-1
 266 684 l 1,25,-1
 266 988 l 1,26,-1
 60 988 l 1,0,-1
EndSplineSet
EndChar

StartChar: longs
Encoding: 383 383 321
Width: 602
GlyphClass: 2
Flags: W
LayerCount: 2
Fore
SplineSet
210 0 m 1,0,-1
 210 1196 l 2,1,2
 210 1344 210 1344 285 1413 c 128,-1,3
 360 1482 360 1482 482 1482 c 2,4,-1
 566 1482 l 1,5,-1
 566 1430 l 1,6,-1
 484 1430 l 2,7,8
 272 1430 272 1430 272 1186 c 2,9,-1
 272 0 l 1,10,-1
 210 0 l 1,0,-1
EndSplineSet
EndChar

StartChar: uni0180
Encoding: 384 384 322
Width: 1174
GlyphClass: 2
Flags: W
LayerCount: 2
Fore
SplineSet
268 520 m 0,0,1
 268 280 268 280 373 146 c 128,-1,2
 478 12 478 12 628 12 c 0,3,4
 794 12 794 12 898 151 c 128,-1,5
 1002 290 1002 290 1002 520 c 256,6,7
 1002 750 1002 750 899 888 c 128,-1,8
 796 1026 796 1026 632 1026 c 0,9,10
 484 1026 484 1026 376 890 c 128,-1,11
 268 754 268 754 268 520 c 0,0,1
58 1310 m 1,12,-1
 58 1358 l 1,13,-1
 208 1358 l 1,14,-1
 208 1534 l 1,15,-1
 272 1534 l 1,16,-1
 272 1358 l 1,17,-1
 720 1358 l 1,18,-1
 720 1310 l 1,19,-1
 272 1310 l 1,20,-1
 272 768 l 1,21,22
 298 884 298 884 395 981 c 128,-1,23
 492 1078 492 1078 636 1078 c 0,24,25
 830 1078 830 1078 944 928 c 128,-1,26
 1058 778 1058 778 1058 520 c 0,27,28
 1058 242 1058 242 933 102 c 128,-1,29
 808 -38 808 -38 632 -38 c 0,30,31
 502 -38 502 -38 407 45 c 128,-1,32
 312 128 312 128 270 250 c 1,33,-1
 270 0 l 1,34,-1
 208 0 l 1,35,-1
 208 1310 l 1,36,-1
 58 1310 l 1,12,-1
EndSplineSet
EndChar

StartChar: uni0182
Encoding: 386 386 324
Width: 1340
GlyphClass: 2
Flags: W
LayerCount: 2
Fore
SplineSet
316 54 m 1,0,-1
 784 54 l 2,1,2
 958 54 958 54 1057 141 c 128,-1,3
 1156 228 1156 228 1156 396 c 0,4,5
 1156 562 1156 562 1052 653 c 128,-1,6
 948 744 948 744 764 744 c 2,7,-1
 316 744 l 1,8,-1
 316 54 l 1,0,-1
256 0 m 1,9,-1
 256 1470 l 1,10,-1
 1052 1470 l 1,11,-1
 1052 1416 l 1,12,-1
 316 1416 l 1,13,-1
 316 798 l 1,14,-1
 778 798 l 2,15,16
 982 798 982 798 1101 687 c 128,-1,17
 1220 576 1220 576 1220 392 c 0,18,19
 1220 212 1220 212 1109 106 c 128,-1,20
 998 0 998 0 800 0 c 2,21,-1
 256 0 l 1,9,-1
EndSplineSet
EndChar

StartChar: uni0183
Encoding: 387 387 325
Width: 1174
GlyphClass: 2
Flags: W
LayerCount: 2
Fore
SplineSet
268 520 m 0,0,1
 268 280 268 280 373 146 c 128,-1,2
 478 12 478 12 628 12 c 0,3,4
 794 12 794 12 898 151 c 128,-1,5
 1002 290 1002 290 1002 520 c 256,6,7
 1002 750 1002 750 898 888 c 128,-1,8
 794 1026 794 1026 632 1026 c 0,9,10
 484 1026 484 1026 376 890 c 128,-1,11
 268 754 268 754 268 520 c 0,0,1
208 0 m 1,12,-1
 208 1534 l 1,13,-1
 856 1534 l 1,14,-1
 856 1482 l 1,15,-1
 272 1482 l 1,16,-1
 272 768 l 1,17,18
 298 882 298 882 394 980 c 128,-1,19
 490 1078 490 1078 636 1078 c 0,20,21
 830 1078 830 1078 944 928 c 128,-1,22
 1058 778 1058 778 1058 520 c 0,23,24
 1058 242 1058 242 933 102 c 128,-1,25
 808 -38 808 -38 632 -38 c 0,26,27
 502 -38 502 -38 407 45 c 128,-1,28
 312 128 312 128 270 250 c 1,29,-1
 270 0 l 1,30,-1
 208 0 l 1,12,-1
EndSplineSet
EndChar

StartChar: uni0184
Encoding: 388 388 326
Width: 1344
GlyphClass: 2
Flags: W
LayerCount: 2
Fore
SplineSet
116 1376 m 1,0,-1
 264 1470 l 1,1,-1
 318 1470 l 1,2,-1
 318 786 l 1,3,-1
 784 786 l 2,4,5
 982 786 982 786 1103 672 c 128,-1,6
 1224 558 1224 558 1224 392 c 0,7,8
 1224 228 1224 228 1114 114 c 128,-1,9
 1004 0 1004 0 804 0 c 2,10,-1
 256 0 l 1,11,-1
 256 1272 l 1,12,-1
 116 1376 l 1,0,-1
318 54 m 1,13,-1
 788 54 l 2,14,15
 952 54 952 54 1056 146 c 128,-1,16
 1160 238 1160 238 1160 392 c 0,17,18
 1160 538 1160 538 1054 636 c 128,-1,19
 948 734 948 734 780 734 c 2,20,-1
 318 734 l 1,21,-1
 318 54 l 1,13,-1
EndSplineSet
EndChar

StartChar: uni0185
Encoding: 389 389 327
Width: 1174
GlyphClass: 2
Flags: W
LayerCount: 2
Fore
SplineSet
72 1428 m 1,0,-1
 232 1534 l 1,1,-1
 272 1534 l 1,2,-1
 272 766 l 1,3,4
 304 896 304 896 407 987 c 128,-1,5
 510 1078 510 1078 636 1078 c 0,6,7
 830 1078 830 1078 944 928 c 128,-1,8
 1058 778 1058 778 1058 520 c 0,9,10
 1058 242 1058 242 933 102 c 128,-1,11
 808 -38 808 -38 632 -38 c 0,12,13
 496 -38 496 -38 405 44 c 128,-1,14
 314 126 314 126 270 252 c 1,15,-1
 270 0 l 1,16,-1
 208 0 l 1,17,-1
 208 1328 l 1,18,-1
 72 1428 l 1,0,-1
268 520 m 256,19,20
 268 286 268 286 371 149 c 128,-1,21
 474 12 474 12 628 12 c 0,22,23
 794 12 794 12 898 151 c 128,-1,24
 1002 290 1002 290 1002 520 c 256,25,26
 1002 750 1002 750 899 888 c 128,-1,27
 796 1026 796 1026 632 1026 c 0,28,29
 484 1026 484 1026 376 890 c 128,-1,30
 268 754 268 754 268 520 c 256,19,20
EndSplineSet
EndChar

StartChar: uni0186
Encoding: 390 390 328
Width: 1266
GlyphClass: 2
Flags: W
LayerCount: 2
Fore
SplineSet
74 264 m 1,0,-1
 134 286 l 1,1,2
 190 168 190 168 294 92 c 128,-1,3
 398 16 398 16 544 16 c 0,4,5
 780 16 780 16 927 210 c 128,-1,6
 1074 404 1074 404 1074 736 c 0,7,8
 1074 1062 1074 1062 930 1258 c 128,-1,9
 786 1454 786 1454 544 1454 c 0,10,11
 408 1454 408 1454 314 1379 c 128,-1,12
 220 1304 220 1304 172 1198 c 1,13,-1
 116 1220 l 1,14,15
 162 1330 162 1330 271 1420 c 128,-1,16
 380 1510 380 1510 544 1510 c 0,17,18
 810 1510 810 1510 975 1305 c 128,-1,19
 1140 1100 1140 1100 1140 736 c 0,20,21
 1140 376 1140 376 976 169 c 128,-1,22
 812 -38 812 -38 544 -38 c 0,23,24
 218 -38 218 -38 74 264 c 1,0,-1
EndSplineSet
EndChar

StartChar: uni018B
Encoding: 395 395 333
Width: 1340
GlyphClass: 2
Flags: W
LayerCount: 2
Fore
SplineSet
182 396 m 0,0,1
 182 228 182 228 285 141 c 128,-1,2
 388 54 388 54 566 54 c 2,3,-1
 1020 54 l 1,4,-1
 1020 744 l 1,5,-1
 588 744 l 2,6,7
 402 744 402 744 292 652 c 128,-1,8
 182 560 182 560 182 396 c 0,0,1
118 392 m 0,9,10
 118 576 118 576 243 687 c 128,-1,11
 368 798 368 798 574 798 c 2,12,-1
 1020 798 l 1,13,-1
 1020 1416 l 1,14,-1
 290 1416 l 1,15,-1
 290 1470 l 1,16,-1
 1084 1470 l 1,17,-1
 1084 0 l 1,18,-1
 548 0 l 2,19,20
 354 0 354 0 236 107 c 128,-1,21
 118 214 118 214 118 392 c 0,9,10
EndSplineSet
EndChar

StartChar: uni018C
Encoding: 396 396 334
Width: 1174
GlyphClass: 2
Flags: W
LayerCount: 2
Fore
SplineSet
178 520 m 256,0,1
 178 290 178 290 278 151 c 128,-1,2
 378 12 378 12 548 12 c 0,3,4
 698 12 698 12 803 146 c 128,-1,5
 908 280 908 280 908 520 c 0,6,7
 908 754 908 754 800 890 c 128,-1,8
 692 1026 692 1026 544 1026 c 0,9,10
 382 1026 382 1026 280 888 c 128,-1,11
 178 750 178 750 178 520 c 256,0,1
118 520 m 0,12,13
 118 780 118 780 236 929 c 128,-1,14
 354 1078 354 1078 544 1078 c 0,15,16
 682 1078 682 1078 779 986 c 128,-1,17
 876 894 876 894 908 770 c 1,18,-1
 908 1482 l 1,19,-1
 318 1482 l 1,20,-1
 318 1534 l 1,21,-1
 968 1534 l 1,22,-1
 968 0 l 1,23,-1
 908 0 l 1,24,-1
 908 252 l 1,25,26
 870 128 870 128 774 45 c 128,-1,27
 678 -38 678 -38 540 -38 c 0,28,29
 368 -38 368 -38 243 102 c 128,-1,30
 118 242 118 242 118 520 c 0,12,13
EndSplineSet
EndChar

StartChar: uni018D
Encoding: 397 397 335
Width: 1248
GlyphClass: 2
Flags: W
LayerCount: 2
Fore
SplineSet
178 634 m 0,0,1
 178 544 178 544 219 465 c 128,-1,2
 260 386 260 386 333 326 c 128,-1,3
 406 266 406 266 472 227 c 128,-1,4
 538 188 538 188 628 146 c 1,5,6
 820 224 820 224 944 360 c 128,-1,7
 1068 496 1068 496 1068 638 c 0,8,9
 1068 796 1068 796 956 911 c 128,-1,10
 844 1026 844 1026 634 1026 c 0,11,12
 438 1026 438 1026 308 922 c 128,-1,13
 178 818 178 818 178 634 c 0,0,1
118 628 m 0,14,15
 118 836 118 836 260 957 c 128,-1,16
 402 1078 402 1078 634 1078 c 0,17,18
 862 1078 862 1078 998 953 c 128,-1,19
 1134 828 1134 828 1134 640 c 0,20,21
 1134 494 1134 494 1012 349 c 128,-1,22
 890 204 890 204 686 114 c 1,23,24
 830 38 830 38 907 -39 c 128,-1,25
 984 -116 984 -116 984 -208 c 0,26,27
 984 -328 984 -328 884 -410 c 128,-1,28
 784 -492 784 -492 616 -492 c 0,29,30
 360 -492 360 -492 210 -282 c 1,31,-1
 258 -252 l 1,32,33
 390 -440 390 -440 616 -440 c 0,34,35
 742 -440 742 -440 833 -376 c 128,-1,36
 924 -312 924 -312 924 -208 c 0,37,38
 924 -114 924 -114 824 -37 c 128,-1,39
 724 40 724 40 534 130 c 0,40,41
 118 330 118 330 118 628 c 0,14,15
EndSplineSet
EndChar

StartChar: uni018E
Encoding: 398 398 336
Width: 1246
GlyphClass: 2
Flags: W
LayerCount: 2
Fore
SplineSet
88 0 m 1,0,-1
 88 54 l 1,1,-1
 928 54 l 1,2,-1
 928 736 l 1,3,-1
 192 736 l 1,4,-1
 192 790 l 1,5,-1
 928 790 l 1,6,-1
 928 1416 l 1,7,-1
 118 1416 l 1,8,-1
 118 1470 l 1,9,-1
 992 1470 l 1,10,-1
 992 0 l 1,11,-1
 88 0 l 1,0,-1
EndSplineSet
EndChar

StartChar: uni018F
Encoding: 399 399 337
Width: 1378
GlyphClass: 2
Flags: W
LayerCount: 2
Fore
SplineSet
126 642 m 0,0,1
 126 668 126 668 127 704 c 128,-1,2
 128 740 128 740 128 750 c 1,3,-1
 1188 750 l 1,4,5
 1186 900 1186 900 1156 1023 c 128,-1,6
 1126 1146 1126 1146 1066 1245 c 128,-1,7
 1006 1344 1006 1344 903 1399 c 128,-1,8
 800 1454 800 1454 660 1454 c 0,9,10
 368 1454 368 1454 230 1198 c 1,11,-1
 176 1220 l 1,12,13
 240 1350 240 1350 364 1430 c 128,-1,14
 488 1510 488 1510 660 1510 c 0,15,16
 864 1510 864 1510 1000 1405 c 128,-1,17
 1136 1300 1136 1300 1194 1130 c 128,-1,18
 1252 960 1252 960 1252 730 c 0,19,20
 1252 346 1252 346 1088 154 c 128,-1,21
 924 -38 924 -38 670 -38 c 0,22,23
 546 -38 546 -38 450 4 c 128,-1,24
 354 46 354 46 294 113 c 128,-1,25
 234 180 234 180 196 272 c 128,-1,26
 158 364 158 364 142 454 c 128,-1,27
 126 544 126 544 126 642 c 0,0,1
192 694 m 1,28,29
 192 682 192 682 193 663 c 128,-1,30
 194 644 194 644 194 636 c 0,31,32
 194 548 194 548 205 469 c 128,-1,33
 216 390 216 390 248 305 c 128,-1,34
 280 220 280 220 331 159 c 128,-1,35
 382 98 382 98 470 57 c 128,-1,36
 558 16 558 16 672 16 c 0,37,38
 758 16 758 16 842 50 c 128,-1,39
 926 84 926 84 1007 156 c 128,-1,40
 1088 228 1088 228 1139 368 c 128,-1,41
 1190 508 1190 508 1190 694 c 1,42,-1
 192 694 l 1,28,29
EndSplineSet
EndChar

StartChar: uni0190
Encoding: 400 400 338
Width: 1200
GlyphClass: 2
Flags: W
LayerCount: 2
Fore
SplineSet
126 398 m 0,0,1
 126 564 126 564 235 662 c 128,-1,2
 344 760 344 760 480 788 c 1,3,4
 366 820 366 820 277 912 c 128,-1,5
 188 1004 188 1004 188 1150 c 0,6,7
 188 1300 188 1300 305 1405 c 128,-1,8
 422 1510 422 1510 630 1510 c 0,9,10
 920 1510 920 1510 1064 1246 c 1,11,-1
 1008 1222 l 1,12,13
 882 1456 882 1456 630 1456 c 0,14,15
 466 1456 466 1456 358 1369 c 128,-1,16
 250 1282 250 1282 250 1148 c 0,17,18
 250 992 250 992 369 900 c 128,-1,19
 488 808 488 808 658 808 c 0,20,21
 736 808 736 808 752 810 c 1,22,-1
 752 754 l 1,23,24
 732 756 732 756 648 756 c 0,25,26
 536 756 536 756 436 722 c 128,-1,27
 336 688 336 688 263 603 c 128,-1,28
 190 518 190 518 190 398 c 0,29,30
 190 210 190 210 324 112 c 128,-1,31
 458 14 458 14 638 14 c 0,32,33
 758 14 758 14 874 74 c 128,-1,34
 990 134 990 134 1054 228 c 1,35,-1
 1106 202 l 1,36,37
 1040 98 1040 98 911 30 c 128,-1,38
 782 -38 782 -38 638 -38 c 0,39,40
 426 -38 426 -38 276 76 c 128,-1,41
 126 190 126 190 126 398 c 0,0,1
EndSplineSet
EndChar

StartChar: uni0191
Encoding: 401 401 339
Width: 1188
GlyphClass: 2
Flags: W
LayerCount: 2
Fore
SplineSet
-48 -436 m 1,0,1
 28 -442 28 -442 48 -442 c 0,2,3
 164 -442 164 -442 210 -367 c 128,-1,4
 256 -292 256 -292 256 -138 c 2,5,-1
 256 1470 l 1,6,-1
 1094 1470 l 1,7,-1
 1094 1416 l 1,8,-1
 316 1416 l 1,9,-1
 316 770 l 1,10,-1
 1016 770 l 1,11,-1
 1016 718 l 1,12,-1
 316 718 l 1,13,-1
 316 -138 l 2,14,15
 316 -322 316 -322 254 -409 c 128,-1,16
 192 -496 192 -496 54 -496 c 0,17,18
 14 -496 14 -496 -48 -488 c 1,19,-1
 -48 -436 l 1,0,1
EndSplineSet
EndChar

StartChar: florin
Encoding: 402 402 340
Width: 652
GlyphClass: 2
Flags: W
LayerCount: 2
Fore
SplineSet
-58 -436 m 1,0,1
 -8 -442 -8 -442 36 -442 c 0,2,3
 260 -442 260 -442 260 -114 c 2,4,-1
 260 988 l 1,5,-1
 56 988 l 1,6,-1
 56 1040 l 1,7,-1
 260 1040 l 1,8,-1
 260 1250 l 2,9,10
 260 1398 260 1398 334 1466 c 128,-1,11
 408 1534 408 1534 530 1534 c 2,12,-1
 620 1534 l 1,13,-1
 620 1482 l 1,14,-1
 534 1482 l 2,15,16
 320 1482 320 1482 320 1238 c 2,17,-1
 320 1040 l 1,18,-1
 590 1040 l 1,19,-1
 590 988 l 1,20,-1
 320 988 l 1,21,-1
 320 -120 l 2,22,23
 320 -496 320 -496 42 -496 c 0,24,25
 18 -496 18 -496 -16 -492 c 128,-1,26
 -50 -488 -50 -488 -58 -488 c 1,27,-1
 -58 -436 l 1,0,1
EndSplineSet
EndChar

StartChar: uni0194
Encoding: 404 404 342
Width: 1160
GlyphClass: 2
Flags: W
LayerCount: 2
Fore
SplineSet
-6 1470 m 1,0,-1
 66 1470 l 1,1,-1
 564 270 l 1,2,-1
 586 210 l 1,3,-1
 588 210 l 1,4,-1
 608 270 l 1,5,-1
 1100 1470 l 1,6,-1
 1168 1470 l 1,7,-1
 636 170 l 1,8,9
 734 40 734 40 780 -47 c 128,-1,10
 826 -134 826 -134 826 -232 c 0,11,12
 826 -340 826 -340 760 -418 c 128,-1,13
 694 -496 694 -496 588 -496 c 0,14,15
 484 -496 484 -496 418 -425 c 128,-1,16
 352 -354 352 -354 352 -232 c 0,17,18
 352 -80 352 -80 534 170 c 1,19,-1
 -6 1470 l 1,0,-1
416 -230 m 0,20,21
 416 -322 416 -322 464 -382 c 128,-1,22
 512 -442 512 -442 588 -442 c 0,23,24
 668 -442 668 -442 716 -378 c 128,-1,25
 764 -314 764 -314 764 -230 c 0,26,27
 764 -144 764 -144 719 -63 c 128,-1,28
 674 18 674 18 586 124 c 1,29,30
 416 -88 416 -88 416 -230 c 0,20,21
EndSplineSet
EndChar

StartChar: uni0195
Encoding: 405 405 343
Width: 1850
GlyphClass: 2
Flags: W
LayerCount: 2
Fore
SplineSet
208 0 m 1,0,-1
 208 1534 l 1,1,-1
 272 1534 l 1,2,-1
 272 822 l 1,3,4
 312 922 312 922 415 1000 c 128,-1,5
 518 1078 518 1078 652 1078 c 0,6,7
 714 1078 714 1078 765 1062 c 128,-1,8
 816 1046 816 1046 869 1006 c 128,-1,9
 922 966 922 966 953 882 c 128,-1,10
 984 798 984 798 984 676 c 2,11,-1
 984 308 l 2,12,13
 984 170 984 170 1059 91 c 128,-1,14
 1134 12 1134 12 1280 12 c 0,15,16
 1600 12 1600 12 1600 322 c 2,17,-1
 1600 1040 l 1,18,-1
 1662 1040 l 1,19,-1
 1662 322 l 2,20,21
 1662 -38 1662 -38 1280 -38 c 0,22,23
 1130 -38 1130 -38 1027 42 c 128,-1,24
 924 122 924 122 924 298 c 2,25,-1
 924 658 l 2,26,27
 924 1026 924 1026 640 1026 c 0,28,29
 496 1026 496 1026 384 909 c 128,-1,30
 272 792 272 792 272 640 c 0,31,32
 272 636 272 636 272 634 c 2,33,-1
 272 0 l 1,34,-1
 208 0 l 1,0,-1
EndSplineSet
EndChar

StartChar: uni0196
Encoding: 406 406 344
Width: 662
GlyphClass: 2
Flags: W
LayerCount: 2
Fore
SplineSet
240 308 m 2,0,-1
 240 1470 l 1,1,-1
 302 1470 l 1,2,-1
 302 310 l 2,3,4
 302 16 302 16 496 16 c 0,5,6
 580 16 580 16 630 22 c 1,7,-1
 630 -32 l 1,8,9
 578 -38 578 -38 492 -38 c 0,10,11
 364 -38 364 -38 302 45 c 128,-1,12
 240 128 240 128 240 308 c 2,0,-1
EndSplineSet
EndChar

StartChar: uni0197
Encoding: 407 407 345
Width: 572
GlyphClass: 2
Flags: W
LayerCount: 2
Fore
SplineSet
88 732 m 1,0,-1
 88 782 l 1,1,-1
 256 782 l 1,2,-1
 256 1470 l 1,3,-1
 316 1470 l 1,4,-1
 316 782 l 1,5,-1
 486 782 l 1,6,-1
 486 732 l 1,7,-1
 316 732 l 1,8,-1
 316 0 l 1,9,-1
 256 0 l 1,10,-1
 256 732 l 1,11,-1
 88 732 l 1,0,-1
EndSplineSet
EndChar

StartChar: uni0198
Encoding: 408 408 346
Width: 1266
GlyphClass: 2
Flags: W
LayerCount: 2
Fore
SplineSet
256 0 m 1,0,-1
 256 1470 l 1,1,-1
 316 1470 l 1,2,-1
 316 562 l 1,3,-1
 320 562 l 1,4,-1
 1066 1422 l 2,5,6
 1142 1510 1142 1510 1264 1510 c 0,7,8
 1314 1510 1314 1510 1362 1500 c 1,9,-1
 1362 1446 l 1,10,11
 1314 1456 1314 1456 1266 1456 c 0,12,13
 1186 1456 1186 1456 1126 1390 c 2,14,-1
 650 842 l 1,15,-1
 1250 0 l 1,16,-1
 1166 0 l 1,17,-1
 606 794 l 1,18,-1
 316 466 l 1,19,-1
 316 0 l 1,20,-1
 256 0 l 1,0,-1
EndSplineSet
EndChar

StartChar: uni0199
Encoding: 409 409 347
Width: 988
GlyphClass: 2
Flags: W
LayerCount: 2
Fore
SplineSet
210 0 m 1,0,-1
 210 1248 l 2,1,2
 210 1384 210 1384 288 1463 c 128,-1,3
 366 1542 366 1542 510 1542 c 0,4,5
 518 1542 518 1542 612 1536 c 1,6,-1
 612 1484 l 1,7,8
 562 1490 562 1490 518 1490 c 0,9,10
 406 1490 406 1490 339 1429 c 128,-1,11
 272 1368 272 1368 272 1244 c 2,12,-1
 272 400 l 1,13,-1
 844 1040 l 1,14,-1
 926 1040 l 1,15,-1
 562 632 l 1,16,-1
 982 0 l 1,17,-1
 906 0 l 1,18,-1
 518 584 l 1,19,-1
 272 314 l 1,20,-1
 272 0 l 1,21,-1
 210 0 l 1,0,-1
EndSplineSet
EndChar

StartChar: uni019A
Encoding: 410 410 348
Width: 490
GlyphClass: 2
Flags: W
LayerCount: 2
Fore
SplineSet
44 740 m 1,0,-1
 44 792 l 1,1,-1
 214 792 l 1,2,-1
 214 1534 l 1,3,-1
 276 1534 l 1,4,-1
 276 792 l 1,5,-1
 450 792 l 1,6,-1
 450 740 l 1,7,-1
 276 740 l 1,8,-1
 276 0 l 1,9,-1
 214 0 l 1,10,-1
 214 740 l 1,11,-1
 44 740 l 1,0,-1
EndSplineSet
EndChar

StartChar: uni019B
Encoding: 411 411 349
Width: 932
GlyphClass: 2
Flags: W
LayerCount: 2
Fore
SplineSet
28 0 m 1,0,-1
 436 1096 l 1,1,-1
 388 1232 l 1,2,-1
 124 1046 l 1,3,-1
 94 1090 l 1,4,-1
 370 1280 l 1,5,6
 282 1480 282 1480 166 1480 c 2,7,-1
 128 1480 l 1,8,-1
 128 1532 l 1,9,-1
 178 1532 l 2,10,11
 316 1532 316 1532 418 1312 c 1,12,-1
 624 1460 l 1,13,-1
 658 1418 l 1,14,-1
 438 1266 l 1,15,-1
 902 0 l 1,16,-1
 832 0 l 1,17,-1
 566 748 l 2,18,19
 520 870 520 870 470 1014 c 1,20,-1
 466 1014 l 1,21,22
 426 880 426 880 374 754 c 2,23,-1
 98 0 l 1,24,-1
 28 0 l 1,0,-1
EndSplineSet
EndChar

StartChar: uni019C
Encoding: 412 412 350
Width: 1924
GlyphClass: 2
Flags: W
LayerCount: 2
Fore
SplineSet
256 370 m 2,0,-1
 256 1470 l 1,1,-1
 316 1470 l 1,2,-1
 316 384 l 2,3,4
 316 208 316 208 374 111 c 128,-1,5
 432 14 432 14 578 14 c 0,6,7
 718 14 718 14 825 129 c 128,-1,8
 932 244 932 244 932 422 c 2,9,-1
 932 1470 l 1,10,-1
 994 1470 l 1,11,-1
 994 386 l 2,12,13
 994 224 994 224 1057 119 c 128,-1,14
 1120 14 1120 14 1264 14 c 256,15,16
 1408 14 1408 14 1509 127 c 128,-1,17
 1610 240 1610 240 1610 408 c 2,18,-1
 1610 1470 l 1,19,-1
 1672 1470 l 1,20,-1
 1672 0 l 1,21,-1
 1610 0 l 1,22,-1
 1610 194 l 1,23,-1
 1608 194 l 1,24,25
 1562 82 1562 82 1465 22 c 128,-1,26
 1368 -38 1368 -38 1252 -38 c 0,27,28
 1114 -38 1114 -38 1039 46 c 128,-1,29
 964 130 964 130 948 246 c 1,30,31
 940 168 940 168 837 65 c 128,-1,32
 734 -38 734 -38 564 -38 c 0,33,34
 256 -38 256 -38 256 370 c 2,0,-1
EndSplineSet
EndChar

StartChar: uni019D
Encoding: 413 413 351
Width: 1524
GlyphClass: 2
Flags: W
LayerCount: 2
Fore
SplineSet
256 1470 m 1,0,-1
 332 1470 l 1,1,-1
 1052 332 l 1,2,-1
 1212 86 l 1,3,-1
 1218 86 l 1,4,5
 1208 230 1208 230 1208 434 c 2,6,-1
 1208 1470 l 1,7,-1
 1272 1470 l 1,8,-1
 1272 0 l 1,9,-1
 1194 0 l 1,10,-1
 316 1384 l 1,11,-1
 310 1384 l 1,12,13
 318 1212 318 1212 318 996 c 2,14,-1
 318 -68 l 2,15,16
 318 -282 318 -282 257 -389 c 128,-1,17
 196 -496 196 -496 34 -496 c 0,18,19
 14 -496 14 -496 -22 -490 c 1,20,-1
 -22 -438 l 1,21,22
 10 -442 10 -442 30 -442 c 0,23,24
 90 -442 90 -442 132 -423 c 128,-1,25
 174 -404 174 -404 198 -372 c 128,-1,26
 222 -340 222 -340 236 -287 c 128,-1,27
 250 -234 250 -234 253 -186 c 128,-1,28
 256 -138 256 -138 256 -64 c 2,29,-1
 256 1470 l 1,0,-1
EndSplineSet
EndChar

StartChar: uni019E
Encoding: 414 414 352
Width: 1180
GlyphClass: 2
Flags: W
LayerCount: 2
Fore
SplineSet
200 0 m 1,0,-1
 200 1040 l 1,1,-1
 258 1040 l 1,2,-1
 258 818 l 1,3,-1
 262 818 l 1,4,5
 298 916 298 916 401 997 c 128,-1,6
 504 1078 504 1078 642 1078 c 0,7,8
 702 1078 702 1078 753 1062 c 128,-1,9
 804 1046 804 1046 857 1005 c 128,-1,10
 910 964 910 964 942 880 c 128,-1,11
 974 796 974 796 974 676 c 2,12,-1
 974 -488 l 1,13,-1
 910 -488 l 1,14,-1
 910 658 l 2,15,16
 910 1026 910 1026 632 1026 c 0,17,18
 488 1026 488 1026 374 911 c 128,-1,19
 260 796 260 796 260 646 c 0,20,21
 260 642 260 642 260 640 c 2,22,-1
 260 0 l 1,23,-1
 200 0 l 1,0,-1
EndSplineSet
EndChar

StartChar: uni019F
Encoding: 415 415 353
Width: 1402
GlyphClass: 2
Flags: W
LayerCount: 2
Fore
SplineSet
128 736 m 256,0,1
 128 1086 128 1086 282 1298 c 128,-1,2
 436 1510 436 1510 702 1510 c 256,3,4
 968 1510 968 1510 1121 1297 c 128,-1,5
 1274 1084 1274 1084 1274 734 c 0,6,7
 1274 386 1274 386 1121 174 c 128,-1,8
 968 -38 968 -38 702 -38 c 0,9,10
 434 -38 434 -38 281 174 c 128,-1,11
 128 386 128 386 128 736 c 256,0,1
1212 710 m 1,12,-1
 194 710 l 1,13,14
 200 400 200 400 334 208 c 128,-1,15
 468 16 468 16 702 16 c 256,16,17
 936 16 936 16 1071 206 c 128,-1,18
 1206 396 1206 396 1212 710 c 1,12,-1
194 760 m 1,19,-1
 1212 760 l 1,20,21
 1206 1080 1206 1080 1069 1267 c 128,-1,22
 932 1454 932 1454 702 1454 c 0,23,24
 474 1454 474 1454 336 1267 c 128,-1,25
 198 1080 198 1080 194 760 c 1,19,-1
EndSplineSet
EndChar

StartChar: uni01A2
Encoding: 418 418 356
Width: 2014
GlyphClass: 2
Flags: W
LayerCount: 2
Fore
SplineSet
128 720 m 0,0,1
 128 1092 128 1092 300 1301 c 128,-1,2
 472 1510 472 1510 714 1510 c 0,3,4
 838 1510 838 1510 1014 1469 c 128,-1,5
 1190 1428 1190 1428 1376 1428 c 0,6,7
 1484 1428 1484 1428 1760 1470 c 1,8,-1
 1760 0 l 1,9,-1
 1696 0 l 1,10,-1
 1696 1410 l 1,11,12
 1500 1378 1500 1378 1374 1378 c 0,13,14
 1202 1378 1202 1378 1064 1402 c 1,15,-1
 1064 92 l 1,16,17
 922 -38 922 -38 714 -38 c 0,18,19
 470 -38 470 -38 299 171 c 128,-1,20
 128 380 128 380 128 720 c 0,0,1
194 720 m 0,21,22
 194 396 194 396 352 206 c 128,-1,23
 510 16 510 16 714 16 c 0,24,25
 790 16 790 16 855 35 c 128,-1,26
 920 54 920 54 941 68 c 128,-1,27
 962 82 962 82 1004 112 c 1,28,-1
 1004 1414 l 1,29,30
 990 1418 990 1418 960 1426 c 128,-1,31
 930 1434 930 1434 913 1437 c 128,-1,32
 896 1440 896 1440 866 1446 c 128,-1,33
 836 1452 836 1452 800 1454 c 128,-1,34
 764 1456 764 1456 714 1456 c 0,35,36
 624 1456 624 1456 536 1413 c 128,-1,37
 448 1370 448 1370 369 1286 c 128,-1,38
 290 1202 290 1202 242 1054 c 128,-1,39
 194 906 194 906 194 720 c 0,21,22
EndSplineSet
EndChar

StartChar: uni01A3
Encoding: 419 419 357
Width: 1696
GlyphClass: 2
Flags: W
LayerCount: 2
Fore
SplineSet
118 518 m 0,0,1
 118 788 118 788 246 933 c 128,-1,2
 374 1078 374 1078 582 1078 c 0,3,4
 684 1078 684 1078 851 1048 c 128,-1,5
 1018 1018 1018 1018 1192 1018 c 0,6,7
 1340 1018 1340 1018 1500 1046 c 1,8,-1
 1500 0 l 1,9,-1
 1440 0 l 1,10,-1
 1440 990 l 1,11,12
 1280 966 1280 966 1192 966 c 0,13,14
 1016 966 1016 966 954 978 c 1,15,-1
 954 172 l 1,16,17
 828 -38 828 -38 582 -38 c 0,18,19
 386 -38 386 -38 252 103 c 128,-1,20
 118 244 118 244 118 518 c 0,0,1
178 518 m 0,21,22
 178 292 178 292 289 152 c 128,-1,23
 400 12 400 12 582 12 c 0,24,25
 786 12 786 12 894 194 c 1,26,-1
 894 986 l 1,27,28
 700 1026 700 1026 582 1026 c 0,29,30
 380 1026 380 1026 279 880 c 128,-1,31
 178 734 178 734 178 518 c 0,21,22
EndSplineSet
EndChar

StartChar: uni01A5
Encoding: 421 421 359
Width: 1174
GlyphClass: 2
Flags: W
LayerCount: 2
Fore
SplineSet
268 524 m 0,0,1
 268 296 268 296 370 154 c 128,-1,2
 472 12 472 12 630 12 c 0,3,4
 792 12 792 12 897 148 c 128,-1,5
 1002 284 1002 284 1002 520 c 0,6,7
 1002 740 1002 740 903 883 c 128,-1,8
 804 1026 804 1026 630 1026 c 0,9,10
 478 1026 478 1026 373 885 c 128,-1,11
 268 744 268 744 268 524 c 0,0,1
208 -488 m 1,12,-1
 208 1244 l 2,13,14
 208 1402 208 1402 295 1469 c 128,-1,15
 382 1536 382 1536 496 1536 c 0,16,17
 510 1536 510 1536 616 1530 c 1,18,-1
 616 1478 l 1,19,20
 562 1484 562 1484 504 1484 c 0,21,22
 380 1484 380 1484 325 1410 c 128,-1,23
 270 1336 270 1336 270 1238 c 2,24,-1
 270 776 l 1,25,26
 310 908 310 908 408 993 c 128,-1,27
 506 1078 506 1078 636 1078 c 0,28,29
 830 1078 830 1078 944 926 c 128,-1,30
 1058 774 1058 774 1058 520 c 0,31,32
 1058 252 1058 252 938 107 c 128,-1,33
 818 -38 818 -38 632 -38 c 0,34,35
 500 -38 500 -38 408 45 c 128,-1,36
 316 128 316 128 272 258 c 1,37,-1
 272 -488 l 1,38,-1
 208 -488 l 1,12,-1
EndSplineSet
EndChar

StartChar: uni01A6
Encoding: 422 422 360
Width: 1194
GlyphClass: 2
Flags: W
LayerCount: 2
Fore
SplineSet
274 548 m 1,0,-1
 612 548 l 2,1,2
 682 548 682 548 742 563 c 128,-1,3
 802 578 802 578 859 610 c 128,-1,4
 916 642 916 642 949 707 c 128,-1,5
 982 772 982 772 982 862 c 0,6,7
 982 996 982 996 896 1078 c 128,-1,8
 810 1160 810 1160 620 1160 c 2,9,-1
 274 1160 l 1,10,-1
 274 548 l 1,0,-1
210 0 m 1,11,-1
 210 1470 l 1,12,-1
 274 1470 l 1,13,-1
 274 1212 l 1,14,-1
 642 1212 l 2,15,16
 846 1212 846 1212 944 1114 c 128,-1,17
 1042 1016 1042 1016 1042 864 c 0,18,19
 1042 776 1042 776 1010 707 c 128,-1,20
 978 638 978 638 937 604 c 128,-1,21
 896 570 896 570 838 546 c 128,-1,22
 780 522 780 522 749 516 c 128,-1,23
 718 510 718 510 684 508 c 1,24,25
 766 478 766 478 812 416 c 128,-1,26
 858 354 858 354 900 248 c 0,27,28
 912 214 912 214 934 155 c 128,-1,29
 956 96 956 96 969 66 c 128,-1,30
 982 36 982 36 999 -7 c 128,-1,31
 1016 -50 1016 -50 1033 -85 c 128,-1,32
 1050 -120 1050 -120 1068 -156 c 1,33,-1
 996 -156 l 1,34,35
 960 -84 960 -84 908 53 c 128,-1,36
 856 190 856 190 822 270 c 0,37,38
 774 380 774 380 703 437 c 128,-1,39
 632 494 632 494 514 494 c 2,40,-1
 274 494 l 1,41,-1
 274 0 l 1,42,-1
 210 0 l 1,11,-1
EndSplineSet
EndChar

StartChar: uni01A7
Encoding: 423 423 361
Width: 1228
GlyphClass: 2
Flags: W
LayerCount: 2
Fore
SplineSet
118 368 m 0,0,1
 118 442 118 442 146 503 c 128,-1,2
 174 564 174 564 212 601 c 128,-1,3
 250 638 250 638 321 676 c 128,-1,4
 392 714 392 714 440 731 c 128,-1,5
 488 748 488 748 580 780 c 0,6,7
 682 812 682 812 743 837 c 128,-1,8
 804 862 804 862 876 906 c 128,-1,9
 948 950 948 950 982 1009 c 128,-1,10
 1016 1068 1016 1068 1016 1146 c 0,11,12
 1016 1288 1016 1288 911 1371 c 128,-1,13
 806 1454 806 1454 620 1454 c 0,14,15
 362 1454 362 1454 224 1252 c 1,16,-1
 166 1274 l 1,17,18
 226 1370 226 1370 345 1440 c 128,-1,19
 464 1510 464 1510 614 1510 c 0,20,21
 832 1510 832 1510 957 1412 c 128,-1,22
 1082 1314 1082 1314 1082 1146 c 0,23,24
 1082 1054 1082 1054 1044 985 c 128,-1,25
 1006 916 1006 916 928 868 c 128,-1,26
 850 820 850 820 785 793 c 128,-1,27
 720 766 720 766 610 730 c 0,28,29
 524 702 524 702 479 686 c 128,-1,30
 434 670 434 670 368 636 c 128,-1,31
 302 602 302 602 267 569 c 128,-1,32
 232 536 232 536 206 483 c 128,-1,33
 180 430 180 430 180 366 c 0,34,35
 180 202 180 202 300 109 c 128,-1,36
 420 16 420 16 608 16 c 0,37,38
 746 16 746 16 866 83 c 128,-1,39
 986 150 986 150 1052 254 c 1,40,-1
 1110 224 l 1,41,42
 1032 106 1032 106 905 34 c 128,-1,43
 778 -38 778 -38 612 -38 c 0,44,45
 376 -38 376 -38 247 69 c 128,-1,46
 118 176 118 176 118 368 c 0,0,1
EndSplineSet
EndChar

StartChar: uni01A8
Encoding: 424 424 362
Width: 976
GlyphClass: 2
Flags: W
LayerCount: 2
Fore
SplineSet
100 240 m 0,0,1
 100 294 100 294 125 340 c 128,-1,2
 150 386 150 386 184 415 c 128,-1,3
 218 444 218 444 277 472 c 128,-1,4
 336 500 336 500 379 514 c 128,-1,5
 422 528 422 528 490 546 c 0,6,7
 630 586 630 586 710 641 c 128,-1,8
 790 696 790 696 790 802 c 0,9,10
 790 900 790 900 705 963 c 128,-1,11
 620 1026 620 1026 482 1026 c 0,12,13
 382 1026 382 1026 302 977 c 128,-1,14
 222 928 222 928 176 848 c 1,15,-1
 128 876 l 1,16,17
 176 962 176 962 270 1020 c 128,-1,18
 364 1078 364 1078 482 1078 c 0,19,20
 640 1078 640 1078 745 1006 c 128,-1,21
 850 934 850 934 850 802 c 0,22,23
 850 734 850 734 823 683 c 128,-1,24
 796 632 796 632 740 598 c 128,-1,25
 684 564 684 564 639 546 c 128,-1,26
 594 528 594 528 516 504 c 0,27,28
 452 484 452 484 430 477 c 128,-1,29
 408 470 408 470 352 450 c 128,-1,30
 296 430 296 430 273 414 c 128,-1,31
 250 398 250 398 218 371 c 128,-1,32
 186 344 186 344 173 311 c 128,-1,33
 160 278 160 278 160 240 c 0,34,35
 160 140 160 140 248 76 c 128,-1,36
 336 12 336 12 482 12 c 0,37,38
 590 12 590 12 681 62 c 128,-1,39
 772 112 772 112 826 198 c 1,40,-1
 874 170 l 1,41,42
 748 -38 748 -38 482 -38 c 0,43,44
 298 -38 298 -38 199 42 c 128,-1,45
 100 122 100 122 100 240 c 0,0,1
EndSplineSet
EndChar

StartChar: uni01A9
Encoding: 425 425 363
Width: 1230
GlyphClass: 2
Flags: W
LayerCount: 2
Fore
SplineSet
200 0 m 1,0,-1
 200 50 l 1,1,-1
 774 734 l 1,2,-1
 200 1420 l 1,3,-1
 200 1470 l 1,4,-1
 1046 1470 l 1,5,-1
 1046 1416 l 1,6,-1
 278 1416 l 1,7,-1
 850 734 l 1,8,-1
 278 54 l 1,9,-1
 1058 54 l 1,10,-1
 1058 0 l 1,11,-1
 200 0 l 1,0,-1
EndSplineSet
EndChar

StartChar: uni01AA
Encoding: 426 426 364
Width: 856
GlyphClass: 2
Flags: W
LayerCount: 2
Fore
SplineSet
-4 1252 m 0,0,1
 -4 1162 -4 1162 60 1108 c 128,-1,2
 124 1054 124 1054 220 1054 c 0,3,4
 376 1054 376 1054 478 1146 c 1,5,6
 478 1196 478 1196 469 1243 c 128,-1,7
 460 1290 460 1290 435 1342 c 128,-1,8
 410 1394 410 1394 356 1425 c 128,-1,9
 302 1456 302 1456 224 1456 c 0,10,11
 128 1456 128 1456 62 1401 c 128,-1,12
 -4 1346 -4 1346 -4 1252 c 0,0,1
-64 1252 m 0,13,14
 -64 1374 -64 1374 19 1442 c 128,-1,15
 102 1510 102 1510 222 1510 c 0,16,17
 380 1510 380 1510 459 1406 c 128,-1,18
 538 1302 538 1302 538 1136 c 2,19,-1
 538 -204 l 2,20,21
 538 -324 538 -324 583 -383 c 128,-1,22
 628 -442 628 -442 744 -442 c 0,23,24
 750 -442 750 -442 826 -436 c 1,25,-1
 826 -490 l 1,26,27
 750 -496 750 -496 738 -496 c 0,28,29
 476 -496 476 -496 476 -204 c 2,30,-1
 476 1082 l 1,31,32
 386 1004 386 1004 214 1004 c 0,33,34
 100 1004 100 1004 18 1073 c 128,-1,35
 -64 1142 -64 1142 -64 1252 c 0,13,14
EndSplineSet
EndChar

StartChar: uni01AB
Encoding: 427 427 365
Width: 766
GlyphClass: 2
Flags: W
LayerCount: 2
Fore
SplineSet
60 988 m 1,0,-1
 60 1040 l 1,1,-1
 266 1040 l 1,2,-1
 266 1402 l 1,3,-1
 330 1402 l 1,4,-1
 330 1040 l 1,5,-1
 586 1040 l 1,6,-1
 586 988 l 1,7,-1
 330 988 l 1,8,-1
 330 274 l 2,9,10
 330 156 330 156 376 104 c 128,-1,11
 422 52 422 52 526 52 c 0,12,13
 636 52 636 52 678 60 c 1,14,-1
 678 -118 l 2,15,16
 678 -318 678 -318 612 -407 c 128,-1,17
 546 -496 546 -496 402 -496 c 0,18,19
 390 -496 390 -496 377 -495 c 128,-1,20
 364 -494 364 -494 349 -491 c 128,-1,21
 334 -488 334 -488 328 -488 c 1,22,-1
 328 -436 l 1,23,24
 390 -442 390 -442 400 -442 c 0,25,26
 520 -442 520 -442 570 -373 c 128,-1,27
 620 -304 620 -304 620 -118 c 2,28,-1
 620 2 l 1,29,30
 600 0 600 0 510 0 c 0,31,32
 384 4 384 4 325 66 c 128,-1,33
 266 128 266 128 266 262 c 2,34,-1
 266 988 l 1,35,-1
 60 988 l 1,0,-1
EndSplineSet
EndChar

StartChar: uni01AC
Encoding: 428 428 366
Width: 1108
GlyphClass: 2
Flags: W
LayerCount: 2
Fore
SplineSet
-10 1260 m 0,0,1
 -10 1364 -10 1364 65 1417 c 128,-1,2
 140 1470 140 1470 314 1470 c 2,3,-1
 1066 1470 l 1,4,-1
 1066 1416 l 1,5,-1
 594 1416 l 1,6,-1
 594 0 l 1,7,-1
 532 0 l 1,8,-1
 532 1416 l 1,9,-1
 318 1416 l 2,10,11
 180 1416 180 1416 116 1381 c 128,-1,12
 52 1346 52 1346 52 1256 c 0,13,14
 52 1244 52 1244 56 1214 c 1,15,-1
 -2 1214 l 1,16,17
 -2 1218 -2 1218 -6 1234 c 128,-1,18
 -10 1250 -10 1250 -10 1260 c 0,0,1
EndSplineSet
EndChar

StartChar: uni01AD
Encoding: 429 429 367
Width: 688
GlyphClass: 2
Flags: W
LayerCount: 2
Fore
SplineSet
60 986 m 1,0,-1
 60 1040 l 1,1,-1
 266 1040 l 1,2,-1
 266 1222 l 2,3,4
 266 1360 266 1360 345 1439 c 128,-1,5
 424 1518 424 1518 568 1518 c 0,6,7
 574 1518 574 1518 668 1512 c 1,8,-1
 668 1458 l 1,9,10
 618 1464 618 1464 572 1464 c 0,11,12
 462 1464 462 1464 396 1403 c 128,-1,13
 330 1342 330 1342 330 1218 c 2,14,-1
 330 1040 l 1,15,-1
 586 1040 l 1,16,-1
 586 986 l 1,17,-1
 330 986 l 1,18,-1
 330 274 l 2,19,20
 330 156 330 156 376 104 c 128,-1,21
 422 52 422 52 526 52 c 2,22,-1
 588 52 l 1,23,-1
 588 0 l 1,24,-1
 518 0 l 2,25,26
 266 0 266 0 266 262 c 2,27,-1
 266 986 l 1,28,-1
 60 986 l 1,0,-1
EndSplineSet
EndChar

StartChar: uni01AE
Encoding: 430 430 368
Width: 1094
GlyphClass: 2
Flags: W
LayerCount: 2
Fore
SplineSet
46 1416 m 1,0,-1
 46 1470 l 1,1,-1
 1052 1470 l 1,2,-1
 1052 1416 l 1,3,-1
 574 1416 l 1,4,-1
 574 -210 l 2,5,6
 574 -334 574 -334 617 -388 c 128,-1,7
 660 -442 660 -442 774 -442 c 0,8,9
 816 -442 816 -442 864 -434 c 1,10,-1
 864 -488 l 1,11,12
 806 -496 806 -496 770 -496 c 0,13,14
 634 -496 634 -496 573 -431 c 128,-1,15
 512 -366 512 -366 512 -208 c 2,16,-1
 512 1416 l 1,17,-1
 46 1416 l 1,0,-1
EndSplineSet
EndChar

StartChar: uni01B1
Encoding: 433 433 371
Width: 1528
GlyphClass: 2
Flags: W
LayerCount: 2
Fore
SplineSet
128 598 m 0,0,1
 128 1036 128 1036 582 1200 c 1,2,-1
 582 1416 l 1,3,-1
 138 1416 l 1,4,-1
 138 1470 l 1,5,-1
 638 1470 l 1,6,-1
 638 1162 l 1,7,8
 422 1098 422 1098 308 948 c 128,-1,9
 194 798 194 798 194 598 c 0,10,11
 194 340 194 340 353 178 c 128,-1,12
 512 16 512 16 766 16 c 256,13,14
 1020 16 1020 16 1180 180 c 128,-1,15
 1340 344 1340 344 1340 598 c 0,16,17
 1340 796 1340 796 1225 947 c 128,-1,18
 1110 1098 1110 1098 894 1162 c 1,19,-1
 894 1470 l 1,20,-1
 1396 1470 l 1,21,-1
 1396 1416 l 1,22,-1
 948 1416 l 1,23,-1
 948 1200 l 1,24,25
 1402 1036 1402 1036 1402 598 c 0,26,27
 1402 332 1402 332 1234 147 c 128,-1,28
 1066 -38 1066 -38 766 -38 c 256,29,30
 466 -38 466 -38 297 145 c 128,-1,31
 128 328 128 328 128 598 c 0,0,1
EndSplineSet
EndChar

StartChar: uni01B2
Encoding: 434 434 372
Width: 1460
GlyphClass: 2
Flags: W
LayerCount: 2
Fore
SplineSet
256 470 m 2,0,-1
 256 1470 l 1,1,-1
 316 1470 l 1,2,-1
 316 462 l 2,3,4
 316 16 316 16 740 16 c 0,5,6
 982 16 982 16 1124 239 c 128,-1,7
 1266 462 1266 462 1266 824 c 0,8,9
 1266 1116 1266 1116 1176 1285 c 128,-1,10
 1086 1454 1086 1454 924 1454 c 0,11,12
 848 1454 848 1454 820 1450 c 1,13,-1
 820 1504 l 1,14,15
 912 1510 912 1510 934 1510 c 0,16,17
 1104 1510 1104 1510 1217 1344 c 128,-1,18
 1330 1178 1330 1178 1330 828 c 0,19,20
 1330 438 1330 438 1173 200 c 128,-1,21
 1016 -38 1016 -38 740 -38 c 0,22,23
 502 -38 502 -38 379 84 c 128,-1,24
 256 206 256 206 256 470 c 2,0,-1
EndSplineSet
EndChar

StartChar: uni01B3
Encoding: 435 435 373
Width: 1110
GlyphClass: 2
Flags: W
LayerCount: 2
Fore
SplineSet
-4 1470 m 1,0,-1
 70 1470 l 1,1,-1
 436 870 l 2,2,3
 458 836 458 836 496 767 c 128,-1,4
 534 698 534 698 556 668 c 1,5,-1
 560 668 l 1,6,7
 570 686 570 686 614 758 c 128,-1,8
 658 830 658 830 680 870 c 2,9,-1
 986 1388 l 2,10,11
 1058 1510 1058 1510 1200 1510 c 0,12,13
 1222 1510 1222 1510 1256 1506 c 1,14,-1
 1256 1450 l 1,15,16
 1214 1454 1214 1454 1202 1454 c 0,17,18
 1098 1454 1098 1454 1040 1362 c 2,19,-1
 588 608 l 1,20,-1
 588 0 l 1,21,-1
 528 0 l 1,22,-1
 528 608 l 1,23,-1
 -4 1470 l 1,0,-1
EndSplineSet
EndChar

StartChar: uni01B4
Encoding: 436 436 374
Width: 932
GlyphClass: 2
Flags: W
LayerCount: 2
Fore
SplineSet
28 1040 m 1,0,-1
 98 1040 l 1,1,-1
 374 280 l 2,2,3
 390 238 390 238 420 152 c 128,-1,4
 450 66 450 66 466 22 c 1,5,-1
 470 22 l 1,6,7
 532 192 532 192 566 286 c 2,8,-1
 798 946 l 2,9,10
 846 1074 846 1074 986 1074 c 0,11,12
 990 1074 990 1074 1046 1068 c 1,13,-1
 1046 1018 l 1,14,15
 1032 1020 1032 1020 996 1020 c 0,16,17
 944 1020 944 1020 909 989 c 128,-1,18
 874 958 874 958 860 926 c 2,19,-1
 450 -200 l 2,20,21
 392 -352 392 -352 329 -420 c 128,-1,22
 266 -488 266 -488 186 -488 c 2,23,-1
 130 -488 l 1,24,-1
 130 -434 l 1,25,-1
 172 -434 l 2,26,27
 316 -434 316 -434 396 -176 c 2,28,-1
 436 -58 l 1,29,-1
 28 1040 l 1,0,-1
EndSplineSet
EndChar

StartChar: uni01B5
Encoding: 437 437 375
Width: 1252
GlyphClass: 2
Flags: W
LayerCount: 2
Fore
SplineSet
250 704 m 1,0,-1
 250 756 l 1,1,-1
 594 756 l 1,2,-1
 1032 1416 l 1,3,-1
 198 1416 l 1,4,-1
 198 1470 l 1,5,-1
 1104 1470 l 1,6,-1
 1104 1420 l 1,7,-1
 666 756 l 1,8,-1
 1004 756 l 1,9,-1
 1004 704 l 1,10,-1
 632 704 l 1,11,-1
 202 54 l 1,12,-1
 1126 54 l 1,13,-1
 1126 0 l 1,14,-1
 130 0 l 1,15,-1
 130 52 l 1,16,-1
 562 704 l 1,17,-1
 250 704 l 1,0,-1
EndSplineSet
EndChar

StartChar: uni01B6
Encoding: 438 438 376
Width: 948
GlyphClass: 2
Flags: W
LayerCount: 2
Fore
SplineSet
90 0 m 1,0,-1
 90 46 l 1,1,-1
 422 510 l 1,2,-1
 168 510 l 1,3,-1
 168 558 l 1,4,-1
 456 558 l 1,5,-1
 766 988 l 1,6,-1
 142 988 l 1,7,-1
 142 1040 l 1,8,-1
 838 1040 l 1,9,-1
 838 994 l 1,10,-1
 526 558 l 1,11,-1
 784 558 l 1,12,-1
 784 510 l 1,13,-1
 488 510 l 1,14,-1
 164 52 l 1,15,-1
 862 52 l 1,16,-1
 862 0 l 1,17,-1
 90 0 l 1,0,-1
EndSplineSet
EndChar

StartChar: uni01B7
Encoding: 439 439 377
Width: 1370
GlyphClass: 2
Flags: W
LayerCount: 2
Fore
SplineSet
122 -222 m 1,0,-1
 174 -194 l 1,1,2
 234 -304 234 -304 352 -371 c 128,-1,3
 470 -438 470 -438 616 -438 c 0,4,5
 888 -438 888 -438 1032 -286 c 128,-1,6
 1176 -134 1176 -134 1176 124 c 0,7,8
 1176 362 1176 362 1017 503 c 128,-1,9
 858 644 858 644 526 644 c 2,10,-1
 432 644 l 1,11,-1
 432 706 l 1,12,-1
 1050 1416 l 1,13,-1
 160 1416 l 1,14,-1
 160 1470 l 1,15,-1
 1144 1470 l 1,16,-1
 1144 1436 l 1,17,-1
 496 696 l 1,18,-1
 550 696 l 2,19,20
 884 694 884 694 1063 541 c 128,-1,21
 1242 388 1242 388 1242 126 c 0,22,23
 1242 -164 1242 -164 1070 -328 c 128,-1,24
 898 -492 898 -492 616 -492 c 0,25,26
 450 -492 450 -492 319 -415 c 128,-1,27
 188 -338 188 -338 122 -222 c 1,0,-1
EndSplineSet
EndChar

StartChar: uni01B8
Encoding: 440 440 378
Width: 1370
GlyphClass: 2
Flags: W
LayerCount: 2
Fore
SplineSet
130 126 m 0,0,1
 130 388 130 388 312 542 c 128,-1,2
 494 696 494 696 820 696 c 2,3,-1
 874 696 l 1,4,-1
 230 1436 l 1,5,-1
 230 1470 l 1,6,-1
 1212 1470 l 1,7,-1
 1212 1416 l 1,8,-1
 322 1416 l 1,9,-1
 938 706 l 1,10,-1
 938 644 l 1,11,-1
 846 644 l 2,12,13
 514 644 514 644 355 503 c 128,-1,14
 196 362 196 362 196 124 c 0,15,16
 196 -134 196 -134 341 -286 c 128,-1,17
 486 -438 486 -438 758 -438 c 0,18,19
 904 -438 904 -438 1021 -371 c 128,-1,20
 1138 -304 1138 -304 1198 -194 c 1,21,-1
 1250 -222 l 1,22,23
 1186 -338 1186 -338 1055 -415 c 128,-1,24
 924 -492 924 -492 756 -492 c 0,25,26
 474 -492 474 -492 302 -328 c 128,-1,27
 130 -164 130 -164 130 126 c 0,0,1
EndSplineSet
EndChar

StartChar: uni01B9
Encoding: 441 441 379
Width: 1060
GlyphClass: 2
Flags: W
LayerCount: 2
Fore
SplineSet
128 -40 m 0,0,1
 128 176 128 176 273 291 c 128,-1,2
 418 406 418 406 652 406 c 2,3,-1
 736 406 l 1,4,-1
 174 994 l 1,5,-1
 174 1040 l 1,6,-1
 908 1040 l 1,7,-1
 908 988 l 1,8,-1
 256 988 l 1,9,-1
 810 402 l 1,10,-1
 810 358 l 1,11,-1
 668 358 l 2,12,13
 440 358 440 358 316 253 c 128,-1,14
 192 148 192 148 192 -40 c 0,15,16
 192 -214 192 -214 291 -329 c 128,-1,17
 390 -444 390 -444 564 -444 c 0,18,19
 788 -444 788 -444 908 -250 c 1,20,-1
 958 -274 l 1,21,22
 828 -496 828 -496 562 -496 c 0,23,24
 368 -496 368 -496 248 -371 c 128,-1,25
 128 -246 128 -246 128 -40 c 0,0,1
EndSplineSet
EndChar

StartChar: uni01BA
Encoding: 442 442 380
Width: 948
GlyphClass: 2
Flags: W
LayerCount: 2
Fore
SplineSet
128 -252 m 0,0,1
 128 -168 128 -168 188 -107 c 128,-1,2
 248 -46 248 -46 332 -7 c 128,-1,3
 416 32 416 32 500 70 c 128,-1,4
 584 108 584 108 643 167 c 128,-1,5
 702 226 702 226 702 306 c 0,6,7
 702 494 702 494 372 494 c 2,8,-1
 302 494 l 1,9,-1
 302 542 l 1,10,-1
 724 988 l 1,11,-1
 138 988 l 1,12,-1
 138 1040 l 1,13,-1
 802 1040 l 1,14,-1
 802 996 l 1,15,-1
 368 538 l 1,16,-1
 410 538 l 2,17,18
 594 536 594 536 681 474 c 128,-1,19
 768 412 768 412 768 306 c 0,20,21
 768 218 768 218 708 153 c 128,-1,22
 648 88 648 88 564 47 c 128,-1,23
 480 6 480 6 396 -31 c 128,-1,24
 312 -68 312 -68 253 -122 c 128,-1,25
 194 -176 194 -176 194 -248 c 0,26,27
 194 -330 194 -330 250 -377 c 128,-1,28
 306 -424 306 -424 410 -424 c 0,29,30
 480 -424 480 -424 582 -410 c 1,31,-1
 582 -462 l 1,32,33
 496 -476 496 -476 402 -476 c 0,34,35
 276 -476 276 -476 202 -417 c 128,-1,36
 128 -358 128 -358 128 -252 c 0,0,1
EndSplineSet
EndChar

StartChar: uni01BB
Encoding: 443 443 381
Width: 1122
GlyphClass: 2
Flags: W
LayerCount: 2
Fore
SplineSet
258 696 m 1,0,-1
 258 748 l 1,1,-1
 714 748 l 1,2,3
 896 934 896 934 896 1118 c 0,4,5
 896 1282 896 1282 800 1369 c 128,-1,6
 704 1456 704 1456 546 1456 c 0,7,8
 414 1456 414 1456 322 1376 c 128,-1,9
 230 1296 230 1296 190 1156 c 1,10,-1
 130 1172 l 1,11,12
 172 1324 172 1324 281 1417 c 128,-1,13
 390 1510 390 1510 554 1510 c 0,14,15
 734 1510 734 1510 846 1408 c 128,-1,16
 958 1306 958 1306 958 1118 c 0,17,18
 958 932 958 932 792 748 c 1,19,-1
 1022 748 l 1,20,-1
 1022 696 l 1,21,-1
 748 696 l 1,22,23
 718 668 718 668 652 605 c 128,-1,24
 586 542 586 542 560 517 c 128,-1,25
 534 492 534 492 483 441 c 128,-1,26
 432 390 432 390 410 367 c 128,-1,27
 388 344 388 344 352 303 c 128,-1,28
 316 262 316 262 299 237 c 128,-1,29
 282 212 282 212 261 178 c 128,-1,30
 240 144 240 144 228 115 c 128,-1,31
 216 86 216 86 208 54 c 1,32,-1
 958 54 l 1,33,-1
 958 0 l 1,34,-1
 136 0 l 1,35,36
 136 128 136 128 262 283 c 128,-1,37
 388 438 388 438 664 696 c 1,38,-1
 258 696 l 1,0,-1
EndSplineSet
EndChar

StartChar: uni01BC
Encoding: 444 444 382
Width: 1058
GlyphClass: 2
Flags: W
LayerCount: 2
Fore
SplineSet
110 194 m 1,0,-1
 162 222 l 1,1,2
 264 14 264 14 504 14 c 0,3,4
 670 14 670 14 767 121 c 128,-1,5
 864 228 864 228 864 404 c 0,6,7
 864 570 864 570 745 687 c 128,-1,8
 626 804 626 804 376 804 c 0,9,10
 290 804 290 804 210 792 c 1,11,-1
 278 1416 l 1,12,-1
 166 1416 l 1,13,-1
 166 1470 l 1,14,-1
 852 1470 l 1,15,-1
 852 1416 l 1,16,-1
 334 1416 l 1,17,-1
 278 852 l 1,18,19
 346 856 346 856 404 856 c 0,20,21
 652 856 652 856 791 727 c 128,-1,22
 930 598 930 598 930 404 c 0,23,24
 930 196 930 196 813 79 c 128,-1,25
 696 -38 696 -38 504 -38 c 0,26,27
 224 -38 224 -38 110 194 c 1,0,-1
EndSplineSet
EndChar

StartChar: uni01BD
Encoding: 445 445 383
Width: 886
GlyphClass: 2
Flags: W
LayerCount: 2
Fore
SplineSet
118 130 m 1,0,-1
 166 158 l 1,1,2
 208 94 208 94 277 53 c 128,-1,3
 346 12 346 12 422 12 c 0,4,5
 564 12 564 12 634 85 c 128,-1,6
 704 158 704 158 704 272 c 0,7,8
 704 404 704 404 599 487 c 128,-1,9
 494 570 494 570 330 570 c 0,10,11
 242 570 242 570 218 568 c 1,12,-1
 280 988 l 1,13,-1
 176 988 l 1,14,-1
 176 1040 l 1,15,-1
 720 1040 l 1,16,-1
 720 988 l 1,17,-1
 336 988 l 1,18,-1
 280 622 l 1,19,-1
 334 622 l 2,20,21
 530 622 530 622 648 522 c 128,-1,22
 766 422 766 422 766 272 c 0,23,24
 766 128 766 128 677 45 c 128,-1,25
 588 -38 588 -38 422 -38 c 0,26,27
 226 -38 226 -38 118 130 c 1,0,-1
EndSplineSet
EndChar

StartChar: uni01BE
Encoding: 446 446 384
Width: 884
GlyphClass: 2
Flags: W
LayerCount: 2
Fore
SplineSet
116 988 m 1,0,-1
 116 1040 l 1,1,-1
 270 1040 l 1,2,-1
 270 1380 l 1,3,-1
 328 1380 l 1,4,-1
 328 1040 l 1,5,-1
 624 1040 l 1,6,-1
 624 988 l 1,7,-1
 328 988 l 1,8,-1
 328 778 l 2,9,10
 328 698 328 698 370 634 c 128,-1,11
 412 570 412 570 470 526 c 128,-1,12
 528 482 528 482 586 440 c 128,-1,13
 644 398 644 398 686 340 c 128,-1,14
 728 282 728 282 728 214 c 0,15,16
 728 -38 728 -38 418 -38 c 0,17,18
 226 -38 226 -38 116 126 c 1,19,-1
 160 158 l 1,20,21
 270 12 270 12 418 12 c 0,22,23
 668 12 668 12 668 214 c 0,24,25
 668 270 668 270 627 321 c 128,-1,26
 586 372 586 372 528 415 c 128,-1,27
 470 458 470 458 411 503 c 128,-1,28
 352 548 352 548 311 616 c 128,-1,29
 270 684 270 684 270 766 c 2,30,-1
 270 988 l 1,31,-1
 116 988 l 1,0,-1
EndSplineSet
EndChar

StartChar: uni01BF
Encoding: 447 447 385
Width: 1174
GlyphClass: 2
Flags: W
LayerCount: 2
Fore
SplineSet
208 -488 m 1,0,-1
 208 1040 l 1,1,-1
 272 1040 l 1,2,-1
 272 944 l 1,3,4
 452 1078 452 1078 630 1078 c 0,5,6
 826 1078 826 1078 942 963 c 128,-1,7
 1058 848 1058 848 1058 644 c 0,8,9
 1058 94 1058 94 272 0 c 1,10,-1
 272 -488 l 1,11,-1
 208 -488 l 1,0,-1
272 52 m 1,12,13
 1002 154 1002 154 1002 642 c 0,14,15
 1002 830 1002 830 895 928 c 128,-1,16
 788 1026 788 1026 622 1026 c 0,17,18
 452 1026 452 1026 272 882 c 1,19,-1
 272 52 l 1,12,13
EndSplineSet
EndChar

StartChar: uni01C0
Encoding: 448 448 386
Width: 418
GlyphClass: 2
Flags: W
LayerCount: 2
Fore
SplineSet
182 -454 m 1,0,-1
 182 1646 l 1,1,-1
 242 1646 l 1,2,-1
 242 -454 l 1,3,-1
 182 -454 l 1,0,-1
EndSplineSet
EndChar

StartChar: uni01C1
Encoding: 449 449 387
Width: 696
GlyphClass: 2
Flags: W
LayerCount: 2
Fore
SplineSet
180 -454 m 1,0,-1
 180 1646 l 1,1,-1
 242 1646 l 1,2,-1
 242 -454 l 1,3,-1
 180 -454 l 1,0,-1
460 -454 m 1,4,-1
 460 1646 l 1,5,-1
 522 1646 l 1,6,-1
 522 -454 l 1,7,-1
 460 -454 l 1,4,-1
EndSplineSet
EndChar

StartChar: uni01C2
Encoding: 450 450 388
Width: 580
GlyphClass: 2
Flags: W
LayerCount: 2
Fore
SplineSet
46 870 m 1,0,-1
 46 916 l 1,1,-1
 264 916 l 1,2,-1
 264 1646 l 1,3,-1
 322 1646 l 1,4,-1
 322 916 l 1,5,-1
 538 916 l 1,6,-1
 538 870 l 1,7,-1
 322 870 l 1,8,-1
 322 468 l 1,9,-1
 538 468 l 1,10,-1
 538 420 l 1,11,-1
 322 420 l 1,12,-1
 322 -456 l 1,13,-1
 264 -456 l 1,14,-1
 264 420 l 1,15,-1
 46 420 l 1,16,-1
 46 468 l 1,17,-1
 264 468 l 1,18,-1
 264 870 l 1,19,-1
 46 870 l 1,0,-1
EndSplineSet
EndChar

StartChar: uni01DD
Encoding: 477 477 415
Width: 1116
GlyphClass: 2
Flags: W
LayerCount: 2
Fore
SplineSet
170 486 m 1,0,1
 170 294 170 294 274 153 c 128,-1,2
 378 12 378 12 550 12 c 0,3,4
 730 12 730 12 832 156 c 128,-1,5
 934 300 934 300 940 486 c 1,6,-1
 170 486 l 1,0,1
110 480 m 2,7,-1
 110 536 l 1,8,-1
 940 536 l 1,9,10
 940 738 940 738 836 882 c 128,-1,11
 732 1026 732 1026 546 1026 c 0,12,13
 426 1026 426 1026 333 965 c 128,-1,14
 240 904 240 904 192 818 c 1,15,-1
 140 836 l 1,16,17
 274 1078 274 1078 546 1078 c 0,18,19
 766 1078 766 1078 883 919 c 128,-1,20
 1000 760 1000 760 1000 514 c 0,21,22
 1000 274 1000 274 877 118 c 128,-1,23
 754 -38 754 -38 550 -38 c 0,24,25
 350 -38 350 -38 230 116 c 128,-1,26
 110 270 110 270 110 480 c 2,7,-1
EndSplineSet
EndChar

StartChar: uni01E4
Encoding: 484 484 422
Width: 1440
GlyphClass: 2
Flags: W
LayerCount: 2
Fore
SplineSet
128 736 m 0,0,1
 128 1084 128 1084 289 1297 c 128,-1,2
 450 1510 450 1510 742 1510 c 0,3,4
 906 1510 906 1510 1020 1428 c 128,-1,5
 1134 1346 1134 1346 1188 1236 c 1,6,-1
 1136 1214 l 1,7,8
 1006 1454 1006 1454 742 1454 c 0,9,10
 480 1454 480 1454 337 1256 c 128,-1,11
 194 1058 194 1058 194 736 c 0,12,13
 194 410 194 410 339 213 c 128,-1,14
 484 16 484 16 740 16 c 0,15,16
 922 16 922 16 1031 120 c 128,-1,17
 1140 224 1140 224 1176 388 c 1,18,-1
 768 388 l 1,19,-1
 768 436 l 1,20,-1
 1188 436 l 1,21,22
 1198 488 1198 488 1198 558 c 2,23,-1
 1198 702 l 1,24,-1
 720 702 l 1,25,-1
 720 756 l 1,26,-1
 1258 756 l 1,27,-1
 1258 436 l 1,28,-1
 1454 436 l 1,29,-1
 1454 388 l 1,30,-1
 1258 388 l 1,31,-1
 1258 0 l 1,32,-1
 1204 0 l 1,33,-1
 1202 304 l 1,34,35
 1160 158 1160 158 1048 60 c 128,-1,36
 936 -38 936 -38 740 -38 c 0,37,38
 452 -38 452 -38 290 173 c 128,-1,39
 128 384 128 384 128 736 c 0,0,1
EndSplineSet
EndChar

StartChar: uni01E5
Encoding: 485 485 423
Width: 1162
GlyphClass: 2
Flags: W
LayerCount: 2
Fore
SplineSet
118 540 m 0,0,1
 118 778 118 778 231 928 c 128,-1,2
 344 1078 344 1078 536 1078 c 0,3,4
 678 1078 678 1078 766 992 c 128,-1,5
 854 906 854 906 894 794 c 1,6,-1
 894 1040 l 1,7,-1
 954 1040 l 1,8,-1
 954 82 l 2,9,10
 954 -62 954 -62 938 -152 c 1,11,-1
 1110 -152 l 1,12,-1
 1110 -196 l 1,13,-1
 928 -196 l 1,14,15
 888 -346 888 -346 799 -421 c 128,-1,16
 710 -496 710 -496 546 -496 c 0,17,18
 440 -496 440 -496 346 -450 c 128,-1,19
 252 -404 252 -404 196 -328 c 1,20,-1
 242 -298 l 1,21,22
 298 -364 298 -364 379 -404 c 128,-1,23
 460 -444 460 -444 546 -444 c 0,24,25
 794 -444 794 -444 862 -196 c 1,26,-1
 426 -196 l 1,27,-1
 426 -152 l 1,28,-1
 876 -152 l 1,29,30
 894 -70 894 -70 894 80 c 2,31,-1
 894 282 l 1,32,33
 852 164 852 164 764 85 c 128,-1,34
 676 6 676 6 536 6 c 0,35,36
 348 6 348 6 233 155 c 128,-1,37
 118 304 118 304 118 540 c 0,0,1
178 538 m 0,38,39
 178 322 178 322 279 191 c 128,-1,40
 380 60 380 60 536 60 c 0,41,42
 702 60 702 60 798 190 c 128,-1,43
 894 320 894 320 894 546 c 0,44,45
 894 758 894 758 795 892 c 128,-1,46
 696 1026 696 1026 540 1026 c 0,47,48
 372 1026 372 1026 275 888 c 128,-1,49
 178 750 178 750 178 538 c 0,38,39
EndSplineSet
EndChar

StartChar: uni01EF
Encoding: 495 495 433
Width: 1060
GlyphClass: 2
Flags: W
LayerCount: 2
Fore
SplineSet
142 1578 m 1,0,-1
 216 1578 l 1,1,-1
 494 1320 l 1,2,-1
 774 1578 l 1,3,-1
 848 1578 l 1,4,-1
 528 1268 l 1,5,-1
 462 1268 l 1,6,-1
 142 1578 l 1,0,-1
102 -274 m 1,7,-1
 152 -250 l 1,8,9
 272 -444 272 -444 496 -444 c 0,10,11
 670 -444 670 -444 771 -329 c 128,-1,12
 872 -214 872 -214 872 -38 c 0,13,14
 872 148 872 148 747 253 c 128,-1,15
 622 358 622 358 398 358 c 2,16,-1
 252 358 l 1,17,-1
 252 402 l 1,18,-1
 804 988 l 1,19,-1
 154 988 l 1,20,-1
 154 1040 l 1,21,-1
 888 1040 l 1,22,-1
 888 994 l 1,23,-1
 328 408 l 1,24,-1
 416 406 l 2,25,26
 654 402 654 402 794 287 c 128,-1,27
 934 172 934 172 934 -38 c 256,28,29
 934 -248 934 -248 814 -372 c 128,-1,30
 694 -496 694 -496 500 -496 c 0,31,32
 232 -496 232 -496 102 -274 c 1,7,-1
EndSplineSet
EndChar

StartChar: uni01F6
Encoding: 502 502 440
Width: 2108
GlyphClass: 2
Flags: W
LayerCount: 2
Fore
SplineSet
256 0 m 1,0,-1
 256 1470 l 1,1,-1
 316 1470 l 1,2,-1
 316 786 l 1,3,-1
 1130 786 l 1,4,-1
 1130 1470 l 1,5,-1
 1192 1470 l 1,6,-1
 1192 354 l 2,7,8
 1192 174 1192 174 1290 93 c 128,-1,9
 1388 12 1388 12 1532 12 c 0,10,11
 1670 12 1670 12 1763 102 c 128,-1,12
 1856 192 1856 192 1856 352 c 2,13,-1
 1856 1040 l 1,14,-1
 1920 1040 l 1,15,-1
 1920 344 l 2,16,17
 1920 164 1920 164 1809 63 c 128,-1,18
 1698 -38 1698 -38 1532 -38 c 0,19,20
 1356 -38 1356 -38 1243 55 c 128,-1,21
 1130 148 1130 148 1130 344 c 2,22,-1
 1130 732 l 1,23,-1
 316 732 l 1,24,-1
 316 0 l 1,25,-1
 256 0 l 1,0,-1
EndSplineSet
EndChar

StartChar: uni01F7
Encoding: 503 503 441
Width: 1318
GlyphClass: 2
Flags: W
LayerCount: 2
Fore
SplineSet
256 -484 m 1,0,-1
 256 1470 l 1,1,-1
 320 1470 l 1,2,-1
 320 1282 l 1,3,4
 538 1510 538 1510 774 1510 c 0,5,6
 974 1510 974 1510 1084 1368 c 128,-1,7
 1194 1226 1194 1226 1194 992 c 0,8,9
 1194 876 1194 876 1160 769 c 128,-1,10
 1126 662 1126 662 1076 577 c 128,-1,11
 1026 492 1026 492 947 412 c 128,-1,12
 868 332 868 332 796 277 c 128,-1,13
 724 222 724 222 628 165 c 128,-1,14
 532 108 532 108 468 76 c 128,-1,15
 404 44 404 44 320 4 c 1,16,-1
 320 -484 l 1,17,-1
 256 -484 l 1,0,-1
320 60 m 1,18,19
 396 96 396 96 448 123 c 128,-1,20
 500 150 500 150 591 205 c 128,-1,21
 682 260 682 260 747 312 c 128,-1,22
 812 364 812 364 889 441 c 128,-1,23
 966 518 966 518 1015 597 c 128,-1,24
 1064 676 1064 676 1098 779 c 128,-1,25
 1132 882 1132 882 1132 990 c 0,26,27
 1132 1194 1132 1194 1038 1325 c 128,-1,28
 944 1456 944 1456 758 1456 c 0,29,30
 642 1456 642 1456 514 1376 c 128,-1,31
 386 1296 386 1296 320 1202 c 1,32,-1
 320 60 l 1,18,19
EndSplineSet
EndChar

StartChar: Aringacute
Encoding: 506 506 444
Width: 1242
GlyphClass: 2
Flags: W
LayerCount: 2
Fore
SplineSet
6 0 m 1,0,-1
 580 1470 l 1,1,-1
 664 1470 l 1,2,-1
 1238 0 l 1,3,-1
 1164 0 l 1,4,-1
 980 486 l 1,5,-1
 264 486 l 1,6,-1
 76 0 l 1,7,-1
 6 0 l 1,0,-1
284 538 m 1,8,-1
 958 538 l 1,9,-1
 704 1200 l 2,10,11
 690 1240 690 1240 662 1311 c 128,-1,12
 634 1382 634 1382 624 1412 c 1,13,-1
 620 1412 l 1,14,15
 558 1246 558 1246 540 1200 c 2,16,-1
 284 538 l 1,8,-1
366 1808 m 256,17,18
 366 1904 366 1904 438 1976 c 0,19,20
 494 2032 494 2032 578 2044 c 1,21,-1
 718 2270 l 1,22,-1
 828 2270 l 1,23,-1
 648 2044 l 1,24,25
 732 2034 732 2034 792 1976 c 0,26,27
 862 1906 862 1906 862 1808 c 0,28,29
 862 1712 862 1712 793 1641 c 128,-1,30
 724 1570 724 1570 616 1570 c 0,31,32
 510 1570 510 1570 438 1641 c 128,-1,33
 366 1712 366 1712 366 1808 c 256,17,18
422 1808 m 256,34,35
 422 1730 422 1730 476 1675 c 128,-1,36
 530 1620 530 1620 616 1620 c 0,37,38
 700 1620 700 1620 753 1673 c 128,-1,39
 806 1726 806 1726 806 1808 c 0,40,41
 806 1888 806 1888 754 1943 c 128,-1,42
 702 1998 702 1998 616 1998 c 0,43,44
 528 1998 528 1998 475 1942 c 128,-1,45
 422 1886 422 1886 422 1808 c 256,34,35
EndSplineSet
EndChar

StartChar: aringacute
Encoding: 507 507 445
Width: 1126
GlyphClass: 2
Flags: W
LayerCount: 2
Fore
SplineSet
106 234 m 0,0,1
 106 518 106 518 534 582 c 0,2,3
 796 624 796 624 886 666 c 1,4,-1
 886 720 l 2,5,6
 886 854 886 854 796 940 c 128,-1,7
 706 1026 706 1026 546 1026 c 0,8,9
 448 1026 448 1026 357 980 c 128,-1,10
 266 934 266 934 204 850 c 1,11,-1
 160 878 l 1,12,13
 218 962 218 962 322 1020 c 128,-1,14
 426 1078 426 1078 546 1078 c 0,15,16
 742 1078 742 1078 844 976 c 128,-1,17
 946 874 946 874 946 714 c 2,18,-1
 946 0 l 1,19,-1
 888 0 l 1,20,-1
 888 226 l 1,21,22
 850 120 850 120 732 41 c 128,-1,23
 614 -38 614 -38 462 -38 c 0,24,25
 298 -38 298 -38 202 38 c 128,-1,26
 106 114 106 114 106 234 c 0,0,1
168 240 m 0,27,28
 168 148 168 148 246 80 c 128,-1,29
 324 12 324 12 466 12 c 0,30,31
 636 12 636 12 761 122 c 128,-1,32
 886 232 886 232 886 406 c 2,33,-1
 886 614 l 1,34,35
 770 570 770 570 536 534 c 0,36,37
 340 504 340 504 254 431 c 128,-1,38
 168 358 168 358 168 240 c 0,27,28
292 1454 m 0,39,40
 292 1550 292 1550 362 1620 c 0,41,42
 418 1676 418 1676 500 1688 c 1,43,-1
 642 1914 l 1,44,-1
 752 1914 l 1,45,-1
 572 1688 l 1,46,47
 656 1680 656 1680 716 1622 c 0,48,49
 788 1552 788 1552 788 1454 c 256,50,51
 788 1356 788 1356 718 1285 c 128,-1,52
 648 1214 648 1214 540 1214 c 0,53,54
 434 1214 434 1214 363 1285 c 128,-1,55
 292 1356 292 1356 292 1454 c 0,39,40
348 1454 m 0,56,57
 348 1374 348 1374 402 1319 c 128,-1,58
 456 1264 456 1264 540 1264 c 0,59,60
 626 1264 626 1264 679 1317 c 128,-1,61
 732 1370 732 1370 732 1454 c 0,62,63
 732 1532 732 1532 680 1587 c 128,-1,64
 628 1642 628 1642 540 1642 c 0,65,66
 454 1642 454 1642 401 1586 c 128,-1,67
 348 1530 348 1530 348 1454 c 0,56,57
EndSplineSet
EndChar

StartChar: uni021C
Encoding: 540 540 478
Width: 1164
GlyphClass: 2
Flags: W
LayerCount: 2
Fore
SplineSet
128 -422 m 1,0,1
 232 -436 232 -436 374 -436 c 0,2,3
 642 -436 642 -436 810 -293 c 128,-1,4
 978 -150 978 -150 978 94 c 0,5,6
 978 226 978 226 934 323 c 128,-1,7
 890 420 890 420 818 471 c 128,-1,8
 746 522 746 522 670 545 c 128,-1,9
 594 568 594 568 514 568 c 0,10,11
 464 568 464 568 356 530 c 1,12,-1
 356 586 l 1,13,-1
 512 632 l 2,14,15
 718 690 718 690 833 814 c 128,-1,16
 948 938 948 938 948 1094 c 0,17,18
 948 1266 948 1266 842 1360 c 128,-1,19
 736 1454 736 1454 556 1454 c 0,20,21
 312 1454 312 1454 192 1224 c 1,22,-1
 134 1250 l 1,23,24
 274 1510 274 1510 554 1510 c 0,25,26
 784 1510 784 1510 898 1393 c 128,-1,27
 1012 1276 1012 1276 1012 1096 c 256,28,29
 1012 916 1012 916 890 792 c 128,-1,30
 768 668 768 668 618 616 c 1,31,-1
 618 614 l 1,32,33
 690 602 690 602 758 571 c 128,-1,34
 826 540 826 540 892 483 c 128,-1,35
 958 426 958 426 999 325 c 128,-1,36
 1040 224 1040 224 1040 94 c 0,37,38
 1040 -160 1040 -160 861 -326 c 128,-1,39
 682 -492 682 -492 376 -492 c 0,40,41
 234 -492 234 -492 128 -480 c 1,42,-1
 128 -422 l 1,0,1
EndSplineSet
EndChar

StartChar: uni021D
Encoding: 541 541 479
Width: 916
GlyphClass: 2
Flags: W
LayerCount: 2
Fore
SplineSet
130 -432 m 1,0,1
 194 -444 194 -444 300 -444 c 0,2,3
 496 -444 496 -444 609 -334 c 128,-1,4
 722 -224 722 -224 722 -24 c 0,5,6
 722 148 722 148 627 238 c 128,-1,7
 532 328 532 328 402 328 c 0,8,9
 390 328 390 328 286 306 c 1,10,-1
 286 360 l 1,11,-1
 388 384 l 2,12,13
 538 424 538 424 620 521 c 128,-1,14
 702 618 702 618 702 740 c 0,15,16
 702 856 702 856 631 941 c 128,-1,17
 560 1026 560 1026 422 1026 c 0,18,19
 268 1026 268 1026 178 886 c 1,20,-1
 128 910 l 1,21,22
 228 1078 228 1078 424 1078 c 0,23,24
 592 1078 592 1078 676 979 c 128,-1,25
 760 880 760 880 760 744 c 0,26,27
 760 602 760 602 680 508 c 128,-1,28
 600 414 600 414 478 366 c 1,29,30
 594 354 594 354 688 255 c 128,-1,31
 782 156 782 156 782 -22 c 0,32,33
 782 -242 782 -242 654 -369 c 128,-1,34
 526 -496 526 -496 300 -496 c 0,35,36
 218 -496 218 -496 130 -484 c 1,37,-1
 130 -432 l 1,0,1
EndSplineSet
EndChar

StartChar: uni0220
Encoding: 544 544 482
Width: 1490
GlyphClass: 2
Flags: W
LayerCount: 2
Fore
SplineSet
256 0 m 1,0,-1
 256 1470 l 1,1,-1
 316 1470 l 1,2,-1
 316 1244 l 1,3,-1
 318 1244 l 1,4,5
 366 1336 366 1336 496 1423 c 128,-1,6
 626 1510 626 1510 792 1510 c 0,7,8
 1242 1510 1242 1510 1242 1016 c 2,9,-1
 1242 -488 l 1,10,-1
 1176 -488 l 1,11,-1
 1176 1000 l 2,12,13
 1176 1236 1176 1236 1082 1345 c 128,-1,14
 988 1454 988 1454 784 1454 c 0,15,16
 614 1454 614 1454 465 1335 c 128,-1,17
 316 1216 316 1216 316 1054 c 2,18,-1
 316 0 l 1,19,-1
 256 0 l 1,0,-1
EndSplineSet
EndChar

StartChar: uni0221
Encoding: 545 545 483
Width: 1556
GlyphClass: 2
Flags: W
LayerCount: 2
Fore
SplineSet
1010 -270 m 1,0,1
 1034 -336 1034 -336 1104 -389 c 128,-1,2
 1174 -442 1174 -442 1258 -442 c 0,3,4
 1350 -442 1350 -442 1407 -399 c 128,-1,5
 1464 -356 1464 -356 1464 -290 c 0,6,7
 1464 -214 1464 -214 1410 -168 c 128,-1,8
 1356 -122 1356 -122 1264 -122 c 0,9,10
 1112 -122 1112 -122 1010 -270 c 1,0,1
118 520 m 0,11,12
 118 780 118 780 236 929 c 128,-1,13
 354 1078 354 1078 544 1078 c 0,14,15
 680 1078 680 1078 777 987 c 128,-1,16
 874 896 874 896 908 770 c 1,17,-1
 908 1534 l 1,18,-1
 968 1534 l 1,19,-1
 968 -6 l 2,20,21
 968 -136 968 -136 992 -210 c 1,22,23
 1034 -154 1034 -154 1105 -112 c 128,-1,24
 1176 -70 1176 -70 1264 -70 c 0,25,26
 1390 -70 1390 -70 1457 -134 c 128,-1,27
 1524 -198 1524 -198 1524 -286 c 0,28,29
 1524 -378 1524 -378 1451 -437 c 128,-1,30
 1378 -496 1378 -496 1262 -496 c 0,31,32
 1074 -496 1074 -496 976 -324 c 1,33,34
 948 -368 948 -368 900 -480 c 1,35,-1
 846 -462 l 1,36,37
 904 -324 904 -324 944 -264 c 1,38,39
 908 -186 908 -186 908 -8 c 2,40,-1
 908 252 l 1,41,42
 870 128 870 128 774 45 c 128,-1,43
 678 -38 678 -38 540 -38 c 0,44,45
 368 -38 368 -38 243 102 c 128,-1,46
 118 242 118 242 118 520 c 0,11,12
178 520 m 0,47,48
 178 292 178 292 278 152 c 128,-1,49
 378 12 378 12 548 12 c 0,50,51
 700 12 700 12 804 145 c 128,-1,52
 908 278 908 278 908 520 c 0,53,54
 908 754 908 754 800 890 c 128,-1,55
 692 1026 692 1026 544 1026 c 0,56,57
 382 1026 382 1026 280 889 c 128,-1,58
 178 752 178 752 178 520 c 0,47,48
EndSplineSet
EndChar

StartChar: uni0222
Encoding: 546 546 484
Width: 1342
GlyphClass: 2
Flags: W
LayerCount: 2
Fore
SplineSet
124 458 m 0,0,1
 124 640 124 640 236 769 c 128,-1,2
 348 898 348 898 504 942 c 1,3,4
 364 984 364 984 275 1091 c 128,-1,5
 186 1198 186 1198 186 1356 c 0,6,7
 186 1426 186 1426 194 1470 c 1,8,-1
 254 1470 l 1,9,10
 254 1448 254 1448 252 1412 c 128,-1,11
 250 1376 250 1376 250 1358 c 0,12,13
 250 1194 250 1194 365 1081 c 128,-1,14
 480 968 480 968 672 968 c 0,15,16
 846 968 846 968 971 1076 c 128,-1,17
 1096 1184 1096 1184 1096 1358 c 0,18,19
 1096 1382 1096 1382 1090 1470 c 1,20,-1
 1150 1470 l 1,21,22
 1158 1430 1158 1430 1158 1356 c 0,23,24
 1158 1190 1158 1190 1061 1084 c 128,-1,25
 964 978 964 978 826 942 c 1,26,27
 988 908 988 908 1104 773 c 128,-1,28
 1220 638 1220 638 1220 458 c 0,29,30
 1220 254 1220 254 1078 108 c 128,-1,31
 936 -38 936 -38 672 -38 c 0,32,33
 412 -38 412 -38 268 107 c 128,-1,34
 124 252 124 252 124 458 c 0,0,1
190 458 m 0,35,36
 190 268 190 268 325 142 c 128,-1,37
 460 16 460 16 672 16 c 0,38,39
 878 16 878 16 1017 140 c 128,-1,40
 1156 264 1156 264 1156 458 c 0,41,42
 1156 640 1156 640 1019 776 c 128,-1,43
 882 912 882 912 672 912 c 0,44,45
 472 912 472 912 331 782 c 128,-1,46
 190 652 190 652 190 458 c 0,35,36
EndSplineSet
EndChar

StartChar: uni0223
Encoding: 547 547 485
Width: 1134
GlyphClass: 2
Flags: W
LayerCount: 2
Fore
SplineSet
118 478 m 0,0,1
 118 688 118 688 215 824 c 128,-1,2
 312 960 312 960 452 984 c 1,3,4
 326 1012 326 1012 247 1113 c 128,-1,5
 168 1214 168 1214 168 1386 c 0,6,7
 168 1476 168 1476 174 1510 c 1,8,-1
 232 1510 l 1,9,10
 228 1418 228 1418 228 1388 c 0,11,12
 228 1220 228 1220 319 1115 c 128,-1,13
 410 1010 410 1010 568 1010 c 0,14,15
 716 1010 716 1010 810 1112 c 128,-1,16
 904 1214 904 1214 904 1388 c 0,17,18
 904 1448 904 1448 900 1510 c 1,19,-1
 958 1510 l 1,20,21
 966 1470 966 1470 966 1386 c 0,22,23
 966 1220 966 1220 886 1113 c 128,-1,24
 806 1006 806 1006 680 984 c 1,25,26
 822 964 822 964 920 827 c 128,-1,27
 1018 690 1018 690 1018 478 c 0,28,29
 1018 260 1018 260 899 111 c 128,-1,30
 780 -38 780 -38 568 -38 c 0,31,32
 360 -38 360 -38 239 108 c 128,-1,33
 118 254 118 254 118 478 c 0,0,1
178 478 m 0,34,35
 178 280 178 280 285 146 c 128,-1,36
 392 12 392 12 568 12 c 0,37,38
 734 12 734 12 845 140 c 128,-1,39
 956 268 956 268 956 478 c 256,40,41
 956 688 956 688 848 822 c 128,-1,42
 740 956 740 956 568 956 c 0,43,44
 408 956 408 956 293 828 c 128,-1,45
 178 700 178 700 178 478 c 0,34,35
EndSplineSet
EndChar

StartChar: uni0224
Encoding: 548 548 486
Width: 1252
GlyphClass: 2
Flags: W
LayerCount: 2
Fore
SplineSet
130 0 m 1,0,-1
 130 52 l 1,1,-1
 1032 1416 l 1,2,-1
 198 1416 l 1,3,-1
 198 1470 l 1,4,-1
 1104 1470 l 1,5,-1
 1104 1420 l 1,6,-1
 202 54 l 1,7,-1
 912 54 l 2,8,9
 1070 54 1070 54 1144 -19 c 128,-1,10
 1218 -92 1218 -92 1218 -254 c 0,11,12
 1218 -366 1218 -366 1172 -488 c 1,13,-1
 1114 -488 l 1,14,15
 1158 -368 1158 -368 1158 -256 c 0,16,17
 1158 -122 1158 -122 1103 -61 c 128,-1,18
 1048 0 1048 0 892 0 c 2,19,-1
 130 0 l 1,0,-1
EndSplineSet
EndChar

StartChar: uni0225
Encoding: 549 549 487
Width: 1096
GlyphClass: 2
Flags: W
LayerCount: 2
Fore
SplineSet
90 0 m 1,0,-1
 90 46 l 1,1,-1
 766 990 l 1,2,-1
 142 990 l 1,3,-1
 142 1042 l 1,4,-1
 838 1042 l 1,5,-1
 838 996 l 1,6,-1
 164 52 l 1,7,-1
 816 52 l 2,8,9
 952 52 952 52 1012 -23 c 128,-1,10
 1072 -98 1072 -98 1072 -248 c 0,11,12
 1072 -392 1072 -392 1038 -488 c 1,13,-1
 978 -488 l 1,14,15
 1014 -376 1014 -376 1014 -248 c 0,16,17
 1014 -114 1014 -114 961 -57 c 128,-1,18
 908 0 908 0 794 0 c 2,19,-1
 90 0 l 1,0,-1
EndSplineSet
EndChar

StartChar: uni0234
Encoding: 564 564 502
Width: 856
GlyphClass: 2
Flags: W
LayerCount: 2
Fore
SplineSet
318 -272 m 1,0,1
 340 -340 340 -340 410 -391 c 128,-1,2
 480 -442 480 -442 564 -442 c 0,3,4
 654 -442 654 -442 711 -400 c 128,-1,5
 768 -358 768 -358 768 -290 c 0,6,7
 768 -214 768 -214 714 -168 c 128,-1,8
 660 -122 660 -122 568 -122 c 0,9,10
 422 -122 422 -122 318 -272 c 1,0,1
152 -462 m 1,11,12
 212 -320 212 -320 252 -266 c 1,13,14
 212 -170 212 -170 212 -6 c 2,15,-1
 212 1534 l 1,16,-1
 274 1534 l 1,17,-1
 274 -6 l 2,18,19
 274 -124 274 -124 300 -210 c 1,20,21
 404 -70 404 -70 568 -70 c 0,22,23
 692 -70 692 -70 761 -135 c 128,-1,24
 830 -200 830 -200 830 -286 c 0,25,26
 830 -378 830 -378 757 -437 c 128,-1,27
 684 -496 684 -496 568 -496 c 0,28,29
 476 -496 476 -496 400 -448 c 128,-1,30
 324 -400 324 -400 282 -326 c 1,31,32
 244 -388 244 -388 206 -480 c 1,33,-1
 152 -462 l 1,11,12
EndSplineSet
EndChar

StartChar: uni0235
Encoding: 565 565 503
Width: 1558
GlyphClass: 2
Flags: W
LayerCount: 2
Fore
SplineSet
1016 -272 m 1,0,1
 1040 -340 1040 -340 1109 -391 c 128,-1,2
 1178 -442 1178 -442 1262 -442 c 0,3,4
 1354 -442 1354 -442 1410 -400 c 128,-1,5
 1466 -358 1466 -358 1466 -290 c 0,6,7
 1466 -216 1466 -216 1413 -169 c 128,-1,8
 1360 -122 1360 -122 1268 -122 c 0,9,10
 1120 -122 1120 -122 1016 -272 c 1,0,1
200 0 m 1,11,-1
 200 1040 l 1,12,-1
 258 1040 l 1,13,-1
 258 804 l 1,14,-1
 262 804 l 1,15,16
 276 888 276 888 382 983 c 128,-1,17
 488 1078 488 1078 642 1078 c 0,18,19
 702 1078 702 1078 753 1062 c 128,-1,20
 804 1046 804 1046 857 1005 c 128,-1,21
 910 964 910 964 942 880 c 128,-1,22
 974 796 974 796 974 676 c 2,23,-1
 974 -6 l 2,24,25
 974 -124 974 -124 998 -210 c 1,26,27
 1102 -70 1102 -70 1270 -70 c 0,28,29
 1396 -70 1396 -70 1462 -134 c 128,-1,30
 1528 -198 1528 -198 1528 -286 c 0,31,32
 1528 -378 1528 -378 1455 -437 c 128,-1,33
 1382 -496 1382 -496 1266 -496 c 0,34,35
 1174 -496 1174 -496 1098 -448 c 128,-1,36
 1022 -400 1022 -400 982 -326 c 1,37,38
 950 -374 950 -374 904 -480 c 1,39,-1
 850 -462 l 1,40,41
 904 -330 904 -330 950 -266 c 1,42,43
 910 -170 910 -170 910 -4 c 2,44,-1
 910 658 l 2,45,46
 910 1026 910 1026 632 1026 c 0,47,48
 488 1026 488 1026 374 910 c 128,-1,49
 260 794 260 794 260 640 c 2,50,-1
 260 0 l 1,51,-1
 200 0 l 1,11,-1
EndSplineSet
EndChar

StartChar: uni0236
Encoding: 566 566 504
Width: 912
GlyphClass: 2
Flags: W
LayerCount: 2
Fore
SplineSet
370 -272 m 1,0,1
 392 -338 392 -338 464 -390 c 128,-1,2
 536 -442 536 -442 620 -442 c 0,3,4
 712 -442 712 -442 767 -399 c 128,-1,5
 822 -356 822 -356 822 -290 c 0,6,7
 822 -216 822 -216 768 -169 c 128,-1,8
 714 -122 714 -122 622 -122 c 0,9,10
 474 -122 474 -122 370 -272 c 1,0,1
60 988 m 1,11,-1
 60 1040 l 1,12,-1
 266 1040 l 1,13,-1
 266 1402 l 1,14,-1
 330 1402 l 1,15,-1
 330 1040 l 1,16,-1
 612 1040 l 1,17,-1
 612 988 l 1,18,-1
 330 988 l 1,19,-1
 330 -6 l 2,20,21
 330 -140 330 -140 352 -210 c 1,22,23
 456 -70 456 -70 622 -70 c 0,24,25
 746 -70 746 -70 815 -135 c 128,-1,26
 884 -200 884 -200 884 -286 c 0,27,28
 884 -378 884 -378 811 -437 c 128,-1,29
 738 -496 738 -496 622 -496 c 0,30,31
 530 -496 530 -496 453 -448 c 128,-1,32
 376 -400 376 -400 334 -326 c 1,33,34
 306 -372 306 -372 262 -480 c 1,35,-1
 206 -462 l 1,36,37
 278 -296 278 -296 302 -266 c 1,38,39
 266 -178 266 -178 266 -4 c 2,40,-1
 266 988 l 1,41,-1
 60 988 l 1,11,-1
EndSplineSet
EndChar

StartChar: uni0237
Encoding: 567 567 505
Width: 568
GlyphClass: 2
Flags: W
LayerCount: 2
Fore
SplineSet
-8 -434 m 1,0,-1
 48 -434 l 2,1,2
 258 -434 258 -434 258 -158 c 2,3,-1
 258 1040 l 1,4,-1
 318 1040 l 1,5,-1
 318 -166 l 2,6,7
 318 -322 318 -322 249 -405 c 128,-1,8
 180 -488 180 -488 60 -488 c 2,9,-1
 -8 -488 l 1,10,-1
 -8 -434 l 1,0,-1
EndSplineSet
EndChar

StartChar: uni0238
Encoding: 568 568 506
Width: 1876
GlyphClass: 2
Flags: W
LayerCount: 2
Fore
SplineSet
118 520 m 0,0,1
 118 782 118 782 237 930 c 128,-1,2
 356 1078 356 1078 544 1078 c 0,3,4
 680 1078 680 1078 777 987 c 128,-1,5
 874 896 874 896 908 770 c 1,6,-1
 908 1534 l 1,7,-1
 968 1534 l 1,8,-1
 968 768 l 1,9,10
 994 884 994 884 1092 981 c 128,-1,11
 1190 1078 1190 1078 1332 1078 c 0,12,13
 1526 1078 1526 1078 1643 928 c 128,-1,14
 1760 778 1760 778 1760 520 c 0,15,16
 1760 242 1760 242 1634 102 c 128,-1,17
 1508 -38 1508 -38 1328 -38 c 0,18,19
 1198 -38 1198 -38 1104 44 c 128,-1,20
 1010 126 1010 126 968 250 c 1,21,-1
 968 0 l 1,22,-1
 908 0 l 1,23,-1
 908 252 l 1,24,25
 868 126 868 126 773 44 c 128,-1,26
 678 -38 678 -38 540 -38 c 0,27,28
 462 -38 462 -38 389 -7 c 128,-1,29
 316 24 316 24 255 88 c 128,-1,30
 194 152 194 152 156 263 c 128,-1,31
 118 374 118 374 118 520 c 0,0,1
178 520 m 0,32,33
 178 292 178 292 278 152 c 128,-1,34
 378 12 378 12 548 12 c 0,35,36
 692 12 692 12 794 135 c 128,-1,37
 896 258 896 258 908 474 c 1,38,-1
 908 572 l 1,39,40
 896 782 896 782 790 904 c 128,-1,41
 684 1026 684 1026 544 1026 c 0,42,43
 382 1026 382 1026 280 889 c 128,-1,44
 178 752 178 752 178 520 c 0,32,33
966 470 m 1,45,46
 980 258 980 258 1080 135 c 128,-1,47
 1180 12 1180 12 1324 12 c 0,48,49
 1490 12 1490 12 1594 149 c 128,-1,50
 1698 286 1698 286 1698 520 c 0,51,52
 1698 750 1698 750 1594 888 c 128,-1,53
 1490 1026 1490 1026 1328 1026 c 0,54,55
 1190 1026 1190 1026 1085 903 c 128,-1,56
 980 780 980 780 966 568 c 1,57,-1
 966 470 l 1,45,46
EndSplineSet
EndChar

StartChar: uni0239
Encoding: 569 569 507
Width: 1878
GlyphClass: 2
Flags: W
LayerCount: 2
Fore
SplineSet
118 520 m 0,0,1
 118 774 118 774 234 926 c 128,-1,2
 350 1078 350 1078 542 1078 c 0,3,4
 666 1078 666 1078 764 999 c 128,-1,5
 862 920 862 920 908 780 c 1,6,-1
 908 1040 l 1,7,-1
 968 1040 l 1,8,-1
 968 776 l 1,9,10
 1012 912 1012 912 1110 995 c 128,-1,11
 1208 1078 1208 1078 1334 1078 c 0,12,13
 1528 1078 1528 1078 1645 926 c 128,-1,14
 1762 774 1762 774 1762 520 c 0,15,16
 1762 254 1762 254 1639 108 c 128,-1,17
 1516 -38 1516 -38 1330 -38 c 0,18,19
 1198 -38 1198 -38 1105 45 c 128,-1,20
 1012 128 1012 128 968 260 c 1,21,-1
 968 -488 l 1,22,-1
 908 -488 l 1,23,-1
 908 260 l 1,24,25
 862 128 862 128 770 45 c 128,-1,26
 678 -38 678 -38 544 -38 c 0,27,28
 358 -38 358 -38 238 108 c 128,-1,29
 118 254 118 254 118 520 c 0,0,1
178 520 m 0,30,31
 178 286 178 286 280 149 c 128,-1,32
 382 12 382 12 544 12 c 0,33,34
 698 12 698 12 798 141 c 128,-1,35
 898 270 898 270 908 478 c 1,36,-1
 908 570 l 1,37,38
 896 772 896 772 794 899 c 128,-1,39
 692 1026 692 1026 546 1026 c 0,40,41
 372 1026 372 1026 275 882 c 128,-1,42
 178 738 178 738 178 520 c 0,30,31
968 480 m 1,43,44
 982 268 982 268 1081 140 c 128,-1,45
 1180 12 1180 12 1330 12 c 0,46,47
 1490 12 1490 12 1594 148 c 128,-1,48
 1698 284 1698 284 1698 520 c 0,49,50
 1698 740 1698 740 1603 883 c 128,-1,51
 1508 1026 1508 1026 1330 1026 c 0,52,53
 1188 1026 1188 1026 1085 900 c 128,-1,54
 982 774 982 774 968 574 c 1,55,-1
 968 480 l 1,43,44
EndSplineSet
EndChar

StartChar: uni023A
Encoding: 570 570 508
Width: 1242
GlyphClass: 2
Flags: W
LayerCount: 2
Fore
SplineSet
284 538 m 1,0,-1
 476 538 l 1,1,-1
 774 1020 l 1,2,-1
 704 1200 l 2,3,4
 668 1294 668 1294 624 1412 c 1,5,-1
 620 1412 l 1,6,7
 608 1378 608 1378 581 1305 c 128,-1,8
 554 1232 554 1232 540 1200 c 2,9,-1
 284 538 l 1,0,-1
536 538 m 1,10,-1
 958 538 l 1,11,-1
 796 960 l 1,12,-1
 536 538 l 1,10,-1
6 0 m 1,13,-1
 580 1470 l 1,14,-1
 664 1470 l 1,15,-1
 814 1086 l 1,16,-1
 1084 1524 l 1,17,-1
 1146 1524 l 1,18,-1
 838 1026 l 1,19,-1
 1238 0 l 1,20,-1
 1164 0 l 1,21,-1
 980 486 l 1,22,-1
 504 486 l 1,23,-1
 98 -170 l 1,24,-1
 40 -170 l 1,25,-1
 444 486 l 1,26,-1
 264 486 l 1,27,-1
 80 0 l 1,28,-1
 6 0 l 1,13,-1
EndSplineSet
EndChar

StartChar: uni023B
Encoding: 571 571 509
Width: 1248
GlyphClass: 2
Flags: W
LayerCount: 2
Fore
SplineSet
128 736 m 0,0,1
 128 1100 128 1100 293 1305 c 128,-1,2
 458 1510 458 1510 724 1510 c 0,3,4
 846 1510 846 1510 946 1454 c 1,5,-1
 1000 1598 l 1,6,-1
 1054 1598 l 1,7,-1
 990 1426 l 1,8,9
 1096 1352 1096 1352 1150 1220 c 1,10,-1
 1096 1198 l 1,11,12
 1040 1312 1040 1312 968 1368 c 1,13,-1
 492 76 l 1,14,15
 602 16 602 16 724 16 c 0,16,17
 870 16 870 16 976 93 c 128,-1,18
 1082 170 1082 170 1136 286 c 1,19,-1
 1192 264 l 1,20,21
 1044 -38 1044 -38 724 -38 c 0,22,23
 588 -38 588 -38 472 20 c 1,24,-1
 400 -164 l 1,25,-1
 346 -164 l 1,26,-1
 426 46 l 1,27,28
 286 134 286 134 207 312 c 128,-1,29
 128 490 128 490 128 736 c 0,0,1
450 102 m 1,30,-1
 926 1400 l 1,31,32
 838 1454 838 1454 724 1454 c 0,33,34
 482 1454 482 1454 338 1258 c 128,-1,35
 194 1062 194 1062 194 736 c 0,36,37
 194 516 194 516 261 352 c 128,-1,38
 328 188 328 188 450 102 c 1,30,-1
EndSplineSet
EndChar

StartChar: uni023C
Encoding: 572 572 510
Width: 1002
GlyphClass: 2
Flags: W
LayerCount: 2
Fore
SplineSet
118 520 m 0,0,1
 118 760 118 760 235 919 c 128,-1,2
 352 1078 352 1078 562 1078 c 0,3,4
 666 1078 666 1078 740 1036 c 1,5,-1
 794 1192 l 1,6,-1
 846 1192 l 1,7,-1
 786 1006 l 1,8,9
 870 948 870 948 908 848 c 1,10,-1
 854 830 l 1,11,12
 824 898 824 898 766 950 c 1,13,-1
 456 30 l 1,14,15
 500 12 500 12 562 12 c 0,16,17
 666 12 666 12 752 74 c 128,-1,18
 838 136 838 136 884 220 c 1,19,-1
 936 200 l 1,20,21
 886 100 886 100 787 31 c 128,-1,22
 688 -38 688 -38 562 -38 c 0,23,24
 484 -38 484 -38 438 -22 c 1,25,-1
 398 -152 l 1,26,-1
 344 -152 l 1,27,-1
 392 -4 l 1,28,29
 266 52 266 52 192 190 c 128,-1,30
 118 328 118 328 118 520 c 0,0,1
410 50 m 1,31,-1
 724 982 l 1,32,33
 652 1026 652 1026 562 1026 c 0,34,35
 388 1026 388 1026 283 884 c 128,-1,36
 178 742 178 742 178 520 c 0,37,38
 178 350 178 350 240 226 c 128,-1,39
 302 102 302 102 410 50 c 1,31,-1
EndSplineSet
EndChar

StartChar: uni023D
Encoding: 573 573 511
Width: 1078
GlyphClass: 2
Flags: W
LayerCount: 2
Fore
SplineSet
58 818 m 1,0,-1
 58 870 l 1,1,-1
 256 870 l 1,2,-1
 256 1470 l 1,3,-1
 316 1470 l 1,4,-1
 316 870 l 1,5,-1
 766 870 l 1,6,-1
 766 818 l 1,7,-1
 316 818 l 1,8,-1
 316 54 l 1,9,-1
 1054 54 l 1,10,-1
 1054 0 l 1,11,-1
 256 0 l 1,12,-1
 256 818 l 1,13,-1
 58 818 l 1,0,-1
EndSplineSet
EndChar

StartChar: uni023E
Encoding: 574 574 512
Width: 1094
GlyphClass: 2
Flags: W
LayerCount: 2
Fore
SplineSet
578 1416 m 1,0,-1
 578 826 l 1,1,-1
 902 1416 l 1,2,-1
 578 1416 l 1,0,-1
44 1416 m 1,3,-1
 44 1470 l 1,4,-1
 932 1470 l 1,5,-1
 1002 1596 l 1,6,-1
 1056 1596 l 1,7,-1
 986 1470 l 1,8,-1
 1052 1470 l 1,9,-1
 1052 1416 l 1,10,-1
 958 1416 l 1,11,-1
 578 726 l 1,12,-1
 578 0 l 1,13,-1
 516 0 l 1,14,-1
 516 612 l 1,15,-1
 148 -58 l 1,16,-1
 92 -58 l 1,17,-1
 516 712 l 1,18,-1
 516 1416 l 1,19,-1
 44 1416 l 1,3,-1
EndSplineSet
EndChar

StartChar: uni023F
Encoding: 575 575 513
Width: 976
GlyphClass: 2
Flags: W
LayerCount: 2
Fore
SplineSet
102 170 m 1,0,-1
 150 198 l 1,1,2
 270 12 270 12 492 12 c 0,3,4
 638 12 638 12 725 76 c 128,-1,5
 812 140 812 140 812 240 c 0,6,7
 812 312 812 312 755 366 c 128,-1,8
 698 420 698 420 647 440 c 128,-1,9
 596 460 596 460 482 494 c 0,10,11
 466 502 466 502 458 504 c 0,12,13
 380 526 380 526 333 546 c 128,-1,14
 286 566 286 566 231 600 c 128,-1,15
 176 634 176 634 150 684 c 128,-1,16
 124 734 124 734 124 802 c 0,17,18
 124 932 124 932 230 1005 c 128,-1,19
 336 1078 336 1078 492 1078 c 0,20,21
 612 1078 612 1078 705 1020 c 128,-1,22
 798 962 798 962 846 876 c 1,23,-1
 800 848 l 1,24,25
 754 930 754 930 673 978 c 128,-1,26
 592 1026 592 1026 492 1026 c 0,27,28
 356 1026 356 1026 271 963 c 128,-1,29
 186 900 186 900 186 802 c 0,30,31
 186 696 186 696 266 640 c 128,-1,32
 346 584 346 584 482 546 c 0,33,34
 568 524 568 524 622 503 c 128,-1,35
 676 482 676 482 741 447 c 128,-1,36
 806 412 806 412 840 359 c 128,-1,37
 874 306 874 306 874 240 c 0,38,39
 874 122 874 122 776 42 c 128,-1,40
 678 -38 678 -38 492 -38 c 0,41,42
 354 -38 354 -38 238 32 c 1,43,44
 300 -220 300 -220 340 -298 c 0,45,46
 420 -450 420 -450 566 -450 c 0,47,48
 598 -450 598 -450 636 -444 c 1,49,-1
 636 -490 l 1,50,51
 574 -496 574 -496 566 -496 c 0,52,53
 494 -496 494 -496 441 -473 c 128,-1,54
 388 -450 388 -450 353 -409 c 128,-1,55
 318 -368 318 -368 290 -309 c 128,-1,56
 262 -250 262 -250 242 -186 c 128,-1,57
 222 -122 222 -122 202 -44 c 0,58,59
 192 -6 192 -6 188 12 c 0,60,61
 170 62 170 62 102 170 c 1,0,-1
EndSplineSet
EndChar

StartChar: uni0240
Encoding: 576 576 514
Width: 948
GlyphClass: 2
Flags: W
LayerCount: 2
Fore
SplineSet
90 0 m 1,0,-1
 90 46 l 1,1,-1
 766 988 l 1,2,-1
 142 988 l 1,3,-1
 142 1040 l 1,4,-1
 838 1040 l 1,5,-1
 838 994 l 1,6,-1
 160 48 l 1,7,8
 252 46 252 46 329 -5 c 128,-1,9
 406 -56 406 -56 459 -129 c 128,-1,10
 512 -202 512 -202 562 -274 c 128,-1,11
 612 -346 612 -346 671 -395 c 128,-1,12
 730 -444 730 -444 794 -444 c 0,13,14
 836 -444 836 -444 868 -438 c 1,15,-1
 868 -488 l 1,16,17
 826 -496 826 -496 790 -496 c 0,18,19
 716 -496 716 -496 649 -446 c 128,-1,20
 582 -396 582 -396 530 -323 c 128,-1,21
 478 -250 478 -250 425 -177 c 128,-1,22
 372 -104 372 -104 301 -52 c 128,-1,23
 230 0 230 0 150 0 c 2,24,-1
 90 0 l 1,0,-1
EndSplineSet
EndChar

StartChar: uni0241
Encoding: 577 577 515
Width: 1090
GlyphClass: 2
Flags: W
LayerCount: 2
Fore
SplineSet
148 1228 m 1,0,1
 206 1366 206 1366 313 1438 c 128,-1,2
 420 1510 420 1510 542 1510 c 0,3,4
 720 1510 720 1510 821 1405 c 128,-1,5
 922 1300 922 1300 922 1130 c 0,6,7
 922 1038 922 1038 883 964 c 128,-1,8
 844 890 844 890 790 838 c 128,-1,9
 736 786 736 786 681 733 c 128,-1,10
 626 680 626 680 587 604 c 128,-1,11
 548 528 548 528 548 434 c 2,12,-1
 548 0 l 1,13,-1
 484 0 l 1,14,-1
 484 436 l 2,15,16
 484 538 484 538 523 618 c 128,-1,17
 562 698 562 698 616 751 c 128,-1,18
 670 804 670 804 725 855 c 128,-1,19
 780 906 780 906 818 974 c 128,-1,20
 856 1042 856 1042 856 1126 c 0,21,22
 856 1274 856 1274 773 1364 c 128,-1,23
 690 1454 690 1454 542 1454 c 0,24,25
 318 1454 318 1454 202 1208 c 1,26,-1
 148 1228 l 1,0,1
EndSplineSet
EndChar

StartChar: uni0250
Encoding: 592 592 516
Width: 1122
GlyphClass: 2
Flags: W
LayerCount: 2
Fore
SplineSet
242 424 m 1,0,1
 356 468 356 468 592 504 c 0,2,3
 788 534 788 534 874 607 c 128,-1,4
 960 680 960 680 960 798 c 0,5,6
 960 890 960 890 881 958 c 128,-1,7
 802 1026 802 1026 662 1026 c 0,8,9
 490 1026 490 1026 366 916 c 128,-1,10
 242 806 242 806 242 634 c 2,11,-1
 242 424 l 1,0,1
182 324 m 2,12,-1
 182 1040 l 1,13,-1
 242 1040 l 1,14,-1
 242 812 l 1,15,16
 278 920 278 920 396 999 c 128,-1,17
 514 1078 514 1078 666 1078 c 0,18,19
 830 1078 830 1078 925 1001 c 128,-1,20
 1020 924 1020 924 1020 802 c 0,21,22
 1020 666 1020 666 922 577 c 128,-1,23
 824 488 824 488 594 456 c 0,24,25
 328 414 328 414 242 374 c 1,26,-1
 242 318 l 2,27,28
 242 182 242 182 332 97 c 128,-1,29
 422 12 422 12 582 12 c 0,30,31
 786 12 786 12 922 190 c 1,32,-1
 968 162 l 1,33,34
 910 76 910 76 807 19 c 128,-1,35
 704 -38 704 -38 582 -38 c 0,36,37
 386 -38 386 -38 284 62 c 128,-1,38
 182 162 182 162 182 324 c 2,12,-1
EndSplineSet
EndChar

StartChar: uni0251
Encoding: 593 593 517
Width: 1162
GlyphClass: 2
Flags: W
LayerCount: 2
Fore
SplineSet
178 520 m 0,0,1
 178 290 178 290 282 151 c 128,-1,2
 386 12 386 12 548 12 c 0,3,4
 698 12 698 12 805 147 c 128,-1,5
 912 282 912 282 912 516 c 256,6,7
 912 750 912 750 802 888 c 128,-1,8
 692 1026 692 1026 544 1026 c 0,9,10
 382 1026 382 1026 280 889 c 128,-1,11
 178 752 178 752 178 520 c 0,0,1
118 520 m 0,12,13
 118 776 118 776 235 927 c 128,-1,14
 352 1078 352 1078 542 1078 c 0,15,16
 684 1078 684 1078 784 978 c 128,-1,17
 884 878 884 878 904 774 c 1,18,-1
 904 1040 l 1,19,-1
 964 1040 l 1,20,-1
 964 0 l 1,21,-1
 906 0 l 1,22,-1
 906 244 l 1,23,24
 862 122 862 122 769 42 c 128,-1,25
 676 -38 676 -38 544 -38 c 0,26,27
 370 -38 370 -38 244 103 c 128,-1,28
 118 244 118 244 118 520 c 0,12,13
EndSplineSet
EndChar

StartChar: uni0252
Encoding: 594 594 518
Width: 1166
GlyphClass: 2
Flags: W
LayerCount: 2
Fore
SplineSet
200 0 m 1,0,-1
 200 1040 l 1,1,-1
 260 1040 l 1,2,-1
 260 774 l 1,3,4
 280 878 280 878 381 978 c 128,-1,5
 482 1078 482 1078 624 1078 c 0,6,7
 818 1078 818 1078 934 928 c 128,-1,8
 1050 778 1050 778 1050 520 c 0,9,10
 1050 244 1050 244 924 103 c 128,-1,11
 798 -38 798 -38 624 -38 c 0,12,13
 492 -38 492 -38 396 43 c 128,-1,14
 300 124 300 124 258 244 c 1,15,-1
 258 0 l 1,16,-1
 200 0 l 1,0,-1
256 516 m 0,17,18
 256 284 256 284 362 148 c 128,-1,19
 468 12 468 12 618 12 c 0,20,21
 782 12 782 12 886 151 c 128,-1,22
 990 290 990 290 990 520 c 0,23,24
 990 752 990 752 888 889 c 128,-1,25
 786 1026 786 1026 622 1026 c 0,26,27
 476 1026 476 1026 366 889 c 128,-1,28
 256 752 256 752 256 516 c 0,17,18
EndSplineSet
EndChar

StartChar: uni0253
Encoding: 595 595 519
Width: 1174
GlyphClass: 2
Flags: W
LayerCount: 2
Fore
SplineSet
266 520 m 0,0,1
 266 282 266 282 370 147 c 128,-1,2
 474 12 474 12 626 12 c 0,3,4
 792 12 792 12 896 151 c 128,-1,5
 1000 290 1000 290 1000 520 c 256,6,7
 1000 750 1000 750 897 888 c 128,-1,8
 794 1026 794 1026 630 1026 c 0,9,10
 482 1026 482 1026 374 890 c 128,-1,11
 266 754 266 754 266 520 c 0,0,1
208 0 m 1,12,-1
 208 1016 l 2,13,14
 208 1542 208 1542 590 1542 c 0,15,16
 726 1542 726 1542 844 1504 c 1,17,-1
 834 1454 l 1,18,19
 698 1490 698 1490 592 1490 c 0,20,21
 270 1490 270 1490 270 1012 c 2,22,-1
 270 768 l 1,23,24
 300 886 300 886 395 982 c 128,-1,25
 490 1078 490 1078 634 1078 c 0,26,27
 830 1078 830 1078 944 927 c 128,-1,28
 1058 776 1058 776 1058 520 c 0,29,30
 1058 246 1058 246 934 104 c 128,-1,31
 810 -38 810 -38 630 -38 c 0,32,33
 496 -38 496 -38 403 45 c 128,-1,34
 310 128 310 128 270 250 c 1,35,-1
 270 0 l 1,36,-1
 208 0 l 1,12,-1
EndSplineSet
EndChar

StartChar: uni0254
Encoding: 596 596 520
Width: 1002
GlyphClass: 2
Flags: W
LayerCount: 2
Fore
SplineSet
68 200 m 1,0,-1
 120 220 l 1,1,2
 164 134 164 134 251 73 c 128,-1,3
 338 12 338 12 442 12 c 0,4,5
 610 12 610 12 718 153 c 128,-1,6
 826 294 826 294 826 520 c 0,7,8
 826 742 826 742 720 884 c 128,-1,9
 614 1026 614 1026 442 1026 c 0,10,11
 346 1026 346 1026 268 971 c 128,-1,12
 190 916 190 916 152 830 c 1,13,-1
 98 848 l 1,14,15
 138 948 138 948 229 1013 c 128,-1,16
 320 1078 320 1078 442 1078 c 0,17,18
 650 1078 650 1078 768 919 c 128,-1,19
 886 760 886 760 886 520 c 0,20,21
 886 264 886 264 762 113 c 128,-1,22
 638 -38 638 -38 442 -38 c 0,23,24
 318 -38 318 -38 217 31 c 128,-1,25
 116 100 116 100 68 200 c 1,0,-1
EndSplineSet
EndChar

StartChar: uni0255
Encoding: 597 597 521
Width: 1004
GlyphClass: 2
Flags: W
LayerCount: 2
Fore
SplineSet
422 48 m 1,0,1
 506 12 506 12 626 12 c 0,2,3
 726 12 726 12 795 54 c 128,-1,4
 864 96 864 96 864 158 c 0,5,6
 864 210 864 210 824 244 c 128,-1,7
 784 278 784 278 714 278 c 0,8,9
 612 278 612 278 535 208 c 128,-1,10
 458 138 458 138 422 48 c 1,0,1
118 522 m 0,11,12
 118 760 118 760 235 919 c 128,-1,13
 352 1078 352 1078 566 1078 c 0,14,15
 686 1078 686 1078 777 1011 c 128,-1,16
 868 944 868 944 906 848 c 1,17,-1
 852 830 l 1,18,19
 820 908 820 908 743 967 c 128,-1,20
 666 1026 666 1026 566 1026 c 0,21,22
 386 1026 386 1026 282 885 c 128,-1,23
 178 744 178 744 178 520 c 0,24,25
 178 214 178 214 370 76 c 1,26,27
 422 186 422 186 509 258 c 128,-1,28
 596 330 596 330 714 330 c 0,29,30
 812 330 812 330 869 279 c 128,-1,31
 926 228 926 228 926 158 c 0,32,33
 926 70 926 70 839 16 c 128,-1,34
 752 -38 752 -38 622 -38 c 0,35,36
 464 -38 464 -38 400 -4 c 1,37,38
 384 -38 384 -38 360 -130 c 1,39,-1
 304 -116 l 1,40,41
 316 -48 316 -48 348 22 c 1,42,43
 118 162 118 162 118 522 c 0,11,12
EndSplineSet
EndChar

StartChar: uni0256
Encoding: 598 598 522
Width: 1174
GlyphClass: 2
Flags: W
LayerCount: 2
Fore
SplineSet
118 520 m 0,0,1
 118 782 118 782 237 930 c 128,-1,2
 356 1078 356 1078 544 1078 c 0,3,4
 680 1078 680 1078 777 987 c 128,-1,5
 874 896 874 896 908 770 c 1,6,-1
 908 1534 l 1,7,-1
 968 1534 l 1,8,-1
 968 -88 l 2,9,10
 968 -282 968 -282 1023 -362 c 128,-1,11
 1078 -442 1078 -442 1186 -442 c 0,12,13
 1242 -442 1242 -442 1300 -434 c 1,14,-1
 1300 -486 l 1,15,16
 1244 -496 1244 -496 1184 -496 c 0,17,18
 1048 -496 1048 -496 978 -408 c 128,-1,19
 908 -320 908 -320 908 -90 c 2,20,-1
 908 252 l 1,21,22
 868 126 868 126 773 44 c 128,-1,23
 678 -38 678 -38 540 -38 c 0,24,25
 368 -38 368 -38 243 102 c 128,-1,26
 118 242 118 242 118 520 c 0,0,1
178 520 m 0,27,28
 178 292 178 292 278 152 c 128,-1,29
 378 12 378 12 548 12 c 0,30,31
 698 12 698 12 803 146 c 128,-1,32
 908 280 908 280 908 520 c 0,33,34
 908 754 908 754 800 890 c 128,-1,35
 692 1026 692 1026 544 1026 c 0,36,37
 382 1026 382 1026 280 889 c 128,-1,38
 178 752 178 752 178 520 c 0,27,28
EndSplineSet
EndChar

StartChar: uni0257
Encoding: 599 599 523
Width: 1174
GlyphClass: 2
Flags: W
LayerCount: 2
Fore
SplineSet
118 522 m 0,0,1
 118 782 118 782 236 930 c 128,-1,2
 354 1078 354 1078 544 1078 c 0,3,4
 680 1078 680 1078 777 987 c 128,-1,5
 874 896 874 896 908 770 c 1,6,-1
 908 1282 l 2,7,8
 908 1412 908 1412 988 1477 c 128,-1,9
 1068 1542 1068 1542 1206 1542 c 0,10,11
 1266 1542 1266 1542 1310 1536 c 1,12,-1
 1310 1484 l 1,13,14
 1222 1490 1222 1490 1214 1490 c 0,15,16
 1098 1490 1098 1490 1033 1434 c 128,-1,17
 968 1378 968 1378 968 1264 c 2,18,-1
 968 0 l 1,19,-1
 908 0 l 1,20,-1
 908 252 l 1,21,22
 870 128 870 128 774 45 c 128,-1,23
 678 -38 678 -38 540 -38 c 0,24,25
 368 -38 368 -38 243 103 c 128,-1,26
 118 244 118 244 118 522 c 0,0,1
178 522 m 0,27,28
 178 294 178 294 278 153 c 128,-1,29
 378 12 378 12 548 12 c 0,30,31
 698 12 698 12 803 148 c 128,-1,32
 908 284 908 284 908 522 c 0,33,34
 908 756 908 756 800 891 c 128,-1,35
 692 1026 692 1026 544 1026 c 0,36,37
 382 1026 382 1026 280 889 c 128,-1,38
 178 752 178 752 178 522 c 0,27,28
EndSplineSet
EndChar

StartChar: uni0258
Encoding: 600 600 524
Width: 1116
GlyphClass: 2
Flags: W
LayerCount: 2
Fore
SplineSet
170 550 m 1,0,-1
 940 550 l 1,1,2
 934 738 934 738 833 882 c 128,-1,3
 732 1026 732 1026 550 1026 c 0,4,5
 378 1026 378 1026 274 885 c 128,-1,6
 170 744 170 744 170 550 c 1,0,-1
110 504 m 1,7,-1
 110 558 l 2,8,9
 110 770 110 770 229 924 c 128,-1,10
 348 1078 348 1078 550 1078 c 0,11,12
 758 1078 758 1078 879 923 c 128,-1,13
 1000 768 1000 768 1000 526 c 0,14,15
 1000 278 1000 278 879 120 c 128,-1,16
 758 -38 758 -38 546 -38 c 0,17,18
 272 -38 272 -38 140 200 c 1,19,-1
 192 222 l 1,20,21
 242 134 242 134 334 73 c 128,-1,22
 426 12 426 12 546 12 c 0,23,24
 730 12 730 12 835 156 c 128,-1,25
 940 300 940 300 940 504 c 1,26,-1
 110 504 l 1,7,-1
EndSplineSet
EndChar

StartChar: uni025A
Encoding: 602 602 526
Width: 1220
GlyphClass: 2
Flags: W
LayerCount: 2
Fore
SplineSet
110 440 m 1,0,-1
 880 796 l 1,1,2
 834 894 834 894 749 960 c 128,-1,3
 664 1026 664 1026 536 1026 c 0,4,5
 420 1026 420 1026 330 964 c 128,-1,6
 240 902 240 902 196 816 c 1,7,-1
 142 836 l 1,8,9
 276 1078 276 1078 536 1078 c 0,10,11
 812 1078 812 1078 930 822 c 1,12,-1
 1072 902 l 1,13,14
 1122 784 1122 784 1242 784 c 0,15,16
 1278 784 1278 784 1294 786 c 1,17,-1
 1294 736 l 1,18,19
 1276 734 1276 734 1244 734 c 0,20,21
 1106 734 1106 734 1054 828 c 1,22,-1
 948 772 l 1,23,24
 992 658 992 658 992 516 c 0,25,26
 992 280 992 280 874 121 c 128,-1,27
 756 -38 756 -38 538 -38 c 0,28,29
 362 -38 362 -38 243 97 c 128,-1,30
 124 232 124 232 110 440 c 1,0,-1
174 412 m 1,31,32
 200 226 200 226 302 119 c 128,-1,33
 404 12 404 12 538 12 c 0,34,35
 732 12 732 12 832 162 c 128,-1,36
 932 312 932 312 932 506 c 0,37,38
 932 510 932 510 932 514 c 0,39,40
 932 632 932 632 898 746 c 1,41,-1
 174 412 l 1,31,32
EndSplineSet
EndChar

StartChar: uni025B
Encoding: 603 603 527
Width: 904
GlyphClass: 2
Flags: W
LayerCount: 2
Fore
SplineSet
118 260 m 0,0,1
 118 380 118 380 196 454 c 128,-1,2
 274 528 274 528 386 550 c 1,3,-1
 386 554 l 1,4,5
 290 576 290 576 225 639 c 128,-1,6
 160 702 160 702 160 804 c 0,7,8
 160 924 160 924 242 1001 c 128,-1,9
 324 1078 324 1078 484 1078 c 0,10,11
 690 1078 690 1078 796 912 c 1,12,-1
 746 886 l 1,13,14
 650 1026 650 1026 488 1026 c 0,15,16
 356 1026 356 1026 288 965 c 128,-1,17
 220 904 220 904 220 806 c 0,18,19
 220 706 220 706 302 641 c 128,-1,20
 384 576 384 576 550 576 c 2,21,-1
 594 576 l 1,22,-1
 594 530 l 1,23,-1
 550 530 l 2,24,25
 360 530 360 530 269 449 c 128,-1,26
 178 368 178 368 178 260 c 0,27,28
 178 150 178 150 263 81 c 128,-1,29
 348 12 348 12 492 12 c 0,30,31
 582 12 582 12 663 59 c 128,-1,32
 744 106 744 106 790 166 c 1,33,-1
 836 134 l 1,34,35
 776 54 776 54 685 8 c 128,-1,36
 594 -38 594 -38 492 -38 c 0,37,38
 322 -38 322 -38 220 41 c 128,-1,39
 118 120 118 120 118 260 c 0,0,1
EndSplineSet
EndChar

StartChar: uni025C
Encoding: 604 604 528
Width: 904
GlyphClass: 2
Flags: W
LayerCount: 2
Fore
SplineSet
68 134 m 1,0,-1
 114 166 l 1,1,2
 160 106 160 106 241 59 c 128,-1,3
 322 12 322 12 412 12 c 0,4,5
 558 12 558 12 644 81 c 128,-1,6
 730 150 730 150 730 260 c 0,7,8
 730 368 730 368 639 449 c 128,-1,9
 548 530 548 530 358 530 c 2,10,-1
 310 530 l 1,11,-1
 310 576 l 1,12,-1
 358 576 l 2,13,14
 524 576 524 576 605 641 c 128,-1,15
 686 706 686 706 686 806 c 0,16,17
 686 904 686 904 620 965 c 128,-1,18
 554 1026 554 1026 420 1026 c 0,19,20
 256 1026 256 1026 160 886 c 1,21,-1
 112 912 l 1,22,23
 218 1078 218 1078 420 1078 c 0,24,25
 580 1078 580 1078 663 1001 c 128,-1,26
 746 924 746 924 746 804 c 0,27,28
 746 702 746 702 681 639 c 128,-1,29
 616 576 616 576 518 554 c 1,30,-1
 518 550 l 1,31,32
 630 528 630 528 711 454 c 128,-1,33
 792 380 792 380 792 260 c 0,34,35
 792 120 792 120 689 41 c 128,-1,36
 586 -38 586 -38 416 -38 c 0,37,38
 314 -38 314 -38 221 8 c 128,-1,39
 128 54 128 54 68 134 c 1,0,-1
EndSplineSet
EndChar

StartChar: uni025D
Encoding: 605 605 529
Width: 958
GlyphClass: 2
Flags: W
LayerCount: 2
Fore
SplineSet
68 134 m 1,0,-1
 114 166 l 1,1,2
 152 112 152 112 237 62 c 128,-1,3
 322 12 322 12 406 12 c 0,4,5
 562 12 562 12 646 81 c 128,-1,6
 730 150 730 150 730 260 c 256,7,8
 730 370 730 370 639 450 c 128,-1,9
 548 530 548 530 358 530 c 2,10,-1
 310 530 l 1,11,-1
 310 576 l 1,12,-1
 358 576 l 2,13,14
 524 576 524 576 605 641 c 128,-1,15
 686 706 686 706 686 806 c 0,16,17
 686 908 686 908 616 967 c 128,-1,18
 546 1026 546 1026 420 1026 c 0,19,20
 254 1026 254 1026 160 886 c 1,21,-1
 112 912 l 1,22,23
 218 1078 218 1078 420 1078 c 0,24,25
 662 1078 662 1078 728 906 c 1,26,-1
 872 976 l 1,27,28
 896 916 896 916 945 878 c 128,-1,29
 994 840 994 840 1056 840 c 0,30,31
 1074 840 1074 840 1104 844 c 1,32,-1
 1104 794 l 1,33,34
 1070 790 1070 790 1054 790 c 0,35,36
 980 790 980 790 926 825 c 128,-1,37
 872 860 872 860 848 904 c 1,38,-1
 742 852 l 1,39,40
 746 834 746 834 746 798 c 0,41,42
 744 698 744 698 679 636 c 128,-1,43
 614 574 614 574 518 554 c 1,44,-1
 518 550 l 1,45,46
 632 526 632 526 712 453 c 128,-1,47
 792 380 792 380 792 260 c 0,48,49
 792 118 792 118 691 40 c 128,-1,50
 590 -38 590 -38 410 -38 c 0,51,52
 308 -38 308 -38 215 12 c 128,-1,53
 122 62 122 62 68 134 c 1,0,-1
EndSplineSet
EndChar

StartChar: uni025E
Encoding: 606 606 530
Width: 1114
GlyphClass: 2
Flags: W
LayerCount: 2
Fore
SplineSet
118 526 m 0,0,1
 118 788 118 788 246 933 c 128,-1,2
 374 1078 374 1078 576 1078 c 0,3,4
 752 1078 752 1078 852 997 c 128,-1,5
 952 916 952 916 952 788 c 0,6,7
 952 684 952 684 892 617 c 128,-1,8
 832 550 832 550 744 530 c 1,9,-1
 744 528 l 1,10,11
 848 510 848 510 923 438 c 128,-1,12
 998 366 998 366 998 252 c 0,13,14
 998 118 998 118 893 40 c 128,-1,15
 788 -38 788 -38 582 -38 c 0,16,17
 500 -38 500 -38 423 -8 c 128,-1,18
 346 22 346 22 275 85 c 128,-1,19
 204 148 204 148 161 262 c 128,-1,20
 118 376 118 376 118 526 c 0,0,1
178 526 m 0,21,22
 178 388 178 388 218 283 c 128,-1,23
 258 178 258 178 320 122 c 128,-1,24
 382 66 382 66 449 39 c 128,-1,25
 516 12 516 12 582 12 c 0,26,27
 754 12 754 12 846 79 c 128,-1,28
 938 146 938 146 938 248 c 0,29,30
 938 346 938 346 856 423 c 128,-1,31
 774 500 774 500 586 500 c 2,32,-1
 524 500 l 1,33,-1
 524 550 l 1,34,-1
 586 550 l 2,35,36
 756 550 756 550 826 621 c 128,-1,37
 896 692 896 692 896 786 c 0,38,39
 896 900 896 900 811 963 c 128,-1,40
 726 1026 726 1026 576 1026 c 0,41,42
 404 1026 404 1026 291 895 c 128,-1,43
 178 764 178 764 178 526 c 0,21,22
EndSplineSet
EndChar

StartChar: uni025F
Encoding: 607 607 531
Width: 570
GlyphClass: 2
Flags: W
LayerCount: 2
Fore
SplineSet
2 578 m 1,0,-1
 2 628 l 1,1,-1
 260 628 l 1,2,-1
 260 1040 l 1,3,-1
 318 1040 l 1,4,-1
 318 628 l 1,5,-1
 548 628 l 1,6,-1
 548 578 l 1,7,-1
 318 578 l 1,8,-1
 318 -158 l 2,9,10
 318 -314 318 -314 249 -397 c 128,-1,11
 180 -480 180 -480 60 -480 c 2,12,-1
 -6 -480 l 1,13,-1
 -6 -426 l 1,14,-1
 48 -426 l 2,15,16
 260 -426 260 -426 260 -150 c 2,17,-1
 260 578 l 1,18,-1
 2 578 l 1,0,-1
EndSplineSet
EndChar

StartChar: uni0260
Encoding: 608 608 532
Width: 1160
GlyphClass: 2
Flags: W
LayerCount: 2
Fore
SplineSet
118 540 m 256,0,1
 118 780 118 780 231 929 c 128,-1,2
 344 1078 344 1078 536 1078 c 0,3,4
 676 1078 676 1078 764 993 c 128,-1,5
 852 908 852 908 894 794 c 1,6,-1
 894 1274 l 2,7,8
 894 1404 894 1404 977 1473 c 128,-1,9
 1060 1542 1060 1542 1196 1542 c 0,10,11
 1214 1542 1214 1542 1296 1536 c 1,12,-1
 1296 1488 l 1,13,14
 1266 1490 1266 1490 1202 1490 c 0,15,16
 1092 1490 1092 1490 1023 1431 c 128,-1,17
 954 1372 954 1372 954 1256 c 2,18,-1
 954 76 l 2,19,20
 954 -210 954 -210 863 -353 c 128,-1,21
 772 -496 772 -496 548 -496 c 0,22,23
 440 -496 440 -496 347 -451 c 128,-1,24
 254 -406 254 -406 196 -328 c 1,25,-1
 242 -298 l 1,26,27
 370 -444 370 -444 550 -444 c 0,28,29
 740 -444 740 -444 817 -313 c 128,-1,30
 894 -182 894 -182 894 70 c 2,31,-1
 894 272 l 1,32,33
 798 -4 798 -4 538 -4 c 0,34,35
 350 -4 350 -4 234 148 c 128,-1,36
 118 300 118 300 118 540 c 256,0,1
178 538 m 0,37,38
 178 318 178 318 278 184 c 128,-1,39
 378 50 378 50 536 50 c 0,40,41
 702 50 702 50 798 181 c 128,-1,42
 894 312 894 312 894 542 c 0,43,44
 894 756 894 756 795 891 c 128,-1,45
 696 1026 696 1026 540 1026 c 0,46,47
 372 1026 372 1026 275 889 c 128,-1,48
 178 752 178 752 178 538 c 0,37,38
EndSplineSet
EndChar

StartChar: uni0262
Encoding: 610 610 534
Width: 1202
GlyphClass: 2
Flags: W
LayerCount: 2
Fore
SplineSet
118 520 m 0,0,1
 118 770 118 770 252 924 c 128,-1,2
 386 1078 386 1078 618 1078 c 0,3,4
 854 1078 854 1078 988 878 c 1,5,-1
 938 852 l 1,6,7
 808 1026 808 1026 618 1026 c 0,8,9
 416 1026 416 1026 297 886 c 128,-1,10
 178 746 178 746 178 520 c 0,11,12
 178 290 178 290 297 151 c 128,-1,13
 416 12 416 12 612 12 c 0,14,15
 790 12 790 12 889 125 c 128,-1,16
 988 238 988 238 988 388 c 2,17,-1
 988 484 l 1,18,-1
 598 484 l 1,19,-1
 598 536 l 1,20,-1
 1046 536 l 1,21,-1
 1046 0 l 1,22,-1
 990 0 l 1,23,-1
 990 192 l 1,24,25
 954 98 954 98 856 30 c 128,-1,26
 758 -38 758 -38 610 -38 c 0,27,28
 382 -38 382 -38 250 113 c 128,-1,29
 118 264 118 264 118 520 c 0,0,1
EndSplineSet
EndChar

StartChar: uni0263
Encoding: 611 611 535
Width: 952
GlyphClass: 2
Flags: W
LayerCount: 2
Fore
SplineSet
34 1040 m 1,0,-1
 100 1040 l 1,1,-1
 458 200 l 1,2,-1
 478 146 l 1,3,-1
 852 1040 l 1,4,-1
 924 1040 l 1,5,-1
 520 92 l 1,6,7
 578 12 578 12 607 -30 c 128,-1,8
 636 -72 636 -72 661 -136 c 128,-1,9
 686 -200 686 -200 686 -260 c 0,10,11
 686 -364 686 -364 629 -430 c 128,-1,12
 572 -496 572 -496 478 -496 c 0,13,14
 388 -496 388 -496 331 -433 c 128,-1,15
 274 -370 274 -370 274 -260 c 0,16,17
 274 -238 274 -238 276 -217 c 128,-1,18
 278 -196 278 -196 285 -174 c 128,-1,19
 292 -152 292 -152 296 -136 c 128,-1,20
 300 -120 300 -120 313 -96 c 128,-1,21
 326 -72 326 -72 331 -62 c 128,-1,22
 336 -52 336 -52 355 -25 c 128,-1,23
 374 2 374 2 380 10 c 128,-1,24
 386 18 386 18 409 50 c 128,-1,25
 432 82 432 82 438 90 c 1,26,-1
 34 1040 l 1,0,-1
328 -264 m 0,27,28
 328 -340 328 -340 369 -395 c 128,-1,29
 410 -450 410 -450 478 -450 c 0,30,31
 548 -450 548 -450 590 -395 c 128,-1,32
 632 -340 632 -340 632 -264 c 0,33,34
 632 -242 632 -242 628 -218 c 128,-1,35
 624 -194 624 -194 621 -177 c 128,-1,36
 618 -160 618 -160 604 -134 c 128,-1,37
 590 -108 590 -108 586 -98 c 128,-1,38
 582 -88 582 -88 561 -59 c 128,-1,39
 540 -30 540 -30 536 -24 c 128,-1,40
 532 -18 532 -18 506 16 c 128,-1,41
 480 50 480 50 478 52 c 1,42,43
 328 -136 328 -136 328 -264 c 0,27,28
EndSplineSet
Substitution2: "'sups' Superscript lookup 5 subtable" uni02E0
Substitution2: "'aalt' Access All Alternates lookup 0 subtable" uni02E0
EndChar

StartChar: uni0264
Encoding: 612 612 536
Width: 956
GlyphClass: 2
Flags: W
LayerCount: 2
Fore
SplineSet
480 752 m 1,0,1
 410 672 410 672 371 618 c 128,-1,2
 332 564 332 564 295 468 c 128,-1,3
 258 372 258 372 258 270 c 0,4,5
 258 156 258 156 318 84 c 128,-1,6
 378 12 378 12 482 12 c 0,7,8
 580 12 580 12 640 84 c 128,-1,9
 700 156 700 156 700 270 c 0,10,11
 700 410 700 410 643 521 c 128,-1,12
 586 632 586 632 480 752 c 1,0,1
96 1020 m 1,13,-1
 96 1070 l 1,14,15
 124 1078 124 1078 156 1078 c 0,16,17
 252 1078 252 1078 325 1019 c 128,-1,18
 398 960 398 960 480 846 c 1,19,20
 564 962 564 962 635 1020 c 128,-1,21
 706 1078 706 1078 800 1078 c 0,22,23
 834 1078 834 1078 862 1072 c 1,24,-1
 862 1020 l 1,25,26
 844 1026 844 1026 804 1026 c 0,27,28
 724 1026 724 1026 657 967 c 128,-1,29
 590 908 590 908 514 798 c 1,30,31
 640 650 640 650 700 534 c 128,-1,32
 760 418 760 418 760 270 c 0,33,34
 760 130 760 130 686 46 c 128,-1,35
 612 -38 612 -38 482 -38 c 0,36,37
 348 -38 348 -38 273 46 c 128,-1,38
 198 130 198 130 198 270 c 0,39,40
 198 306 198 306 203 341 c 128,-1,41
 208 376 208 376 212 403 c 128,-1,42
 216 430 216 430 231 465 c 128,-1,43
 246 500 246 500 252 518 c 128,-1,44
 258 536 258 536 280 573 c 128,-1,45
 302 610 302 610 308 621 c 128,-1,46
 314 632 314 632 342 669 c 128,-1,47
 370 706 370 706 374 712 c 128,-1,48
 378 718 378 718 411 757 c 128,-1,49
 444 796 444 796 444 798 c 0,50,51
 368 912 368 912 303 969 c 128,-1,52
 238 1026 238 1026 156 1026 c 0,53,54
 134 1026 134 1026 96 1020 c 1,13,-1
EndSplineSet
EndChar

StartChar: uni0265
Encoding: 613 613 537
Width: 1170
GlyphClass: 2
Flags: W
LayerCount: 2
Fore
SplineSet
190 364 m 2,0,-1
 190 1040 l 1,1,-1
 252 1040 l 1,2,-1
 252 380 l 2,3,4
 252 12 252 12 534 12 c 0,5,6
 676 12 676 12 789 128 c 128,-1,7
 902 244 902 244 902 402 c 2,8,-1
 902 1040 l 1,9,-1
 962 1040 l 1,10,-1
 962 -488 l 1,11,-1
 902 -488 l 1,12,-1
 902 216 l 1,13,14
 868 120 868 120 765 41 c 128,-1,15
 662 -38 662 -38 522 -38 c 0,16,17
 464 -38 464 -38 413 -22 c 128,-1,18
 362 -6 362 -6 308 33 c 128,-1,19
 254 72 254 72 222 158 c 128,-1,20
 190 244 190 244 190 364 c 2,0,-1
EndSplineSet
EndChar

StartChar: uni0266
Encoding: 614 614 538
Width: 1170
GlyphClass: 2
Flags: W
LayerCount: 2
Fore
SplineSet
208 0 m 1,0,-1
 208 1220 l 2,1,2
 208 1374 208 1374 298 1458 c 128,-1,3
 388 1542 388 1542 528 1542 c 0,4,5
 632 1542 632 1542 730 1528 c 1,6,-1
 730 1474 l 1,7,8
 626 1490 626 1490 530 1490 c 0,9,10
 396 1490 396 1490 334 1403 c 128,-1,11
 272 1316 272 1316 272 1214 c 2,12,-1
 272 822 l 1,13,14
 310 920 310 920 413 999 c 128,-1,15
 516 1078 516 1078 652 1078 c 0,16,17
 714 1078 714 1078 765 1062 c 128,-1,18
 816 1046 816 1046 869 1005 c 128,-1,19
 922 964 922 964 953 880 c 128,-1,20
 984 796 984 796 984 676 c 2,21,-1
 984 0 l 1,22,-1
 924 0 l 1,23,-1
 924 658 l 2,24,25
 924 1026 924 1026 640 1026 c 0,26,27
 502 1026 502 1026 387 913 c 128,-1,28
 272 800 272 800 272 634 c 2,29,-1
 272 0 l 1,30,-1
 208 0 l 1,0,-1
EndSplineSet
Substitution2: "'sups' Superscript lookup 5 subtable" uni02B1
Substitution2: "'aalt' Access All Alternates lookup 0 subtable" uni02B1
EndChar

